%FSLAX44Y44*%
%MOMM*%
G71*
G01*
G75*
G04 Layer_Color=16711935*
%ADD10R,1.3000X2.1000*%
%ADD11O,2.0000X1.0000*%
%ADD12O,4.0000X1.0000*%
%ADD13R,0.6500X0.9000*%
%ADD14R,2.0000X2.0000*%
%ADD15O,1.0000X3.0000*%
%ADD16R,0.9000X0.6500*%
%ADD17R,1.3000X0.9000*%
%ADD18O,1.0000X2.0000*%
%ADD19R,0.9000X1.3000*%
%ADD20R,1.9000X4.0000*%
%ADD21R,1.3000X4.5000*%
%ADD22R,0.6500X1.1000*%
%ADD23R,1.0000X1.0000*%
%ADD24R,0.6000X1.5000*%
%ADD25R,1.4000X0.6000*%
%ADD26P,2.0566X8X112.5*%
%ADD27R,1.3970X2.5400*%
%ADD28R,2.5400X1.1430*%
%ADD29C,0.3000*%
%ADD30C,0.6000*%
%ADD31C,0.4000*%
%ADD32C,0.5000*%
%ADD33C,0.2000*%
%ADD34C,3.0000*%
%ADD35R,1.5000X1.5000*%
%ADD36C,1.5000*%
%ADD37C,3.5000*%
%ADD38C,0.8000*%
%ADD39C,0.7000*%
%ADD40C,1.0000*%
%ADD41C,0.2500*%
%ADD42C,0.1000*%
%ADD43C,0.2540*%
%ADD44C,0.0127*%
%ADD45C,0.1500*%
%ADD46R,1.5032X2.3032*%
%ADD47O,2.2032X1.2032*%
%ADD48O,4.2032X1.2032*%
%ADD49R,0.8532X1.1032*%
%ADD50R,2.2032X2.2032*%
%ADD51O,1.2032X3.2032*%
%ADD52R,1.1032X0.8532*%
%ADD53R,1.5032X1.1032*%
%ADD54O,1.2032X2.2032*%
%ADD55R,1.1032X1.5032*%
%ADD56R,2.1032X4.2032*%
%ADD57R,1.5032X4.7032*%
%ADD58R,0.8532X1.3032*%
%ADD59R,1.2032X1.2032*%
%ADD60R,0.8032X1.7032*%
%ADD61R,1.6032X0.8032*%
%ADD62P,2.2765X8X112.5*%
%ADD63R,1.6002X2.7432*%
%ADD64R,2.7432X1.3462*%
%ADD65C,3.2032*%
%ADD66R,1.7032X1.7032*%
%ADD67C,1.7032*%
%ADD68C,3.7032*%
D65*
X755000Y25001D02*
D03*
X25000Y365000D02*
D03*
D66*
X218920Y45720D02*
D03*
X386560Y66040D02*
D03*
X528320Y45720D02*
D03*
X513080Y355600D02*
D03*
D67*
X244320Y45720D02*
D03*
X269720D02*
D03*
X295120D02*
D03*
X320520D02*
D03*
X345920D02*
D03*
X488160Y66040D02*
D03*
X462760D02*
D03*
X437360D02*
D03*
X411960D02*
D03*
X706120Y45720D02*
D03*
X680720D02*
D03*
X655320D02*
D03*
X629920D02*
D03*
X604520D02*
D03*
X579120D02*
D03*
X553720D02*
D03*
X538480Y355600D02*
D03*
X589280D02*
D03*
X614680D02*
D03*
X640080D02*
D03*
X665480D02*
D03*
X690880D02*
D03*
X716280D02*
D03*
X741680D02*
D03*
X563880D02*
D03*
D68*
X755170Y195250D02*
D03*
X30000D02*
D03*
Y100000D02*
D03*
X755170D02*
D03*
Y293040D02*
D03*
X30000D02*
D03*
M02*
