M48
;Layer_Color=9474304
;FILE_FORMAT=4:4
METRIC,LZ
;TYPE=PLATED
T1F00S00C0.4000
T2F00S00C0.5000
T3F00S00C0.9000
T4F00S00C2.0000
;TYPE=NON_PLATED
T5F00S00C3.2000
%
T01
X00693Y00083
X00702Y0015
X00707Y00255
X0064Y00253
X00633Y00266
X00612Y0025
X00582Y00249
X00562Y00248
X00523Y0024
X00505Y00229794
X00503992Y00210992
X0051Y00189916
X00509Y00158
X00502Y00142
X00481
X00457Y0014
X00418Y0012
X00398
X00378
X00358
X00339
X00336Y00095
X00357Y0008
X00366Y00038
Y00022
X00507Y00027
Y00008
X0054641Y0011523
Y0013273
X00566213Y00135213
X00566Y00117
X00593Y00111
X00643Y00113
X00646Y00133
X00642Y00151
X00613Y00149
X00614Y00215
X00643Y00211
X00642Y00192
X00654Y00186
X0067Y001
X00546Y00215
X00295Y0012
X0028Y00098
X0026972Y0006822
X0022Y0013
X00215Y00145
X00205
X0019Y0016
Y00175
X00185Y0019
X0019Y0024
X00206Y00264
X002375Y002525
X002525
Y0024
X00276Y0023
Y0021
Y0019
X00245Y0016
X00269Y00271
X00128Y00191
X00197Y00305
X002Y00321
X00239Y00318
X00269Y00323
X00262Y00301
X00272Y00292
X002625Y002825
X00292Y00324
X00502Y0032
X00491Y00361
X00526Y0029
X00516Y00279
X00551737Y00279263
X00566Y00294
X00578Y00305
X0058Y0028
X00595Y00276
X00604Y00287
X00603Y00308
X00629Y00305
X00627Y00288
X00657Y00291
X00652Y00311
X00707Y00313
Y00295
Y00274
T02
X0014236Y001568
X00141Y00242
T03
X0068072Y0004572
X0070612
X0065532
X0062992
X0060452
X0057912
X0055372
X0052832
X0048816Y0006604
X0046276
X0043736
X0041196
X0038656
X0034592Y0004572
X0032052
X0029512
X0026972
X0024432
X0021892
X0051308Y003556
X0053848
X0056388
X0058928
X0061468
X0064008
X0066548
X0069088
X0071628
X0074168
T04
X0075517Y001
Y0019525
X0003
Y001
Y0029304
X0075517
T05
X00755Y00025001
X00025Y00365
M30
