%FSLAX44Y44*%
%MOMM*%
G71*
G01*
G75*
G04 Layer_Color=32896*
%ADD10R,1.3000X2.1000*%
%ADD11O,2.0000X1.0000*%
%ADD12O,4.0000X1.0000*%
%ADD13R,0.6500X0.9000*%
%ADD14R,2.0000X2.0000*%
%ADD15O,1.0000X3.0000*%
%ADD16R,0.9000X0.6500*%
%ADD17R,1.3000X0.9000*%
%ADD18O,1.0000X2.0000*%
%ADD19R,0.9000X1.3000*%
%ADD20R,1.9000X4.0000*%
%ADD21R,1.3000X4.5000*%
%ADD22R,0.6500X1.1000*%
%ADD23R,1.0000X1.0000*%
%ADD24R,0.6000X1.5000*%
%ADD25R,1.4000X0.6000*%
%ADD26P,2.0566X8X112.5*%
%ADD27R,1.3970X2.5400*%
%ADD28R,2.5400X1.1430*%
%ADD29C,0.3000*%
%ADD30C,0.6000*%
%ADD31C,0.4000*%
%ADD32C,0.5000*%
%ADD33C,0.2000*%
%ADD34C,3.0000*%
%ADD35R,1.5000X1.5000*%
%ADD36C,1.5000*%
%ADD37C,3.5000*%
%ADD38C,0.8000*%
%ADD39C,0.7000*%
%ADD40C,1.0000*%
%ADD41C,0.2500*%
%ADD42C,0.1000*%
%ADD43C,0.2540*%
%ADD44C,0.0127*%
%ADD45C,0.1500*%
%ADD46R,1.5032X2.3032*%
%ADD47O,2.2032X1.2032*%
%ADD48O,4.2032X1.2032*%
%ADD49R,0.8532X1.1032*%
%ADD50R,2.2032X2.2032*%
%ADD51O,1.2032X3.2032*%
%ADD52R,1.1032X0.8532*%
%ADD53R,1.5032X1.1032*%
%ADD54O,1.2032X2.2032*%
%ADD55R,1.1032X1.5032*%
%ADD56R,2.1032X4.2032*%
%ADD57R,1.5032X4.7032*%
%ADD58R,0.8532X1.3032*%
%ADD59R,1.2032X1.2032*%
%ADD60R,0.8032X1.7032*%
%ADD61R,1.6032X0.8032*%
%ADD62P,2.2765X8X112.5*%
%ADD63R,1.6002X2.7432*%
%ADD64R,2.7432X1.3462*%
%ADD65C,3.2032*%
%ADD66R,1.7032X1.7032*%
%ADD67C,1.7032*%
%ADD68C,3.7032*%
%ADD69C,0.0508*%
D69*
X508000Y172752D02*
X518160D01*
X368808Y162592D02*
X394716D01*
X262128Y127540D02*
X515620D01*
X261620Y128048D02*
X516128D01*
X261112Y128556D02*
X516636D01*
X260604Y129064D02*
X517144D01*
X260604Y129572D02*
X517144D01*
X260096Y130080D02*
X517652D01*
X260096Y130588D02*
X517652D01*
X259588Y131096D02*
X518160D01*
X259588Y131604D02*
X518160D01*
X259588Y132112D02*
X518160D01*
X259588Y132620D02*
X518160D01*
X259588Y133128D02*
X518160D01*
X259588Y133636D02*
X421132D01*
X499872D02*
X518160D01*
X259588Y134144D02*
X419100D01*
X501904D02*
X518160D01*
X259588Y134652D02*
X418592D01*
X502412D02*
X518160D01*
X259588Y135160D02*
X417576D01*
X503428D02*
X518160D01*
X259588Y135668D02*
X416560D01*
X504444D02*
X518160D01*
X259588Y136176D02*
X416052D01*
X504952D02*
X518160D01*
X259588Y136684D02*
X415544D01*
X505460D02*
X518160D01*
X259588Y137192D02*
X415036D01*
X505968D02*
X518160D01*
X259588Y137700D02*
X282448D01*
X291084D02*
X415036D01*
X505968D02*
X518160D01*
X259588Y138208D02*
X280416D01*
X293116D02*
X318516D01*
X338328D02*
X341376D01*
X350520D02*
X367284D01*
X376936D02*
X377952D01*
X404368D02*
X414528D01*
X506476D02*
X518160D01*
X259588Y138716D02*
X278892D01*
X294640D02*
X315976D01*
X338328D02*
X341376D01*
X350520D02*
X367284D01*
X376428D02*
X377952D01*
X404368D02*
X414020D01*
X506984D02*
X518160D01*
X259588Y139224D02*
X277368D01*
X295656D02*
X314452D01*
X338328D02*
X341376D01*
X351028D02*
X366776D01*
X376428D02*
X377952D01*
X404368D02*
X414020D01*
X506984D02*
X518160D01*
X259588Y139732D02*
X276860D01*
X296672D02*
X313436D01*
X338328D02*
X341884D01*
X351028D02*
X366776D01*
X376428D02*
X377952D01*
X404368D02*
X413512D01*
X507492D02*
X518160D01*
X259588Y140240D02*
X275844D01*
X297688D02*
X312420D01*
X338328D02*
X341884D01*
X351028D02*
X366776D01*
X375920D02*
X377952D01*
X404368D02*
X413512D01*
X507492D02*
X518160D01*
X259588Y140748D02*
X275336D01*
X298704D02*
X311404D01*
X338328D02*
X341884D01*
X351536D02*
X366776D01*
X375920D02*
X377952D01*
X404368D02*
X413512D01*
X507492D02*
X518160D01*
X259588Y141256D02*
X274828D01*
X299212D02*
X310896D01*
X338328D02*
X342392D01*
X351536D02*
X366268D01*
X375920D02*
X377952D01*
X404368D02*
X413512D01*
X507492D02*
X518160D01*
X259588Y141764D02*
X274320D01*
X299720D02*
X310388D01*
X338328D02*
X342392D01*
X351536D02*
X366268D01*
X375412D02*
X377952D01*
X404368D02*
X413004D01*
X508000D02*
X518160D01*
X259588Y142272D02*
X273812D01*
X300228D02*
X309880D01*
X338328D02*
X342392D01*
X352044D02*
X366268D01*
X375412D02*
X377952D01*
X404368D02*
X413004D01*
X508000D02*
X518160D01*
X259588Y142780D02*
X273304D01*
X300736D02*
X309372D01*
X338328D02*
X342392D01*
X352044D02*
X365760D01*
X375412D02*
X377952D01*
X404368D02*
X413004D01*
X508000D02*
X518160D01*
X259588Y143288D02*
X273304D01*
X301244D02*
X308864D01*
X338328D02*
X342900D01*
X352044D02*
X365760D01*
X374904D02*
X377952D01*
X404368D02*
X413004D01*
X454660D02*
X464820D01*
X508000D02*
X518160D01*
X259588Y143796D02*
X272796D01*
X301752D02*
X308864D01*
X338328D02*
X342900D01*
X352044D02*
X365760D01*
X374904D02*
X377952D01*
X404368D02*
X413004D01*
X452628D02*
X466852D01*
X508000D02*
X518160D01*
X259588Y144304D02*
X272796D01*
X301752D02*
X308356D01*
X338328D02*
X342900D01*
X352552D02*
X365760D01*
X374904D02*
X377952D01*
X404368D02*
X413004D01*
X450596D02*
X468884D01*
X508000D02*
X518160D01*
X259588Y144812D02*
X272288D01*
X284988D02*
X289052D01*
X302260D02*
X308356D01*
X338328D02*
X343408D01*
X352552D02*
X365252D01*
X374396D02*
X377952D01*
X404368D02*
X413004D01*
X449072D02*
X470408D01*
X508000D02*
X518160D01*
X259588Y145320D02*
X272288D01*
X282956D02*
X291084D01*
X302260D02*
X308356D01*
X320548D02*
X328676D01*
X338328D02*
X343408D01*
X352552D02*
X365252D01*
X374396D02*
X394716D01*
X404368D02*
X413004D01*
X447548D02*
X471932D01*
X508000D02*
X518160D01*
X259588Y145828D02*
X272288D01*
X282448D02*
X292100D01*
X302768D02*
X307848D01*
X319024D02*
X328676D01*
X338328D02*
X343408D01*
X374396D02*
X394716D01*
X404368D02*
X413004D01*
X447548D02*
X472440D01*
X508000D02*
X518160D01*
X259588Y146336D02*
X271780D01*
X281940D02*
X292608D01*
X302768D02*
X307848D01*
X318008D02*
X329184D01*
X338328D02*
X343916D01*
X373888D02*
X395224D01*
X404368D02*
X413004D01*
X448056D02*
X471932D01*
X508000D02*
X518160D01*
X259588Y146844D02*
X271780D01*
X281432D02*
X293116D01*
X302768D02*
X307848D01*
X317500D02*
X328676D01*
X338328D02*
X343916D01*
X373888D02*
X394716D01*
X404368D02*
X413004D01*
X448056D02*
X471932D01*
X508000D02*
X518160D01*
X259588Y147352D02*
X271780D01*
X281432D02*
X293624D01*
X303276D02*
X307848D01*
X317500D02*
X328676D01*
X338328D02*
X343916D01*
X373888D02*
X394716D01*
X404368D02*
X413004D01*
X433832D02*
X435356D01*
X448056D02*
X471424D01*
X484124D02*
X485648D01*
X508000D02*
X518160D01*
X259588Y147860D02*
X271780D01*
X281432D02*
X293624D01*
X303276D02*
X307340D01*
X316992D02*
X328676D01*
X338328D02*
X344424D01*
X373380D02*
X394716D01*
X404368D02*
X413004D01*
X433324D02*
X436372D01*
X448564D02*
X471424D01*
X483108D02*
X486156D01*
X508000D02*
X518160D01*
X259588Y148368D02*
X271780D01*
X281432D02*
X293624D01*
X303276D02*
X307340D01*
X316992D02*
X328676D01*
X338328D02*
X344424D01*
X373380D02*
X394716D01*
X404368D02*
X413004D01*
X432816D02*
X436880D01*
X448564D02*
X471424D01*
X482600D02*
X486664D01*
X508000D02*
X518160D01*
X259588Y148876D02*
X271780D01*
X281432D02*
X294132D01*
X303276D02*
X307340D01*
X316992D02*
X328676D01*
X338328D02*
X344424D01*
X373380D02*
X394716D01*
X404368D02*
X413004D01*
X432308D02*
X437896D01*
X449072D02*
X470916D01*
X482092D02*
X487172D01*
X508000D02*
X518160D01*
X259588Y149384D02*
X271780D01*
X281432D02*
X294132D01*
X303276D02*
X307340D01*
X316992D02*
X328676D01*
X338328D02*
X344932D01*
X373380D02*
X394716D01*
X404368D02*
X413004D01*
X431800D02*
X438404D01*
X449072D02*
X470916D01*
X481076D02*
X487680D01*
X508000D02*
X518160D01*
X259588Y149892D02*
X271780D01*
X281432D02*
X294132D01*
X303276D02*
X307340D01*
X316992D02*
X328676D01*
X338328D02*
X344932D01*
X372872D02*
X394716D01*
X404368D02*
X413004D01*
X431292D02*
X438912D01*
X449072D02*
X470408D01*
X480568D02*
X488188D01*
X508000D02*
X518160D01*
X259588Y150400D02*
X271780D01*
X281432D02*
X294132D01*
X303276D02*
X307340D01*
X316992D02*
X328676D01*
X338328D02*
X344932D01*
X372872D02*
X394716D01*
X404368D02*
X413004D01*
X430784D02*
X439928D01*
X449580D02*
X470408D01*
X479552D02*
X488696D01*
X508000D02*
X518160D01*
X259588Y150908D02*
X271780D01*
X281940D02*
X294640D01*
X303276D02*
X307340D01*
X316992D02*
X328676D01*
X338328D02*
X345440D01*
X372872D02*
X394716D01*
X404368D02*
X413004D01*
X430276D02*
X440436D01*
X446532D02*
X448056D01*
X449580D02*
X470408D01*
X471424D02*
X472948D01*
X479044D02*
X489204D01*
X508000D02*
X518160D01*
X259588Y151416D02*
X272288D01*
X282448D02*
X307848D01*
X316992D02*
X328676D01*
X338328D02*
X345440D01*
X372364D02*
X394716D01*
X404368D02*
X413004D01*
X429768D02*
X441452D01*
X445516D02*
X448056D01*
X450088D02*
X469900D01*
X471424D02*
X473964D01*
X478028D02*
X489712D01*
X508000D02*
X518160D01*
X259588Y151924D02*
X272288D01*
X282956D02*
X307848D01*
X317500D02*
X329184D01*
X338328D02*
X345440D01*
X372364D02*
X394716D01*
X404368D02*
X413004D01*
X429260D02*
X441960D01*
X445008D02*
X448564D01*
X450088D02*
X469900D01*
X470916D02*
X474472D01*
X477520D02*
X490220D01*
X508000D02*
X518160D01*
X259588Y152432D02*
X272288D01*
X283972D02*
X307848D01*
X317500D02*
X329184D01*
X338328D02*
X345948D01*
X372364D02*
X394716D01*
X404368D02*
X413004D01*
X428752D02*
X442976D01*
X443992D02*
X448564D01*
X450596D02*
X469392D01*
X470916D02*
X475488D01*
X476504D02*
X490728D01*
X508000D02*
X518160D01*
X259588Y152940D02*
X272796D01*
X284988D02*
X307848D01*
X318008D02*
X329184D01*
X338328D02*
X345948D01*
X355092D02*
X363220D01*
X371856D02*
X394716D01*
X404368D02*
X413004D01*
X428244D02*
X448564D01*
X450596D02*
X469392D01*
X470916D02*
X491236D01*
X508000D02*
X518160D01*
X259588Y153448D02*
X272796D01*
X286004D02*
X308356D01*
X319024D02*
X328676D01*
X338328D02*
X345948D01*
X355092D02*
X362712D01*
X371856D02*
X394716D01*
X404368D02*
X413004D01*
X427736D02*
X449072D01*
X450596D02*
X468884D01*
X470408D02*
X491744D01*
X508000D02*
X518160D01*
X259588Y153956D02*
X273304D01*
X287020D02*
X308356D01*
X320548D02*
X328676D01*
X338328D02*
X346456D01*
X355092D02*
X362712D01*
X371856D02*
X394716D01*
X404368D02*
X413004D01*
X427228D02*
X449072D01*
X451104D02*
X468884D01*
X470408D02*
X492252D01*
X508000D02*
X518160D01*
X259588Y154464D02*
X273304D01*
X288544D02*
X308864D01*
X338328D02*
X346456D01*
X355600D02*
X362712D01*
X371348D02*
X394716D01*
X404368D02*
X413004D01*
X426720D02*
X449580D01*
X451104D02*
X468884D01*
X469900D02*
X492760D01*
X508000D02*
X518160D01*
X259588Y154972D02*
X273812D01*
X290068D02*
X308864D01*
X338328D02*
X346456D01*
X355600D02*
X362204D01*
X371348D02*
X394716D01*
X404368D02*
X413004D01*
X426212D02*
X449580D01*
X451104D02*
X468376D01*
X469900D02*
X492760D01*
X508000D02*
X518160D01*
X259588Y155480D02*
X274320D01*
X291592D02*
X309372D01*
X338328D02*
X346964D01*
X355600D02*
X362204D01*
X371348D02*
X394716D01*
X404368D02*
X413004D01*
X426720D02*
X450088D01*
X451612D02*
X468376D01*
X469900D02*
X492760D01*
X508000D02*
X518160D01*
X259588Y155988D02*
X274828D01*
X293116D02*
X309880D01*
X338328D02*
X346964D01*
X355600D02*
X362204D01*
X370840D02*
X394716D01*
X404368D02*
X413004D01*
X426720D02*
X450088D01*
X451612D02*
X467868D01*
X469392D02*
X492760D01*
X508000D02*
X518160D01*
X259588Y156496D02*
X275336D01*
X294132D02*
X310388D01*
X338328D02*
X346964D01*
X356108D02*
X362204D01*
X370840D02*
X394716D01*
X404368D02*
X413004D01*
X427228D02*
X450088D01*
X452120D02*
X467868D01*
X469392D02*
X492252D01*
X508000D02*
X518160D01*
X259588Y157004D02*
X275844D01*
X295148D02*
X311404D01*
X338328D02*
X347472D01*
X356108D02*
X361696D01*
X370840D02*
X394716D01*
X404368D02*
X413004D01*
X427736D02*
X450596D01*
X452120D02*
X467360D01*
X468884D02*
X491744D01*
X508000D02*
X518160D01*
X259588Y157512D02*
X276860D01*
X296164D02*
X311912D01*
X338328D02*
X347472D01*
X356108D02*
X361696D01*
X370332D02*
X394716D01*
X404368D02*
X413004D01*
X428244D02*
X450596D01*
X452120D02*
X467360D01*
X468884D02*
X491236D01*
X508000D02*
X518160D01*
X259588Y158020D02*
X277368D01*
X297180D02*
X313436D01*
X338328D02*
X347472D01*
X356616D02*
X361696D01*
X370332D02*
X394716D01*
X404368D02*
X413004D01*
X428244D02*
X451104D01*
X452628D02*
X467360D01*
X468884D02*
X491236D01*
X508000D02*
X518160D01*
X259588Y158528D02*
X278384D01*
X297688D02*
X313436D01*
X338328D02*
X347980D01*
X356616D02*
X361188D01*
X370332D02*
X394716D01*
X404368D02*
X413004D01*
X428752D02*
X451104D01*
X452628D02*
X466852D01*
X468376D02*
X490728D01*
X508000D02*
X518160D01*
X259588Y159036D02*
X279400D01*
X298704D02*
X312420D01*
X338328D02*
X347980D01*
X356616D02*
X361188D01*
X369824D02*
X394716D01*
X404368D02*
X413004D01*
X429260D02*
X451104D01*
X453136D02*
X466852D01*
X468376D02*
X490220D01*
X508000D02*
X518160D01*
X259588Y159544D02*
X280416D01*
X299212D02*
X311912D01*
X338328D02*
X347980D01*
X356616D02*
X361188D01*
X369824D02*
X394716D01*
X404368D02*
X413004D01*
X429260D02*
X451612D01*
X453136D02*
X466344D01*
X467868D02*
X490220D01*
X508000D02*
X518160D01*
X259588Y160052D02*
X281940D01*
X299720D02*
X311404D01*
X338328D02*
X348488D01*
X357124D02*
X361188D01*
X369824D02*
X394716D01*
X404368D02*
X413004D01*
X429768D02*
X451612D01*
X453644D02*
X466344D01*
X467868D02*
X489712D01*
X508000D02*
X518160D01*
X259588Y160560D02*
X282956D01*
X300228D02*
X310896D01*
X338328D02*
X348488D01*
X357124D02*
X360680D01*
X369316D02*
X394716D01*
X404368D02*
X413004D01*
X430276D02*
X452120D01*
X453644D02*
X466344D01*
X467360D02*
X489204D01*
X508000D02*
X518160D01*
X259588Y161068D02*
X284480D01*
X300736D02*
X310388D01*
X338328D02*
X348488D01*
X357124D02*
X360680D01*
X369316D02*
X394716D01*
X404368D02*
X413004D01*
X430276D02*
X452120D01*
X453644D02*
X465836D01*
X467360D02*
X489204D01*
X508000D02*
X518160D01*
X259588Y161576D02*
X286004D01*
X301244D02*
X310388D01*
X322580D02*
X328676D01*
X338328D02*
X348488D01*
X357632D02*
X360680D01*
X369316D02*
X394716D01*
X404368D02*
X413004D01*
X430784D02*
X452120D01*
X454152D02*
X465836D01*
X467360D02*
X488696D01*
X508000D02*
X518160D01*
X259588Y162084D02*
X287528D01*
X301244D02*
X309880D01*
X320548D02*
X328676D01*
X338328D02*
X348996D01*
X357632D02*
X360172D01*
X368808D02*
X394716D01*
X404368D02*
X413004D01*
X431292D02*
X452628D01*
X454152D02*
X465328D01*
X466852D02*
X488188D01*
X508000D02*
X518160D01*
X259588Y162592D02*
X288544D01*
X301752D02*
X309372D01*
X319532D02*
X329184D01*
X338328D02*
X348996D01*
X357632D02*
X360172D01*
X404368D02*
X413004D01*
X431292D02*
X452628D01*
X454152D02*
X465328D01*
X466852D02*
X488188D01*
X508000D02*
X518160D01*
X259588Y163100D02*
X290068D01*
X301752D02*
X309372D01*
X319024D02*
X328676D01*
X338328D02*
X348996D01*
X357632D02*
X360172D01*
X368808D02*
X394716D01*
X404368D02*
X413004D01*
X431800D02*
X453136D01*
X454660D02*
X464820D01*
X466344D02*
X487680D01*
X508000D02*
X518160D01*
X259588Y163608D02*
X290576D01*
X301752D02*
X309372D01*
X319024D02*
X328676D01*
X338328D02*
X349504D01*
X358140D02*
X360172D01*
X368300D02*
X394716D01*
X404368D02*
X413004D01*
X432308D02*
X453136D01*
X454660D02*
X464820D01*
X466344D02*
X487172D01*
X508000D02*
X518160D01*
X259588Y164116D02*
X291592D01*
X302260D02*
X308864D01*
X318516D02*
X328676D01*
X338328D02*
X349504D01*
X358140D02*
X359664D01*
X368300D02*
X394716D01*
X404368D02*
X413004D01*
X432308D02*
X453644D01*
X455168D02*
X464820D01*
X466344D02*
X487172D01*
X508000D02*
X518160D01*
X259588Y164624D02*
X292100D01*
X302260D02*
X308864D01*
X318516D02*
X328676D01*
X338328D02*
X349504D01*
X358140D02*
X359664D01*
X368300D02*
X394716D01*
X404368D02*
X413004D01*
X432308D02*
X453644D01*
X455168D02*
X464312D01*
X465836D02*
X487172D01*
X508000D02*
X518160D01*
X259588Y165132D02*
X292608D01*
X302260D02*
X308864D01*
X318516D02*
X328676D01*
X338328D02*
X350012D01*
X358648D02*
X359664D01*
X367792D02*
X394716D01*
X404368D02*
X413004D01*
X431800D02*
X453644D01*
X455676D02*
X464312D01*
X465836D02*
X487680D01*
X508000D02*
X518160D01*
X259588Y165640D02*
X292608D01*
X302260D02*
X308864D01*
X318516D02*
X328676D01*
X338328D02*
X350012D01*
X358648D02*
X359156D01*
X367792D02*
X394716D01*
X404368D02*
X413004D01*
X431800D02*
X454152D01*
X455676D02*
X463804D01*
X465328D02*
X487680D01*
X508000D02*
X518160D01*
X259588Y166148D02*
X271780D01*
X281432D02*
X293116D01*
X302260D02*
X308864D01*
X318516D02*
X328676D01*
X338328D02*
X350012D01*
X358648D02*
X359156D01*
X367792D02*
X394716D01*
X404368D02*
X413004D01*
X431292D02*
X454152D01*
X455676D02*
X463804D01*
X465328D02*
X488188D01*
X508000D02*
X518160D01*
X259588Y166656D02*
X271780D01*
X281432D02*
X293116D01*
X302260D02*
X308864D01*
X318516D02*
X328676D01*
X338328D02*
X350520D01*
X367792D02*
X394716D01*
X404368D02*
X413004D01*
X431292D02*
X454660D01*
X456184D02*
X463804D01*
X464820D02*
X488188D01*
X508000D02*
X518160D01*
X259588Y167164D02*
X272288D01*
X281432D02*
X293116D01*
X302260D02*
X308864D01*
X318516D02*
X328676D01*
X338328D02*
X350520D01*
X367284D02*
X394716D01*
X404368D02*
X413004D01*
X431292D02*
X454660D01*
X456184D02*
X463296D01*
X464820D02*
X488188D01*
X508000D02*
X518160D01*
X259588Y167672D02*
X272288D01*
X281432D02*
X293116D01*
X302260D02*
X308864D01*
X318516D02*
X328676D01*
X338328D02*
X350520D01*
X367284D02*
X394716D01*
X404368D02*
X413004D01*
X430784D02*
X454660D01*
X456692D02*
X463296D01*
X464820D02*
X488696D01*
X508000D02*
X518160D01*
X259588Y168180D02*
X272288D01*
X281940D02*
X292608D01*
X302260D02*
X308864D01*
X319024D02*
X329184D01*
X338328D02*
X351028D01*
X367284D02*
X394716D01*
X404368D02*
X413004D01*
X430784D02*
X455168D01*
X456692D02*
X462788D01*
X464312D02*
X488696D01*
X508000D02*
X518160D01*
X259588Y168688D02*
X272288D01*
X281940D02*
X292608D01*
X302260D02*
X308864D01*
X319024D02*
X329184D01*
X338328D02*
X351028D01*
X366776D02*
X394716D01*
X404368D02*
X413004D01*
X430784D02*
X455168D01*
X457200D02*
X462788D01*
X464312D02*
X489204D01*
X508000D02*
X518160D01*
X259588Y169196D02*
X272288D01*
X282448D02*
X292100D01*
X302260D02*
X308864D01*
X319532D02*
X329184D01*
X338328D02*
X351028D01*
X366776D02*
X394716D01*
X404368D02*
X413004D01*
X430276D02*
X455168D01*
X457200D02*
X462280D01*
X464312D02*
X489204D01*
X508000D02*
X518160D01*
X259588Y169704D02*
X272288D01*
X282956D02*
X291592D01*
X301752D02*
X309372D01*
X320548D02*
X328676D01*
X338328D02*
X351536D01*
X366776D02*
X394716D01*
X404368D02*
X413004D01*
X430276D02*
X454660D01*
X457200D02*
X462280D01*
X464820D02*
X489712D01*
X508000D02*
X518160D01*
X259588Y170212D02*
X272796D01*
X283972D02*
X290576D01*
X301752D02*
X309372D01*
X322580D02*
X328676D01*
X338328D02*
X351536D01*
X366268D02*
X394716D01*
X404368D02*
X413004D01*
X429768D02*
X454152D01*
X457708D02*
X462280D01*
X465328D02*
X489712D01*
X508000D02*
X518160D01*
X259588Y170720D02*
X272796D01*
X285496D02*
X289052D01*
X301752D02*
X309372D01*
X338328D02*
X351536D01*
X366268D02*
X394716D01*
X404368D02*
X413004D01*
X429768D02*
X453136D01*
X457708D02*
X461772D01*
X466344D02*
X489712D01*
X508000D02*
X518160D01*
X259588Y171228D02*
X273304D01*
X301244D02*
X309880D01*
X338328D02*
X352044D01*
X366268D02*
X394716D01*
X404368D02*
X413004D01*
X429260D02*
X452628D01*
X457708D02*
X461772D01*
X466852D02*
X490220D01*
X508000D02*
X518160D01*
X259588Y171736D02*
X273304D01*
X301244D02*
X309880D01*
X338328D02*
X352044D01*
X365760D02*
X394716D01*
X404368D02*
X413004D01*
X429260D02*
X452120D01*
X458216D02*
X461264D01*
X467360D02*
X490220D01*
X508000D02*
X518160D01*
X259588Y172244D02*
X273812D01*
X300736D02*
X310388D01*
X338328D02*
X352044D01*
X365760D02*
X394716D01*
X404368D02*
X413004D01*
X428752D02*
X451612D01*
X458216D02*
X461264D01*
X467868D02*
X490728D01*
X508000D02*
X518160D01*
X259588Y172752D02*
X274320D01*
X300736D02*
X310896D01*
X338328D02*
X352552D01*
X365760D02*
X394716D01*
X404368D02*
X413004D01*
X426720D02*
X451104D01*
X458724D02*
X460756D01*
X468376D02*
X492760D01*
X259588Y173260D02*
X274320D01*
X300228D02*
X310896D01*
X338328D02*
X352552D01*
X365252D02*
X394716D01*
X404368D02*
X413004D01*
X424180D02*
X450596D01*
X458724D02*
X460756D01*
X468884D02*
X495300D01*
X508000D02*
X518160D01*
X259588Y173768D02*
X274828D01*
X299720D02*
X311404D01*
X338328D02*
X352552D01*
X365252D02*
X394716D01*
X404368D02*
X413004D01*
X421640D02*
X450088D01*
X458724D02*
X460756D01*
X469392D02*
X497840D01*
X508000D02*
X518160D01*
X259588Y174276D02*
X275336D01*
X299212D02*
X312420D01*
X338328D02*
X353060D01*
X365252D02*
X394716D01*
X404368D02*
X413004D01*
X419100D02*
X450088D01*
X459232D02*
X460248D01*
X469392D02*
X500380D01*
X508000D02*
X518160D01*
X259588Y174784D02*
X276352D01*
X298196D02*
X312928D01*
X338328D02*
X353060D01*
X364744D02*
X394716D01*
X404368D02*
X413004D01*
X418592D02*
X449580D01*
X459232D02*
X460248D01*
X469900D02*
X501396D01*
X508000D02*
X518160D01*
X259588Y175292D02*
X276860D01*
X297688D02*
X313944D01*
X338328D02*
X353060D01*
X364744D02*
X394716D01*
X404368D02*
X413004D01*
X418592D02*
X449580D01*
X469900D02*
X501396D01*
X508000D02*
X518160D01*
X259588Y175800D02*
X277368D01*
X297180D02*
X314960D01*
X338328D02*
X353568D01*
X364744D02*
X395224D01*
X404368D02*
X413004D01*
X418592D02*
X449072D01*
X470408D02*
X501396D01*
X508000D02*
X518160D01*
X259588Y176308D02*
X278384D01*
X296164D02*
X315976D01*
X338328D02*
X353568D01*
X364236D02*
X394716D01*
X404368D02*
X413004D01*
X418592D02*
X449072D01*
X470408D02*
X501396D01*
X508000D02*
X518160D01*
X259588Y176816D02*
X279400D01*
X294640D02*
X317500D01*
X338328D02*
X353568D01*
X364236D02*
X395224D01*
X404368D02*
X413004D01*
X418592D02*
X448564D01*
X470408D02*
X501396D01*
X508000D02*
X518160D01*
X259588Y177324D02*
X280924D01*
X293116D02*
X319532D01*
X338328D02*
X354076D01*
X364236D02*
X394716D01*
X404368D02*
X413004D01*
X418592D02*
X448564D01*
X470916D02*
X501396D01*
X508000D02*
X518160D01*
X259588Y177832D02*
X282956D01*
X291084D02*
X413004D01*
X418592D02*
X448564D01*
X470916D02*
X501396D01*
X508000D02*
X518160D01*
X259588Y178340D02*
X413004D01*
X418592D02*
X448564D01*
X470916D02*
X501396D01*
X508000D02*
X518160D01*
X259588Y178848D02*
X413004D01*
X418592D02*
X448564D01*
X470916D02*
X501396D01*
X508000D02*
X518160D01*
X259588Y179356D02*
X413004D01*
X418592D02*
X448564D01*
X471424D02*
X501396D01*
X508000D02*
X518160D01*
X259588Y179864D02*
X413004D01*
X418592D02*
X448056D01*
X471424D02*
X501396D01*
X508000D02*
X518160D01*
X259588Y180372D02*
X413004D01*
X418592D02*
X448056D01*
X471424D02*
X501396D01*
X508000D02*
X518160D01*
X259588Y180880D02*
X413004D01*
X418592D02*
X448056D01*
X471424D02*
X501396D01*
X508000D02*
X518160D01*
X259588Y181388D02*
X413004D01*
X418592D02*
X448564D01*
X470916D02*
X501396D01*
X508000D02*
X518160D01*
X259588Y181896D02*
X413004D01*
X418592D02*
X448564D01*
X470916D02*
X501396D01*
X508000D02*
X518160D01*
X259588Y182404D02*
X413004D01*
X418592D02*
X448564D01*
X470916D02*
X501396D01*
X508000D02*
X518160D01*
X259588Y182912D02*
X413004D01*
X418592D02*
X448564D01*
X470916D02*
X501396D01*
X508000D02*
X518160D01*
X259588Y183420D02*
X389128D01*
X396748D02*
X413004D01*
X418592D02*
X448564D01*
X470916D02*
X501396D01*
X508000D02*
X518160D01*
X259588Y183928D02*
X272796D01*
X276352D02*
X298704D01*
X302260D02*
X310388D01*
X313944D02*
X317500D01*
X321056D02*
X346964D01*
X350520D02*
X370840D01*
X374396D02*
X387096D01*
X398780D02*
X413004D01*
X418592D02*
X449072D01*
X470408D02*
X501396D01*
X508000D02*
X518160D01*
X259588Y184436D02*
X272796D01*
X276860D02*
X298704D01*
X302260D02*
X310388D01*
X313436D02*
X317500D01*
X321056D02*
X346964D01*
X350520D02*
X370840D01*
X374396D02*
X385572D01*
X400304D02*
X413004D01*
X418592D02*
X449072D01*
X470408D02*
X501396D01*
X508000D02*
X518160D01*
X259588Y184944D02*
X272796D01*
X276860D02*
X298704D01*
X302260D02*
X310388D01*
X313944D02*
X318008D01*
X321564D02*
X346964D01*
X350520D02*
X370840D01*
X374396D02*
X384556D01*
X401828D02*
X413004D01*
X418592D02*
X449580D01*
X469900D02*
X501396D01*
X508000D02*
X518160D01*
X259588Y185452D02*
X272796D01*
X277368D02*
X298704D01*
X302260D02*
X310388D01*
X313944D02*
X318008D01*
X321564D02*
X346456D01*
X350012D02*
X370840D01*
X374396D02*
X383540D01*
X402336D02*
X413004D01*
X418592D02*
X449580D01*
X469900D02*
X501396D01*
X508000D02*
X518160D01*
X259588Y185960D02*
X272796D01*
X277876D02*
X298704D01*
X302260D02*
X310388D01*
X313436D02*
X318516D01*
X322072D02*
X346456D01*
X350012D02*
X370840D01*
X374396D02*
X383032D01*
X390652D02*
X395224D01*
X403352D02*
X413004D01*
X418592D02*
X450088D01*
X469392D02*
X500888D01*
X508000D02*
X518160D01*
X259588Y186468D02*
X272796D01*
X277876D02*
X298704D01*
X302260D02*
X310388D01*
X313944D02*
X318516D01*
X322072D02*
X345948D01*
X349504D02*
X370840D01*
X374396D02*
X382524D01*
X388112D02*
X397764D01*
X403860D02*
X413004D01*
X420624D02*
X450088D01*
X469392D02*
X498856D01*
X508000D02*
X518160D01*
X259588Y186976D02*
X272796D01*
X278384D02*
X298704D01*
X302260D02*
X310388D01*
X313944D02*
X318516D01*
X322072D02*
X345948D01*
X349504D02*
X370840D01*
X374396D02*
X381508D01*
X387096D02*
X399288D01*
X404876D02*
X413004D01*
X423164D02*
X450596D01*
X468884D02*
X496316D01*
X508000D02*
X518160D01*
X259588Y187484D02*
X272796D01*
X278892D02*
X298704D01*
X302260D02*
X310388D01*
X313944D02*
X319024D01*
X322580D02*
X345948D01*
X349504D02*
X370840D01*
X374396D02*
X381000D01*
X386080D02*
X400304D01*
X405384D02*
X413004D01*
X426212D02*
X451104D01*
X468376D02*
X493268D01*
X508000D02*
X518160D01*
X259588Y187992D02*
X272796D01*
X278892D02*
X298704D01*
X302260D02*
X310388D01*
X313944D02*
X319024D01*
X322580D02*
X345440D01*
X348996D02*
X370840D01*
X374396D02*
X381000D01*
X385572D02*
X400812D01*
X405384D02*
X413004D01*
X428752D02*
X451612D01*
X467868D02*
X490728D01*
X508000D02*
X518160D01*
X259588Y188500D02*
X272796D01*
X279400D02*
X298704D01*
X302260D02*
X310388D01*
X313944D02*
X319024D01*
X322580D02*
X345440D01*
X348996D02*
X370840D01*
X374396D02*
X380492D01*
X384556D02*
X401828D01*
X405892D02*
X413004D01*
X429260D02*
X452120D01*
X467360D02*
X490220D01*
X508000D02*
X518160D01*
X259588Y189008D02*
X272796D01*
X279908D02*
X298704D01*
X302260D02*
X310388D01*
X313944D02*
X319532D01*
X323088D02*
X345440D01*
X348488D02*
X370840D01*
X374396D02*
X379984D01*
X384048D02*
X402336D01*
X406400D02*
X413004D01*
X429768D02*
X452628D01*
X466852D02*
X489712D01*
X508000D02*
X518160D01*
X259588Y189516D02*
X272796D01*
X279908D02*
X298704D01*
X302260D02*
X310388D01*
X313944D02*
X319532D01*
X323088D02*
X344932D01*
X348488D02*
X370840D01*
X374396D02*
X379984D01*
X384048D02*
X402844D01*
X406908D02*
X413004D01*
X429768D02*
X453136D01*
X466344D02*
X489712D01*
X508000D02*
X518160D01*
X259588Y190024D02*
X272796D01*
X276352D02*
X276860D01*
X280416D02*
X298704D01*
X302260D02*
X310388D01*
X313944D02*
X320040D01*
X323088D02*
X344932D01*
X348488D02*
X370840D01*
X374396D02*
X379984D01*
X383540D02*
X403352D01*
X406908D02*
X413004D01*
X430276D02*
X454152D01*
X465836D02*
X489204D01*
X508000D02*
X518160D01*
X259588Y190532D02*
X272796D01*
X276352D02*
X276860D01*
X280924D02*
X298704D01*
X302260D02*
X310388D01*
X313944D02*
X320040D01*
X323596D02*
X344424D01*
X347980D02*
X370840D01*
X374396D02*
X379476D01*
X383032D02*
X403352D01*
X406908D02*
X413004D01*
X430276D02*
X454660D01*
X464820D02*
X489204D01*
X508000D02*
X518160D01*
X259588Y191040D02*
X272796D01*
X276352D02*
X277368D01*
X280924D02*
X298704D01*
X302260D02*
X310388D01*
X313944D02*
X320040D01*
X323596D02*
X344424D01*
X347980D02*
X370840D01*
X374396D02*
X379476D01*
X383032D02*
X403860D01*
X407416D02*
X413004D01*
X430784D02*
X456184D01*
X463296D02*
X489204D01*
X508000D02*
X518160D01*
X259588Y191548D02*
X272796D01*
X276352D02*
X277876D01*
X281432D02*
X298704D01*
X302260D02*
X310388D01*
X313944D02*
X320548D01*
X324104D02*
X344424D01*
X347980D02*
X370840D01*
X374396D02*
X379476D01*
X383032D02*
X403860D01*
X407416D02*
X413004D01*
X430784D02*
X488696D01*
X508000D02*
X518160D01*
X259588Y192056D02*
X272796D01*
X276352D02*
X277876D01*
X281940D02*
X298704D01*
X302260D02*
X310388D01*
X313944D02*
X320548D01*
X324104D02*
X343916D01*
X347472D02*
X370840D01*
X374396D02*
X378968D01*
X382524D02*
X404368D01*
X407416D02*
X413004D01*
X430784D02*
X488696D01*
X508000D02*
X518160D01*
X259588Y192564D02*
X272796D01*
X276352D02*
X278384D01*
X281940D02*
X298704D01*
X302260D02*
X310388D01*
X313944D02*
X320548D01*
X324104D02*
X343916D01*
X347472D02*
X370840D01*
X374396D02*
X378968D01*
X382524D02*
X404368D01*
X407924D02*
X413004D01*
X431292D02*
X488188D01*
X508000D02*
X518160D01*
X259588Y193072D02*
X272796D01*
X276352D02*
X278892D01*
X282448D02*
X298704D01*
X302260D02*
X310388D01*
X313944D02*
X321056D01*
X324612D02*
X343916D01*
X346964D02*
X370840D01*
X374396D02*
X378968D01*
X382524D02*
X404368D01*
X407924D02*
X413004D01*
X431292D02*
X488188D01*
X508000D02*
X518160D01*
X259588Y193580D02*
X272796D01*
X276352D02*
X278892D01*
X282956D02*
X298704D01*
X302260D02*
X310388D01*
X313944D02*
X321056D01*
X324612D02*
X343408D01*
X346964D02*
X370840D01*
X374396D02*
X378968D01*
X382524D02*
X404368D01*
X407924D02*
X413004D01*
X431800D02*
X487680D01*
X508000D02*
X518160D01*
X259588Y194088D02*
X272796D01*
X276352D02*
X279400D01*
X282956D02*
X298704D01*
X302260D02*
X310388D01*
X313944D02*
X321564D01*
X324612D02*
X343408D01*
X346964D02*
X370840D01*
X374396D02*
X378968D01*
X382524D02*
X404368D01*
X407924D02*
X413004D01*
X431800D02*
X487680D01*
X508000D02*
X518160D01*
X259588Y194596D02*
X272796D01*
X276352D02*
X279908D01*
X283464D02*
X298704D01*
X302260D02*
X310388D01*
X313944D02*
X321564D01*
X325120D02*
X343408D01*
X346456D02*
X370840D01*
X374396D02*
X378968D01*
X382524D02*
X404368D01*
X407924D02*
X413004D01*
X431800D02*
X487172D01*
X508000D02*
X518160D01*
X259588Y195104D02*
X272796D01*
X276352D02*
X279908D01*
X283972D02*
X298704D01*
X302260D02*
X310388D01*
X313944D02*
X321564D01*
X346456D02*
X370840D01*
X374396D02*
X379476D01*
X383032D02*
X404876D01*
X405384D02*
X405892D01*
X407416D02*
X413004D01*
X432308D02*
X487172D01*
X508000D02*
X518160D01*
X259588Y195612D02*
X272796D01*
X276352D02*
X280416D01*
X283972D02*
X298704D01*
X302260D02*
X310388D01*
X313944D02*
X322072D01*
X345948D02*
X370840D01*
X374396D02*
X379476D01*
X383032D02*
X413004D01*
X432308D02*
X487172D01*
X508000D02*
X518160D01*
X259588Y196120D02*
X272796D01*
X276352D02*
X280924D01*
X284480D02*
X298704D01*
X302260D02*
X310388D01*
X313944D02*
X322072D01*
X345948D02*
X370840D01*
X374396D02*
X379476D01*
X383032D02*
X413004D01*
X432308D02*
X486664D01*
X508000D02*
X518160D01*
X259588Y196628D02*
X272796D01*
X276352D02*
X280924D01*
X284988D02*
X298704D01*
X302260D02*
X310388D01*
X313944D02*
X322072D01*
X345948D02*
X370840D01*
X374396D02*
X379476D01*
X383540D02*
X413004D01*
X432308D02*
X487172D01*
X508000D02*
X518160D01*
X259588Y197136D02*
X272796D01*
X276352D02*
X281432D01*
X284988D02*
X298704D01*
X302260D02*
X310388D01*
X313944D02*
X322580D01*
X345440D02*
X370840D01*
X374396D02*
X379984D01*
X383540D02*
X413004D01*
X431800D02*
X487680D01*
X508000D02*
X518160D01*
X259588Y197644D02*
X272796D01*
X276352D02*
X281940D01*
X285496D02*
X298704D01*
X302260D02*
X310388D01*
X313944D02*
X322580D01*
X326136D02*
X341884D01*
X345440D02*
X370840D01*
X374396D02*
X379984D01*
X384048D02*
X413004D01*
X431800D02*
X487680D01*
X508000D02*
X518160D01*
X259588Y198152D02*
X272796D01*
X276352D02*
X281940D01*
X286004D02*
X298704D01*
X302260D02*
X310388D01*
X313944D02*
X323088D01*
X326644D02*
X341884D01*
X345440D02*
X370840D01*
X374396D02*
X380492D01*
X384556D02*
X413004D01*
X431292D02*
X488188D01*
X508000D02*
X518160D01*
X259588Y198660D02*
X272796D01*
X276352D02*
X282448D01*
X286004D02*
X298704D01*
X302260D02*
X310388D01*
X313944D02*
X323088D01*
X326644D02*
X341376D01*
X344932D02*
X370840D01*
X374396D02*
X380492D01*
X385064D02*
X413004D01*
X430784D02*
X488696D01*
X508000D02*
X518160D01*
X259588Y199168D02*
X272796D01*
X276352D02*
X282956D01*
X286512D02*
X298704D01*
X302260D02*
X310388D01*
X313944D02*
X323088D01*
X326644D02*
X341376D01*
X344932D02*
X370840D01*
X374396D02*
X381000D01*
X385572D02*
X413004D01*
X430784D02*
X488696D01*
X508000D02*
X518160D01*
X259588Y199676D02*
X272796D01*
X276352D02*
X282956D01*
X287020D02*
X298704D01*
X302260D02*
X310388D01*
X313944D02*
X323596D01*
X327152D02*
X341376D01*
X344424D02*
X370840D01*
X374396D02*
X381508D01*
X386588D02*
X413004D01*
X430276D02*
X489204D01*
X508000D02*
X518160D01*
X259588Y200184D02*
X272796D01*
X276352D02*
X283464D01*
X287020D02*
X298704D01*
X302260D02*
X310388D01*
X313944D02*
X323596D01*
X327152D02*
X340868D01*
X344424D02*
X356616D01*
X374396D02*
X382016D01*
X387604D02*
X413004D01*
X429768D02*
X489712D01*
X508000D02*
X518160D01*
X259588Y200692D02*
X272796D01*
X276352D02*
X283972D01*
X287528D02*
X298704D01*
X302260D02*
X310388D01*
X313944D02*
X323596D01*
X327152D02*
X340868D01*
X344424D02*
X355092D01*
X374396D02*
X382524D01*
X388620D02*
X413004D01*
X429768D02*
X489712D01*
X508000D02*
X518160D01*
X259588Y201200D02*
X272796D01*
X276352D02*
X283972D01*
X288036D02*
X298704D01*
X302260D02*
X310388D01*
X313944D02*
X324104D01*
X327660D02*
X340360D01*
X343916D02*
X353568D01*
X374396D02*
X383540D01*
X390144D02*
X413004D01*
X429260D02*
X490220D01*
X508000D02*
X518160D01*
X259588Y201708D02*
X272796D01*
X276352D02*
X284480D01*
X288036D02*
X298704D01*
X302260D02*
X310388D01*
X313944D02*
X324104D01*
X327660D02*
X340360D01*
X343916D02*
X352552D01*
X374396D02*
X384048D01*
X391668D02*
X413004D01*
X428752D02*
X490728D01*
X508000D02*
X518160D01*
X259588Y202216D02*
X272796D01*
X276352D02*
X284988D01*
X288544D02*
X298704D01*
X302260D02*
X310388D01*
X313944D02*
X324612D01*
X327660D02*
X340360D01*
X343916D02*
X352044D01*
X374396D02*
X385064D01*
X393192D02*
X413004D01*
X428752D02*
X491236D01*
X508000D02*
X518160D01*
X259588Y202724D02*
X272796D01*
X276352D02*
X284988D01*
X289052D02*
X298704D01*
X302260D02*
X310388D01*
X313944D02*
X324612D01*
X328168D02*
X339852D01*
X343408D02*
X351028D01*
X358648D02*
X370840D01*
X374396D02*
X386080D01*
X395224D02*
X413004D01*
X428244D02*
X491236D01*
X508000D02*
X518160D01*
X259588Y203232D02*
X272796D01*
X276352D02*
X285496D01*
X289052D02*
X298704D01*
X302260D02*
X310388D01*
X313944D02*
X324612D01*
X328168D02*
X339852D01*
X343408D02*
X350520D01*
X356108D02*
X370840D01*
X374396D02*
X387096D01*
X396748D02*
X413004D01*
X427736D02*
X491744D01*
X508000D02*
X518160D01*
X259588Y203740D02*
X272796D01*
X276352D02*
X286004D01*
X289560D02*
X298704D01*
X302260D02*
X310388D01*
X313944D02*
X325120D01*
X328676D02*
X339852D01*
X342900D02*
X350012D01*
X355092D02*
X370840D01*
X374396D02*
X388620D01*
X398272D02*
X413004D01*
X427228D02*
X492252D01*
X508000D02*
X518160D01*
X259588Y204248D02*
X272796D01*
X276352D02*
X286004D01*
X290068D02*
X298704D01*
X302260D02*
X310388D01*
X313944D02*
X325120D01*
X328676D02*
X339344D01*
X342900D02*
X350012D01*
X354076D02*
X370840D01*
X374396D02*
X389636D01*
X399288D02*
X413004D01*
X427228D02*
X492252D01*
X508000D02*
X518160D01*
X259588Y204756D02*
X272796D01*
X276352D02*
X286512D01*
X290068D02*
X298704D01*
X302260D02*
X310388D01*
X313944D02*
X325628D01*
X328676D02*
X339344D01*
X342900D02*
X349504D01*
X353568D02*
X370840D01*
X374396D02*
X391668D01*
X400812D02*
X413004D01*
X426720D02*
X492760D01*
X508000D02*
X518160D01*
X259588Y205264D02*
X272796D01*
X276352D02*
X287020D01*
X290576D02*
X298704D01*
X302260D02*
X310388D01*
X313944D02*
X325628D01*
X329184D02*
X339344D01*
X342392D02*
X348996D01*
X353060D02*
X370840D01*
X374396D02*
X393700D01*
X401320D02*
X413004D01*
X426212D02*
X492760D01*
X508000D02*
X518160D01*
X259588Y205772D02*
X272796D01*
X276352D02*
X287020D01*
X291084D02*
X298704D01*
X302260D02*
X310388D01*
X313944D02*
X325628D01*
X329184D02*
X338836D01*
X342392D02*
X348488D01*
X352552D02*
X370840D01*
X374396D02*
X395224D01*
X402336D02*
X413004D01*
X426720D02*
X492760D01*
X508000D02*
X518160D01*
X259588Y206280D02*
X272796D01*
X276352D02*
X287528D01*
X291084D02*
X298704D01*
X302260D02*
X310388D01*
X313944D02*
X326136D01*
X329184D02*
X338836D01*
X342392D02*
X348488D01*
X352552D02*
X370840D01*
X374396D02*
X396748D01*
X403352D02*
X413004D01*
X427228D02*
X492252D01*
X508000D02*
X518160D01*
X259588Y206788D02*
X272796D01*
X276352D02*
X287528D01*
X291592D02*
X298704D01*
X302260D02*
X310388D01*
X313944D02*
X326136D01*
X329692D02*
X338328D01*
X341884D02*
X348488D01*
X352044D02*
X370840D01*
X374396D02*
X397764D01*
X403860D02*
X413004D01*
X427736D02*
X491744D01*
X508000D02*
X518160D01*
X259588Y207296D02*
X272796D01*
X276352D02*
X288036D01*
X292100D02*
X298704D01*
X302260D02*
X310388D01*
X313944D02*
X326136D01*
X329692D02*
X338328D01*
X341884D02*
X347980D01*
X351536D02*
X370840D01*
X374396D02*
X398780D01*
X404368D02*
X413004D01*
X428244D02*
X443992D01*
X444500D02*
X491236D01*
X508000D02*
X518160D01*
X259588Y207804D02*
X272796D01*
X276352D02*
X288544D01*
X292100D02*
X298704D01*
X302260D02*
X310388D01*
X313944D02*
X326644D01*
X329692D02*
X338328D01*
X341376D02*
X347980D01*
X351536D02*
X370840D01*
X374396D02*
X399796D01*
X404876D02*
X413004D01*
X428752D02*
X442976D01*
X445516D02*
X473964D01*
X476504D02*
X490728D01*
X508000D02*
X518160D01*
X259588Y208312D02*
X272796D01*
X276352D02*
X288544D01*
X292608D02*
X298704D01*
X302260D02*
X310388D01*
X313944D02*
X326644D01*
X330200D02*
X337820D01*
X341376D02*
X347980D01*
X351536D02*
X370840D01*
X374396D02*
X400304D01*
X405384D02*
X413004D01*
X429260D02*
X442468D01*
X447040D02*
X472948D01*
X477012D02*
X490220D01*
X508000D02*
X518160D01*
X259588Y208820D02*
X272796D01*
X276352D02*
X289052D01*
X293116D02*
X298704D01*
X302260D02*
X310388D01*
X313944D02*
X327152D01*
X330200D02*
X337820D01*
X341376D02*
X347472D01*
X351028D02*
X370840D01*
X374396D02*
X401320D01*
X405384D02*
X413004D01*
X429768D02*
X441452D01*
X448056D02*
X471424D01*
X478028D02*
X489712D01*
X508000D02*
X518160D01*
X259588Y209328D02*
X272796D01*
X276352D02*
X289560D01*
X293116D02*
X298704D01*
X302260D02*
X310388D01*
X313944D02*
X327152D01*
X330708D02*
X337820D01*
X340868D02*
X347472D01*
X351028D02*
X370840D01*
X374396D02*
X401828D01*
X405892D02*
X413004D01*
X430276D02*
X440944D01*
X449072D02*
X470408D01*
X478536D02*
X489712D01*
X508000D02*
X518160D01*
X259588Y209836D02*
X272796D01*
X276352D02*
X290068D01*
X293624D02*
X298704D01*
X302260D02*
X310388D01*
X313944D02*
X327152D01*
X330708D02*
X337312D01*
X340868D02*
X347472D01*
X351028D02*
X370840D01*
X374396D02*
X402336D01*
X405892D02*
X413004D01*
X430784D02*
X439928D01*
X450596D02*
X468884D01*
X479552D02*
X488696D01*
X508000D02*
X518160D01*
X259588Y210344D02*
X272796D01*
X276352D02*
X290068D01*
X294132D02*
X298704D01*
X302260D02*
X310388D01*
X313944D02*
X327660D01*
X330708D02*
X337312D01*
X340360D02*
X347472D01*
X351028D02*
X370840D01*
X374396D02*
X402336D01*
X406400D02*
X413004D01*
X431292D02*
X439420D01*
X451612D02*
X467868D01*
X480060D02*
X488188D01*
X508000D02*
X518160D01*
X259588Y210852D02*
X272796D01*
X276352D02*
X290576D01*
X294132D02*
X298704D01*
X302260D02*
X310388D01*
X313944D02*
X327660D01*
X331216D02*
X336804D01*
X340360D02*
X347472D01*
X351028D02*
X370840D01*
X374396D02*
X402844D01*
X406400D02*
X413004D01*
X431800D02*
X438404D01*
X451612D02*
X467360D01*
X481076D02*
X487680D01*
X508000D02*
X518160D01*
X259588Y211360D02*
X272796D01*
X276352D02*
X290576D01*
X294640D02*
X298704D01*
X302260D02*
X310388D01*
X313944D02*
X327660D01*
X331216D02*
X336804D01*
X340360D02*
X347472D01*
X351028D02*
X370840D01*
X374396D02*
X402844D01*
X406400D02*
X413004D01*
X432308D02*
X437896D01*
X452120D02*
X467360D01*
X481584D02*
X487172D01*
X508000D02*
X518160D01*
X259588Y211868D02*
X272796D01*
X276352D02*
X291084D01*
X295148D02*
X298704D01*
X302260D02*
X310388D01*
X313944D02*
X328168D01*
X331216D02*
X336804D01*
X339852D02*
X347472D01*
X351028D02*
X370840D01*
X374396D02*
X379984D01*
X381000D02*
X381508D01*
X382524D02*
X402844D01*
X406400D02*
X413004D01*
X432816D02*
X437388D01*
X452120D02*
X467360D01*
X482600D02*
X486664D01*
X508000D02*
X518160D01*
X259588Y212376D02*
X272796D01*
X276352D02*
X291592D01*
X295148D02*
X298704D01*
X302260D02*
X310388D01*
X313944D02*
X328168D01*
X331724D02*
X336296D01*
X339852D02*
X347472D01*
X351028D02*
X370840D01*
X374396D02*
X379476D01*
X383032D02*
X403352D01*
X406908D02*
X413004D01*
X433324D02*
X436372D01*
X452120D02*
X467360D01*
X483108D02*
X486664D01*
X508000D02*
X518160D01*
X259588Y212884D02*
X272796D01*
X276352D02*
X292100D01*
X295656D02*
X298704D01*
X302260D02*
X310388D01*
X313944D02*
X328676D01*
X331724D02*
X336296D01*
X339852D02*
X347472D01*
X351028D02*
X370840D01*
X374396D02*
X379476D01*
X383032D02*
X403352D01*
X406908D02*
X413004D01*
X433832D02*
X435356D01*
X452120D02*
X467360D01*
X484124D02*
X485648D01*
X508000D02*
X518160D01*
X259588Y213392D02*
X272796D01*
X276352D02*
X292100D01*
X296164D02*
X298704D01*
X302260D02*
X310388D01*
X313944D02*
X328676D01*
X332232D02*
X336296D01*
X339344D02*
X347472D01*
X351028D02*
X370840D01*
X374396D02*
X379476D01*
X383032D02*
X403352D01*
X406908D02*
X413004D01*
X434340D02*
X434848D01*
X452628D02*
X467360D01*
X484632D02*
X485140D01*
X508000D02*
X518160D01*
X259588Y213900D02*
X272796D01*
X276352D02*
X292608D01*
X296164D02*
X298704D01*
X302260D02*
X310388D01*
X313944D02*
X328676D01*
X332232D02*
X335788D01*
X339344D02*
X347472D01*
X351028D02*
X370840D01*
X374396D02*
X379476D01*
X383032D02*
X403352D01*
X406908D02*
X413004D01*
X452628D02*
X466852D01*
X508000D02*
X518160D01*
X259588Y214408D02*
X272796D01*
X276352D02*
X292608D01*
X296672D02*
X298704D01*
X302260D02*
X310388D01*
X313944D02*
X329184D01*
X332232D02*
X335788D01*
X338836D02*
X347472D01*
X351028D02*
X370840D01*
X374396D02*
X379984D01*
X383032D02*
X403352D01*
X406908D02*
X413004D01*
X452628D02*
X466852D01*
X508000D02*
X518160D01*
X259588Y214916D02*
X272796D01*
X276352D02*
X293116D01*
X296672D02*
X298704D01*
X302260D02*
X310388D01*
X313944D02*
X329184D01*
X332740D02*
X335788D01*
X338836D02*
X347980D01*
X351536D02*
X370840D01*
X374396D02*
X379984D01*
X383540D02*
X403352D01*
X406908D02*
X413004D01*
X452628D02*
X466852D01*
X508000D02*
X518160D01*
X259588Y215424D02*
X272796D01*
X276352D02*
X293624D01*
X297180D02*
X298704D01*
X302260D02*
X310388D01*
X313944D02*
X329184D01*
X332740D02*
X335280D01*
X338836D02*
X347980D01*
X351536D02*
X370840D01*
X374396D02*
X379984D01*
X383540D02*
X402844D01*
X406400D02*
X413004D01*
X452628D02*
X466852D01*
X508000D02*
X518160D01*
X259588Y215932D02*
X272796D01*
X276352D02*
X294132D01*
X297688D02*
X298704D01*
X302260D02*
X310388D01*
X313944D02*
X329692D01*
X332740D02*
X335280D01*
X338328D02*
X347980D01*
X352044D02*
X370840D01*
X374396D02*
X379984D01*
X383540D02*
X402844D01*
X406400D02*
X413004D01*
X453136D02*
X466852D01*
X508000D02*
X518160D01*
X259588Y216440D02*
X272796D01*
X276352D02*
X294132D01*
X297688D02*
X298704D01*
X302260D02*
X310388D01*
X313944D02*
X329692D01*
X333248D02*
X334772D01*
X338328D02*
X348488D01*
X352044D02*
X370840D01*
X374396D02*
X380492D01*
X384048D02*
X402844D01*
X406400D02*
X413004D01*
X453136D02*
X466852D01*
X508000D02*
X518160D01*
X259588Y216948D02*
X272796D01*
X276352D02*
X294640D01*
X298196D02*
X298704D01*
X302260D02*
X310388D01*
X313944D02*
X330200D01*
X333248D02*
X334772D01*
X338328D02*
X348488D01*
X352552D02*
X370840D01*
X374396D02*
X380492D01*
X384048D02*
X402336D01*
X405892D02*
X413004D01*
X453136D02*
X466344D01*
X508000D02*
X518160D01*
X259588Y217456D02*
X272796D01*
X276352D02*
X294640D01*
X302260D02*
X310388D01*
X313944D02*
X330200D01*
X333248D02*
X334772D01*
X337820D02*
X348488D01*
X352552D02*
X370840D01*
X374396D02*
X381000D01*
X384556D02*
X402336D01*
X405892D02*
X413004D01*
X453136D02*
X466344D01*
X508000D02*
X518160D01*
X259588Y217964D02*
X272796D01*
X276352D02*
X295148D01*
X302260D02*
X310388D01*
X313944D02*
X330200D01*
X333756D02*
X334264D01*
X337820D02*
X348996D01*
X353060D02*
X370840D01*
X374396D02*
X381000D01*
X385064D02*
X401828D01*
X405892D02*
X413004D01*
X453136D02*
X466344D01*
X508000D02*
X518160D01*
X259588Y218472D02*
X272796D01*
X276352D02*
X295656D01*
X302260D02*
X310388D01*
X313944D02*
X330708D01*
X333756D02*
X334264D01*
X337312D02*
X349504D01*
X353568D02*
X370840D01*
X374396D02*
X381508D01*
X385572D02*
X401320D01*
X405384D02*
X413004D01*
X453136D02*
X466344D01*
X508000D02*
X518160D01*
X259588Y218980D02*
X272796D01*
X276352D02*
X295656D01*
X302260D02*
X310388D01*
X313944D02*
X330708D01*
X337312D02*
X349504D01*
X354076D02*
X370840D01*
X374396D02*
X382016D01*
X386080D02*
X400812D01*
X404876D02*
X413004D01*
X453644D02*
X466344D01*
X508000D02*
X518160D01*
X259588Y219488D02*
X272796D01*
X276352D02*
X296164D01*
X302260D02*
X310388D01*
X313944D02*
X330708D01*
X337312D02*
X350012D01*
X355092D02*
X370840D01*
X374396D02*
X382524D01*
X387096D02*
X399796D01*
X404368D02*
X413004D01*
X453644D02*
X465836D01*
X508000D02*
X518160D01*
X259588Y219996D02*
X272796D01*
X276352D02*
X296672D01*
X302260D02*
X310388D01*
X313944D02*
X331216D01*
X336804D02*
X350520D01*
X356108D02*
X370840D01*
X374396D02*
X383032D01*
X387604D02*
X399288D01*
X404368D02*
X413004D01*
X453644D02*
X465836D01*
X508000D02*
X518160D01*
X259588Y220504D02*
X272796D01*
X276352D02*
X296672D01*
X302260D02*
X310388D01*
X313944D02*
X331216D01*
X336804D02*
X351028D01*
X358648D02*
X370840D01*
X374396D02*
X383540D01*
X389128D02*
X397764D01*
X403352D02*
X413512D01*
X453644D02*
X465836D01*
X507492D02*
X518160D01*
X259588Y221012D02*
X272796D01*
X276352D02*
X297180D01*
X302260D02*
X310388D01*
X313436D02*
X331724D01*
X336296D02*
X352044D01*
X374396D02*
X384048D01*
X391160D02*
X395732D01*
X402844D02*
X413512D01*
X453644D02*
X465836D01*
X507492D02*
X518160D01*
X259588Y221520D02*
X272796D01*
X276352D02*
X297688D01*
X302260D02*
X310388D01*
X313944D02*
X331724D01*
X336296D02*
X352552D01*
X374396D02*
X384556D01*
X402336D02*
X413512D01*
X454152D02*
X465328D01*
X507492D02*
X518160D01*
X259588Y222028D02*
X272796D01*
X276352D02*
X297688D01*
X302260D02*
X310388D01*
X313944D02*
X331724D01*
X336296D02*
X353568D01*
X374396D02*
X385572D01*
X401320D02*
X413512D01*
X454660D02*
X464820D01*
X507492D02*
X518160D01*
X259588Y222536D02*
X272796D01*
X276352D02*
X298196D01*
X302260D02*
X310388D01*
X313436D02*
X332232D01*
X335788D02*
X355092D01*
X374396D02*
X386588D01*
X400304D02*
X414020D01*
X506984D02*
X518160D01*
X259588Y223044D02*
X272796D01*
X276352D02*
X298704D01*
X302260D02*
X310388D01*
X313944D02*
X332232D01*
X335788D02*
X356616D01*
X374396D02*
X387604D01*
X398780D02*
X414020D01*
X506984D02*
X518160D01*
X259588Y223552D02*
X389636D01*
X397256D02*
X414528D01*
X506476D02*
X518160D01*
X259588Y224060D02*
X415036D01*
X505968D02*
X518160D01*
X259588Y224568D02*
X415036D01*
X505968D02*
X518160D01*
X259588Y225076D02*
X415544D01*
X505460D02*
X518160D01*
X259588Y225584D02*
X416052D01*
X504952D02*
X518160D01*
X259588Y226092D02*
X416560D01*
X504444D02*
X518160D01*
X259588Y226600D02*
X417576D01*
X503428D02*
X518160D01*
X259588Y227108D02*
X418592D01*
X502412D02*
X518160D01*
X259588Y227616D02*
X419100D01*
X501904D02*
X518160D01*
X259588Y228124D02*
X421132D01*
X499872D02*
X518160D01*
X259588Y228632D02*
X518160D01*
X259588Y229140D02*
X518160D01*
X259588Y229648D02*
X518160D01*
X259588Y230156D02*
X518160D01*
X259588Y230664D02*
X518160D01*
X259588Y231172D02*
X518160D01*
X259588Y231680D02*
X518160D01*
X260096Y232188D02*
X517652D01*
X260096Y232696D02*
X517652D01*
X260604Y233204D02*
X517144D01*
X261112Y233712D02*
X516636D01*
X261112Y234220D02*
X516636D01*
X262128Y234728D02*
X515620D01*
X262636Y235236D02*
X515112D01*
X263652Y235744D02*
X514096D01*
M02*
