%FSLAX44Y44*%
%MOMM*%
G71*
G01*
G75*
G04 Layer_Physical_Order=2*
G04 Layer_Color=16711680*
%ADD10R,1.3000X2.1000*%
%ADD11O,2.0000X1.0000*%
%ADD12O,4.0000X1.0000*%
%ADD13R,0.6500X0.9000*%
%ADD14R,2.0000X2.0000*%
%ADD15O,1.0000X3.0000*%
%ADD16R,0.9000X0.6500*%
%ADD17R,1.3000X0.9000*%
%ADD18O,1.0000X2.0000*%
%ADD19R,0.9000X1.3000*%
%ADD20R,1.9000X4.0000*%
%ADD21R,1.3000X4.5000*%
%ADD22R,0.6500X1.1000*%
%ADD23R,1.0000X1.0000*%
%ADD24R,0.6000X1.5000*%
%ADD25R,1.4000X0.6000*%
%ADD26P,2.0566X8X112.5*%
%ADD27R,1.3970X2.5400*%
%ADD28R,2.5400X1.1430*%
%ADD29C,0.3000*%
%ADD30C,0.6000*%
%ADD31C,0.4000*%
%ADD32C,0.5000*%
%ADD33C,0.2000*%
%ADD34C,3.0000*%
%ADD35R,1.5000X1.5000*%
%ADD36C,1.5000*%
%ADD37C,3.5000*%
%ADD38C,0.8000*%
%ADD39C,0.7000*%
%ADD40C,1.0000*%
G36*
X782000Y269D02*
X781731Y0D01*
X1330D01*
Y401410D01*
X308000D01*
Y326000D01*
X309000Y325000D01*
X397957D01*
X398443Y323827D01*
X307716Y233100D01*
X280592D01*
X279994Y233994D01*
X278162Y235219D01*
X276000Y235648D01*
X273838Y235219D01*
X272006Y233994D01*
X270781Y232162D01*
X270352Y230000D01*
X270781Y227838D01*
X272006Y226006D01*
X273838Y224781D01*
X276000Y224352D01*
X278162Y224781D01*
X279994Y226006D01*
X280592Y226900D01*
X308858D01*
X309132Y226239D01*
X309252Y225635D01*
X296716Y213100D01*
X280592D01*
X279994Y213994D01*
X278162Y215219D01*
X276000Y215648D01*
X273838Y215219D01*
X272006Y213994D01*
X270781Y212162D01*
X270352Y210000D01*
X270781Y207838D01*
X272006Y206006D01*
X273838Y204781D01*
X276000Y204352D01*
X278162Y204781D01*
X279994Y206006D01*
X280592Y206900D01*
X298000D01*
X298997Y207099D01*
X299595Y205979D01*
X286716Y193100D01*
X280592D01*
X279994Y193994D01*
X278162Y195219D01*
X276000Y195648D01*
X273838Y195219D01*
X272006Y193994D01*
X270781Y192162D01*
X270352Y190000D01*
X270781Y187838D01*
X272006Y186006D01*
X273838Y184781D01*
X276000Y184352D01*
X278162Y184781D01*
X279994Y186006D01*
X280592Y186900D01*
X288000D01*
X289186Y187136D01*
X290192Y187808D01*
X290192Y187808D01*
X290192Y187808D01*
X417284Y314900D01*
X483000D01*
X484186Y315136D01*
X485192Y315808D01*
X499284Y329900D01*
X541280D01*
X542466Y330136D01*
X543472Y330808D01*
X543472Y330808D01*
X543472Y330808D01*
X560061Y347397D01*
X561520Y346793D01*
X563880Y346482D01*
X566240Y346793D01*
X568439Y347704D01*
X570327Y349153D01*
X571776Y351041D01*
X572687Y353240D01*
X572998Y355600D01*
X572687Y357960D01*
X571776Y360159D01*
X570327Y362047D01*
X568439Y363496D01*
X566240Y364407D01*
X563880Y364718D01*
X561520Y364407D01*
X559321Y363496D01*
X557433Y362047D01*
X555984Y360159D01*
X555073Y357960D01*
X554762Y355600D01*
X555073Y353240D01*
X555677Y351781D01*
X539996Y336100D01*
X524702D01*
X524333Y337315D01*
X525072Y337808D01*
X525072Y337808D01*
X525072Y337808D01*
X534661Y347397D01*
X536120Y346793D01*
X538480Y346482D01*
X540840Y346793D01*
X543039Y347704D01*
X544927Y349153D01*
X546376Y351041D01*
X547287Y353240D01*
X547598Y355600D01*
X547287Y357960D01*
X546376Y360159D01*
X544927Y362047D01*
X543039Y363496D01*
X540840Y364407D01*
X538480Y364718D01*
X536120Y364407D01*
X533921Y363496D01*
X532033Y362047D01*
X530584Y360159D01*
X529673Y357960D01*
X529362Y355600D01*
X529673Y353240D01*
X530277Y351781D01*
X521596Y343100D01*
X494000D01*
X493004Y342901D01*
X492405Y344021D01*
X500884Y352500D01*
X504040D01*
Y346560D01*
X522120D01*
Y364640D01*
X504040D01*
Y358700D01*
X499600D01*
X498414Y358464D01*
X497408Y357792D01*
X496296Y356680D01*
X495861Y357037D01*
X495861Y357037D01*
X495315Y357485D01*
X496219Y358838D01*
X496396Y359730D01*
X492270D01*
Y355604D01*
X493162Y355781D01*
X494515Y356685D01*
X494963Y356139D01*
X494963Y356139D01*
X495320Y355704D01*
X473716Y334100D01*
X471000D01*
Y401410D01*
X782000D01*
Y269D01*
D02*
G37*
%LPC*%
G36*
X618396Y147730D02*
X614270D01*
Y143604D01*
X615162Y143781D01*
X616994Y145006D01*
X618219Y146838D01*
X618396Y147730D01*
D02*
G37*
G36*
X700730Y148730D02*
X696604D01*
X696781Y147838D01*
X698006Y146006D01*
X699838Y144781D01*
X700730Y144604D01*
Y148730D01*
D02*
G37*
G36*
X707396D02*
X703270D01*
Y144604D01*
X704162Y144781D01*
X705994Y146006D01*
X707218Y147838D01*
X707396Y148730D01*
D02*
G37*
G36*
X611730Y147730D02*
X607604D01*
X607781Y146838D01*
X609006Y145006D01*
X610838Y143781D01*
X611730Y143604D01*
Y147730D01*
D02*
G37*
G36*
X482270Y147396D02*
Y143270D01*
X486396D01*
X486219Y144162D01*
X484994Y145994D01*
X483162Y147219D01*
X482270Y147396D01*
D02*
G37*
G36*
X500730D02*
X499838Y147219D01*
X498006Y145994D01*
X496782Y144162D01*
X496604Y143270D01*
X500730D01*
Y147396D01*
D02*
G37*
G36*
X503270D02*
Y143270D01*
X507396D01*
X507219Y144162D01*
X505994Y145994D01*
X504162Y147219D01*
X503270Y147396D01*
D02*
G37*
G36*
X611730Y154396D02*
X610838Y154219D01*
X609006Y152994D01*
X607781Y151162D01*
X607604Y150270D01*
X611730D01*
Y154396D01*
D02*
G37*
G36*
X614270D02*
Y150270D01*
X618396D01*
X618219Y151162D01*
X616994Y152994D01*
X615162Y154219D01*
X614270Y154396D01*
D02*
G37*
G36*
X700730Y155396D02*
X699838Y155219D01*
X698006Y153994D01*
X696781Y152162D01*
X696604Y151270D01*
X700730D01*
Y155396D01*
D02*
G37*
G36*
X128000Y196139D02*
X126034Y195748D01*
X124366Y194634D01*
X123252Y192966D01*
X122861Y191000D01*
X123252Y189034D01*
X124366Y187366D01*
X126034Y186252D01*
X128000Y185861D01*
X129966Y186252D01*
X131634Y187366D01*
X135179Y184997D01*
X139261Y180916D01*
Y162595D01*
X139062Y162513D01*
X137696Y161464D01*
X136647Y160098D01*
X135988Y158507D01*
X135764Y156800D01*
X135988Y155093D01*
X136647Y153502D01*
X137696Y152136D01*
X139062Y151087D01*
X140653Y150428D01*
X142360Y150204D01*
X144067Y150428D01*
X145658Y151087D01*
X147024Y152136D01*
X148073Y153502D01*
X148732Y155093D01*
X148956Y156800D01*
X148732Y158507D01*
X148073Y160098D01*
X147024Y161464D01*
X145658Y162513D01*
X145460Y162595D01*
Y182200D01*
X145224Y183386D01*
X144552Y184392D01*
X135752Y193192D01*
X134746Y193864D01*
X133560Y194100D01*
X131990D01*
X131634Y194634D01*
X129966Y195748D01*
X128000Y196139D01*
D02*
G37*
G36*
X703270Y155396D02*
Y151270D01*
X707396D01*
X707218Y152162D01*
X705994Y153994D01*
X704162Y155219D01*
X703270Y155396D01*
D02*
G37*
G36*
X640730Y149730D02*
X636604D01*
X636782Y148838D01*
X638006Y147006D01*
X639838Y145781D01*
X640730Y145604D01*
Y149730D01*
D02*
G37*
G36*
X647396D02*
X643270D01*
Y145604D01*
X644162Y145781D01*
X645994Y147006D01*
X647219Y148838D01*
X647396Y149730D01*
D02*
G37*
G36*
X641730Y118396D02*
X640838Y118219D01*
X639006Y116994D01*
X637781Y115162D01*
X637604Y114270D01*
X641730D01*
Y118396D01*
D02*
G37*
G36*
X644270D02*
Y114270D01*
X648396D01*
X648219Y115162D01*
X646994Y116994D01*
X645162Y118219D01*
X644270Y118396D01*
D02*
G37*
G36*
X564730Y122396D02*
X563838Y122219D01*
X562006Y120994D01*
X560782Y119162D01*
X560604Y118270D01*
X564730D01*
Y122396D01*
D02*
G37*
G36*
X594270Y116396D02*
Y112270D01*
X598396D01*
X598219Y113162D01*
X596994Y114994D01*
X595162Y116219D01*
X594270Y116396D01*
D02*
G37*
G36*
X564730Y115730D02*
X560604D01*
X560782Y114838D01*
X562006Y113006D01*
X563838Y111781D01*
X564730Y111604D01*
Y115730D01*
D02*
G37*
G36*
X571396D02*
X567270D01*
Y111604D01*
X568162Y111781D01*
X569994Y113006D01*
X571219Y114838D01*
X571396Y115730D01*
D02*
G37*
G36*
X591730Y116396D02*
X590838Y116219D01*
X589006Y114994D01*
X587781Y113162D01*
X587604Y112270D01*
X591730D01*
Y116396D01*
D02*
G37*
G36*
X500730Y140730D02*
X496604D01*
X496782Y139838D01*
X498006Y138006D01*
X499838Y136781D01*
X500730Y136604D01*
Y140730D01*
D02*
G37*
G36*
X507396D02*
X503270D01*
Y136604D01*
X504162Y136781D01*
X505994Y138006D01*
X507219Y139838D01*
X507396Y140730D01*
D02*
G37*
G36*
X479730Y147396D02*
X478838Y147219D01*
X477006Y145994D01*
X475781Y144162D01*
X475604Y143270D01*
X479730D01*
Y147396D01*
D02*
G37*
G36*
X486396Y140730D02*
X482270D01*
Y136604D01*
X483162Y136781D01*
X484994Y138006D01*
X486219Y139838D01*
X486396Y140730D01*
D02*
G37*
G36*
X567270Y122396D02*
Y118270D01*
X571396D01*
X571219Y119162D01*
X569994Y120994D01*
X568162Y122219D01*
X567270Y122396D01*
D02*
G37*
G36*
X566213Y140862D02*
X564052Y140432D01*
X562219Y139208D01*
X560995Y137375D01*
X560565Y135213D01*
X560995Y133052D01*
X562219Y131219D01*
X564052Y129995D01*
X566213Y129565D01*
X568375Y129995D01*
X570208Y131219D01*
X570805Y132114D01*
X640528D01*
X640781Y130838D01*
X642006Y129006D01*
X643838Y127781D01*
X646000Y127352D01*
X648162Y127781D01*
X649994Y129006D01*
X651219Y130838D01*
X651648Y133000D01*
X651219Y135162D01*
X649994Y136994D01*
X648162Y138218D01*
X646000Y138649D01*
X644050Y138261D01*
X643786Y138313D01*
X570805D01*
X570208Y139208D01*
X568375Y140432D01*
X566213Y140862D01*
D02*
G37*
G36*
X479730Y140730D02*
X475604D01*
X475781Y139838D01*
X477006Y138006D01*
X478838Y136781D01*
X479730Y136604D01*
Y140730D01*
D02*
G37*
G36*
X640730Y156396D02*
X639838Y156219D01*
X638006Y154994D01*
X636782Y153162D01*
X636604Y152270D01*
X640730D01*
Y156396D01*
D02*
G37*
G36*
X188730Y180396D02*
X187838Y180219D01*
X186006Y178994D01*
X184781Y177162D01*
X184604Y176270D01*
X188730D01*
Y180396D01*
D02*
G37*
G36*
X191270D02*
Y176270D01*
X195396D01*
X195219Y177162D01*
X193994Y178994D01*
X192162Y180219D01*
X191270Y180396D01*
D02*
G37*
G36*
X183730Y188730D02*
X179604D01*
X179781Y187838D01*
X181006Y186006D01*
X182838Y184781D01*
X183730Y184604D01*
Y188730D01*
D02*
G37*
G36*
X774177Y193980D02*
X756440D01*
Y176243D01*
X758903Y176486D01*
X762492Y177574D01*
X765799Y179342D01*
X768698Y181722D01*
X771078Y184621D01*
X772846Y187929D01*
X773934Y191518D01*
X774177Y193980D01*
D02*
G37*
G36*
X195396Y173730D02*
X191270D01*
Y169604D01*
X192162Y169781D01*
X193994Y171006D01*
X195219Y172838D01*
X195396Y173730D01*
D02*
G37*
G36*
X30000Y214382D02*
X26267Y214014D01*
X22678Y212926D01*
X19371Y211158D01*
X16472Y208778D01*
X14092Y205879D01*
X12324Y202572D01*
X11236Y198983D01*
X10868Y195250D01*
X11236Y191518D01*
X12324Y187929D01*
X14092Y184621D01*
X16472Y181722D01*
X19371Y179342D01*
X22678Y177574D01*
X26267Y176486D01*
X30000Y176118D01*
X33733Y176486D01*
X37322Y177574D01*
X40629Y179342D01*
X43528Y181722D01*
X45908Y184621D01*
X47676Y187929D01*
X48765Y191518D01*
X49132Y195250D01*
X48765Y198983D01*
X47676Y202572D01*
X45908Y205879D01*
X43528Y208778D01*
X40629Y211158D01*
X37322Y212926D01*
X33733Y214014D01*
X30000Y214382D01*
D02*
G37*
G36*
X753900Y193980D02*
X736163D01*
X736405Y191518D01*
X737494Y187929D01*
X739262Y184621D01*
X741641Y181722D01*
X744541Y179342D01*
X747848Y177574D01*
X751438Y176486D01*
X753900Y176243D01*
Y193980D01*
D02*
G37*
G36*
X186270Y195396D02*
Y191270D01*
X190396D01*
X190219Y192162D01*
X188994Y193994D01*
X187162Y195219D01*
X186270Y195396D01*
D02*
G37*
G36*
X640730Y197396D02*
X639838Y197219D01*
X638006Y195994D01*
X636782Y194162D01*
X636604Y193270D01*
X640730D01*
Y197396D01*
D02*
G37*
G36*
X643270D02*
Y193270D01*
X647396D01*
X647219Y194162D01*
X645994Y195994D01*
X644162Y197219D01*
X643270Y197396D01*
D02*
G37*
G36*
X183730Y195396D02*
X182838Y195219D01*
X181006Y193994D01*
X179781Y192162D01*
X179604Y191270D01*
X183730D01*
Y195396D01*
D02*
G37*
G36*
X190396Y188730D02*
X186270D01*
Y184604D01*
X187162Y184781D01*
X188994Y186006D01*
X190219Y187838D01*
X190396Y188730D01*
D02*
G37*
G36*
X741680Y364718D02*
X739320Y364407D01*
X737121Y363496D01*
X735233Y362047D01*
X733784Y360159D01*
X732873Y357960D01*
X732562Y355600D01*
X732873Y353240D01*
X733477Y351781D01*
X721808Y340112D01*
X721136Y339106D01*
X720900Y337920D01*
Y185600D01*
X719811Y184947D01*
X719181Y185284D01*
X719380Y186280D01*
Y213280D01*
Y347099D01*
X720839Y347704D01*
X722727Y349153D01*
X724176Y351041D01*
X725087Y353240D01*
X725398Y355600D01*
X725087Y357960D01*
X724176Y360159D01*
X722727Y362047D01*
X720839Y363496D01*
X718640Y364407D01*
X716280Y364718D01*
X713920Y364407D01*
X711721Y363496D01*
X709833Y362047D01*
X708384Y360159D01*
X707473Y357960D01*
X707162Y355600D01*
X707473Y353240D01*
X708384Y351041D01*
X709833Y349153D01*
X711721Y347704D01*
X713180Y347099D01*
Y315910D01*
X711965Y315541D01*
X710994Y316994D01*
X709162Y318219D01*
X708270Y318396D01*
Y312997D01*
Y307604D01*
X709162Y307782D01*
X710994Y309006D01*
X711965Y310459D01*
X713180Y310090D01*
Y297910D01*
X711965Y297541D01*
X710994Y298994D01*
X709162Y300219D01*
X708270Y300396D01*
Y294998D01*
Y289604D01*
X709162Y289781D01*
X710994Y291006D01*
X711965Y292459D01*
X713180Y292090D01*
Y276910D01*
X711965Y276541D01*
X710994Y277994D01*
X709162Y279219D01*
X708270Y279396D01*
Y273997D01*
Y268604D01*
X709162Y268782D01*
X710994Y270006D01*
X711965Y271459D01*
X713180Y271090D01*
Y257910D01*
X711965Y257541D01*
X710994Y258994D01*
X709162Y260219D01*
X708270Y260396D01*
Y254998D01*
Y249604D01*
X709162Y249781D01*
X710994Y251006D01*
X711965Y252459D01*
X713180Y252090D01*
Y213280D01*
Y187564D01*
X699716Y174100D01*
X651284D01*
X642192Y183192D01*
X639842Y185542D01*
X640441Y186662D01*
X640730Y186604D01*
Y190730D01*
X636604D01*
X636662Y190441D01*
X635542Y189842D01*
X620192Y205192D01*
X619186Y205864D01*
X618000Y206100D01*
X510284D01*
X508547Y207837D01*
X509211Y208830D01*
X509640Y210992D01*
X509211Y213153D01*
X507986Y214986D01*
X508103Y215371D01*
X539083D01*
X540574Y213879D01*
X540781Y212838D01*
X542006Y211006D01*
X543838Y209781D01*
X546000Y209352D01*
X548162Y209781D01*
X549994Y211006D01*
X551219Y212838D01*
X551426Y213879D01*
X563917Y226371D01*
X617000D01*
X617000Y226371D01*
X618771Y226723D01*
X620273Y227727D01*
X639915Y247368D01*
X640000Y247351D01*
X642162Y247781D01*
X643994Y249006D01*
X645219Y250838D01*
X645648Y253000D01*
X645219Y255162D01*
X643994Y256994D01*
X642162Y258219D01*
X640000Y258648D01*
X637838Y258219D01*
X636006Y256994D01*
X635116Y255662D01*
X615083Y235629D01*
X565100D01*
Y243408D01*
X565994Y244006D01*
X567219Y245838D01*
X567649Y248000D01*
X567219Y250162D01*
X565994Y251994D01*
X564162Y253219D01*
X562000Y253648D01*
X559838Y253219D01*
X558006Y251994D01*
X556781Y250162D01*
X556352Y248000D01*
X556781Y245838D01*
X558006Y244006D01*
X558900Y243408D01*
Y234389D01*
X558727Y234273D01*
X558727Y234273D01*
X548573Y224119D01*
X543007D01*
X542771Y224277D01*
X541000Y224629D01*
X541000Y224629D01*
X509349D01*
X508994Y225800D01*
X510219Y227632D01*
X510648Y229794D01*
X510219Y231956D01*
X508994Y233788D01*
X508100Y234386D01*
Y284716D01*
X523284Y299900D01*
X562000D01*
X562878Y300075D01*
X563345Y298948D01*
X563345D01*
X563364Y298902D01*
X562006Y297994D01*
X560782Y296162D01*
X560604Y295270D01*
X564730D01*
Y299396D01*
X564146Y299280D01*
X563679Y300407D01*
X563679D01*
X563660Y300453D01*
X564192Y300808D01*
X572704Y309321D01*
X573137Y308965D01*
D01*
X573686Y308515D01*
X572781Y307162D01*
X572604Y306270D01*
X576730D01*
Y310396D01*
X575838Y310219D01*
X574485Y309314D01*
X574035Y309863D01*
D01*
X573680Y310296D01*
X591472Y328088D01*
X592144Y329094D01*
X592380Y330280D01*
X592380Y330280D01*
X592380Y330280D01*
Y330280D01*
Y347099D01*
X593839Y347704D01*
X595727Y349153D01*
X597176Y351041D01*
X598087Y353240D01*
X598398Y355600D01*
X598087Y357960D01*
X597176Y360159D01*
X595727Y362047D01*
X593839Y363496D01*
X591640Y364407D01*
X589280Y364718D01*
X586920Y364407D01*
X584721Y363496D01*
X582833Y362047D01*
X581384Y360159D01*
X580473Y357960D01*
X580162Y355600D01*
X580473Y353240D01*
X581384Y351041D01*
X582833Y349153D01*
X584721Y347704D01*
X586180Y347099D01*
Y331564D01*
X560716Y306100D01*
X522000D01*
X520814Y305864D01*
X519808Y305192D01*
X502808Y288192D01*
X502136Y287186D01*
X501900Y286000D01*
Y234386D01*
X501006Y233788D01*
X499781Y231956D01*
X499352Y229794D01*
X499781Y227632D01*
X501006Y225800D01*
X500651Y224629D01*
X344000D01*
X344000Y224629D01*
X342229Y224277D01*
X340727Y223273D01*
X267083Y149629D01*
X218044D01*
X217162Y150218D01*
X215000Y150648D01*
X212838Y150218D01*
X211956Y149629D01*
X208044D01*
X207162Y150218D01*
X205000Y150648D01*
X202838Y150218D01*
X201006Y148994D01*
X199781Y147162D01*
X199352Y145000D01*
X199781Y142838D01*
X201006Y141006D01*
X202838Y139781D01*
X205000Y139352D01*
X207162Y139781D01*
X208044Y140371D01*
X211956D01*
X212838Y139781D01*
X215000Y139352D01*
X217162Y139781D01*
X218044Y140371D01*
X268083D01*
X289574Y118879D01*
X289781Y117838D01*
X291006Y116006D01*
X292838Y114781D01*
X293879Y114574D01*
X315891Y92563D01*
Y53563D01*
X314073Y52167D01*
X312624Y50279D01*
X311713Y48080D01*
X311402Y45720D01*
X311713Y43360D01*
X312624Y41161D01*
X314073Y39273D01*
X315961Y37824D01*
X318160Y36913D01*
X320520Y36602D01*
X322880Y36913D01*
X325079Y37824D01*
X326967Y39273D01*
X328416Y41161D01*
X329327Y43360D01*
X329638Y45720D01*
X329327Y48080D01*
X328416Y50279D01*
X326967Y52167D01*
X325149Y53563D01*
Y94480D01*
X325149Y94480D01*
X324797Y96251D01*
X323793Y97753D01*
X323793Y97753D01*
X300426Y121121D01*
X300219Y122162D01*
X298994Y123994D01*
X297162Y125218D01*
X296121Y125426D01*
X276046Y145500D01*
X345917Y215371D01*
X498908D01*
X499507Y214251D01*
X498773Y213153D01*
X498343Y210992D01*
X498773Y208830D01*
X499998Y206998D01*
X501830Y205773D01*
X501846Y205770D01*
X506808Y200808D01*
X507814Y200136D01*
X509000Y199900D01*
X616716D01*
X637808Y178808D01*
X647808Y168808D01*
X648547Y168315D01*
X648178Y167100D01*
X647284D01*
X622276Y192108D01*
X621270Y192780D01*
X620084Y193016D01*
X514592D01*
X513994Y193910D01*
X512162Y195135D01*
X510000Y195564D01*
X507838Y195135D01*
X506006Y193910D01*
X504781Y192078D01*
X504352Y189916D01*
X504781Y187754D01*
X506006Y185922D01*
X507838Y184697D01*
X510000Y184268D01*
X512162Y184697D01*
X513994Y185922D01*
X514592Y186816D01*
X618800D01*
X643808Y161808D01*
X643808Y161808D01*
X643808D01*
X643808Y161808D01*
X643808D01*
X643808Y161808D01*
Y161808D01*
Y161808D01*
D01*
D01*
X643808D01*
Y161808D01*
X644814Y161136D01*
X646000Y160900D01*
X704000D01*
X705186Y161136D01*
X706192Y161808D01*
X726192Y181808D01*
X726864Y182814D01*
X727100Y184000D01*
Y336636D01*
X737861Y347397D01*
X739320Y346793D01*
X741680Y346482D01*
X744040Y346793D01*
X746239Y347704D01*
X748127Y349153D01*
X749576Y351041D01*
X750487Y353240D01*
X750798Y355600D01*
X750487Y357960D01*
X749576Y360159D01*
X748127Y362047D01*
X746239Y363496D01*
X744040Y364407D01*
X741680Y364718D01*
D02*
G37*
G36*
X647396Y190730D02*
X643270D01*
Y186604D01*
X644162Y186781D01*
X645994Y188006D01*
X647219Y189838D01*
X647396Y190730D01*
D02*
G37*
G36*
X250396Y158730D02*
X246270D01*
Y154604D01*
X247162Y154781D01*
X248994Y156006D01*
X250219Y157838D01*
X250396Y158730D01*
D02*
G37*
G36*
X188730Y158730D02*
X184604D01*
X184781Y157838D01*
X186006Y156006D01*
X187838Y154782D01*
X188730Y154604D01*
Y158730D01*
D02*
G37*
G36*
X195396D02*
X191270D01*
Y154604D01*
X192162Y154782D01*
X193994Y156006D01*
X195219Y157838D01*
X195396Y158730D01*
D02*
G37*
G36*
X243730Y158730D02*
X239604D01*
X239781Y157838D01*
X241006Y156006D01*
X242838Y154781D01*
X243730Y154604D01*
Y158730D01*
D02*
G37*
G36*
X643270Y156396D02*
Y152270D01*
X647396D01*
X647219Y153162D01*
X645994Y154994D01*
X644162Y156219D01*
X643270Y156396D01*
D02*
G37*
G36*
X507730Y156730D02*
X503604D01*
X503781Y155838D01*
X505006Y154006D01*
X506838Y152781D01*
X507730Y152604D01*
Y156730D01*
D02*
G37*
G36*
X514396D02*
X510270D01*
Y152604D01*
X511162Y152781D01*
X512994Y154006D01*
X514219Y155838D01*
X514396Y156730D01*
D02*
G37*
G36*
X188730Y165396D02*
X187838Y165219D01*
X186006Y163994D01*
X184781Y162162D01*
X184604Y161270D01*
X188730D01*
Y165396D01*
D02*
G37*
G36*
X191270D02*
Y161270D01*
X195396D01*
X195219Y162162D01*
X193994Y163994D01*
X192162Y165219D01*
X191270Y165396D01*
D02*
G37*
G36*
X188730Y173730D02*
X184604D01*
X184781Y172838D01*
X186006Y171006D01*
X187838Y169781D01*
X188730Y169604D01*
Y173730D01*
D02*
G37*
G36*
X246270Y165396D02*
Y161270D01*
X250396D01*
X250219Y162162D01*
X248994Y163994D01*
X247162Y165219D01*
X246270Y165396D01*
D02*
G37*
G36*
X507730Y163396D02*
X506838Y163218D01*
X505006Y161994D01*
X503781Y160162D01*
X503604Y159270D01*
X507730D01*
Y163396D01*
D02*
G37*
G36*
X510270D02*
Y159270D01*
X514396D01*
X514219Y160162D01*
X512994Y161994D01*
X511162Y163218D01*
X510270Y163396D01*
D02*
G37*
G36*
X243730Y165396D02*
X242838Y165219D01*
X241006Y163994D01*
X239781Y162162D01*
X239604Y161270D01*
X243730D01*
Y165396D01*
D02*
G37*
G36*
X546410Y138379D02*
X544248Y137949D01*
X542416Y136724D01*
X541191Y134892D01*
X540761Y132730D01*
X541191Y130569D01*
X542416Y128736D01*
X543310Y128138D01*
Y119822D01*
X542416Y119224D01*
X541191Y117392D01*
X540761Y115230D01*
X541191Y113069D01*
X542416Y111236D01*
X544248Y110012D01*
X546410Y109582D01*
X548572Y110012D01*
X550404Y111236D01*
X551628Y113069D01*
X552058Y115230D01*
X551628Y117392D01*
X550404Y119224D01*
X549510Y119822D01*
Y128138D01*
X550404Y128736D01*
X551628Y130569D01*
X552058Y132730D01*
X551628Y134892D01*
X550404Y136724D01*
X548572Y137949D01*
X546410Y138379D01*
D02*
G37*
G36*
X457000Y145648D02*
X454838Y145219D01*
X453006Y143994D01*
X451781Y142162D01*
X451352Y140000D01*
X451781Y137838D01*
X453006Y136006D01*
X453900Y135408D01*
Y130000D01*
Y122000D01*
X453900Y122000D01*
X453900D01*
X454136Y120814D01*
X454808Y119808D01*
X464808Y109808D01*
X464808Y109808D01*
X464808D01*
X464808Y109808D01*
X464808D01*
X464808Y109808D01*
Y109808D01*
Y109808D01*
D01*
D01*
X464808D01*
Y109808D01*
X465814Y109136D01*
X467000Y108900D01*
X515716D01*
X526808Y97808D01*
X527814Y97136D01*
X527814Y97136D01*
X527814Y97136D01*
D01*
X527814Y97136D01*
X527814Y97136D01*
X529000Y96900D01*
X650556D01*
X697917Y49539D01*
X697313Y48080D01*
X697002Y45720D01*
X697313Y43360D01*
X698224Y41161D01*
X699673Y39273D01*
X701561Y37824D01*
X703760Y36913D01*
X706120Y36602D01*
X708480Y36913D01*
X710679Y37824D01*
X712567Y39273D01*
X714016Y41161D01*
X714927Y43360D01*
X715238Y45720D01*
X714927Y48080D01*
X714016Y50279D01*
X712567Y52167D01*
X710679Y53616D01*
X708480Y54527D01*
X706120Y54838D01*
X703760Y54527D01*
X702301Y53923D01*
X654032Y102192D01*
X653026Y102864D01*
X651840Y103100D01*
X530284D01*
X519192Y114192D01*
X518186Y114864D01*
X517000Y115100D01*
X468284D01*
X460100Y123284D01*
Y130000D01*
Y135408D01*
X460994Y136006D01*
X462219Y137838D01*
X462649Y140000D01*
X462219Y142162D01*
X460994Y143994D01*
X459162Y145219D01*
X457000Y145648D01*
D02*
G37*
G36*
X227960Y54760D02*
X209880D01*
Y36680D01*
X227960D01*
Y54760D01*
D02*
G37*
G36*
X537360D02*
X519280D01*
Y36680D01*
X537360D01*
Y54760D01*
D02*
G37*
G36*
X579120Y54838D02*
X576760Y54527D01*
X574561Y53616D01*
X572673Y52167D01*
X571224Y50279D01*
X570313Y48080D01*
X570002Y45720D01*
X570313Y43360D01*
X571224Y41161D01*
X572673Y39273D01*
X574561Y37824D01*
X576760Y36913D01*
X579120Y36602D01*
X581480Y36913D01*
X583679Y37824D01*
X585567Y39273D01*
X587016Y41161D01*
X587927Y43360D01*
X588238Y45720D01*
X587927Y48080D01*
X587016Y50279D01*
X585567Y52167D01*
X583679Y53616D01*
X581480Y54527D01*
X579120Y54838D01*
D02*
G37*
G36*
X295120D02*
X292760Y54527D01*
X290561Y53616D01*
X288673Y52167D01*
X287224Y50279D01*
X286313Y48080D01*
X286002Y45720D01*
X286313Y43360D01*
X287224Y41161D01*
X288673Y39273D01*
X290561Y37824D01*
X292760Y36913D01*
X295120Y36602D01*
X297480Y36913D01*
X299679Y37824D01*
X301567Y39273D01*
X303016Y41161D01*
X303927Y43360D01*
X304238Y45720D01*
X303927Y48080D01*
X303016Y50279D01*
X301567Y52167D01*
X299679Y53616D01*
X297480Y54527D01*
X295120Y54838D01*
D02*
G37*
G36*
X345920D02*
X343560Y54527D01*
X341361Y53616D01*
X339473Y52167D01*
X338024Y50279D01*
X337113Y48080D01*
X336802Y45720D01*
X337113Y43360D01*
X338024Y41161D01*
X339473Y39273D01*
X341361Y37824D01*
X343560Y36913D01*
X345920Y36602D01*
X348280Y36913D01*
X350479Y37824D01*
X352367Y39273D01*
X353816Y41161D01*
X354727Y43360D01*
X355038Y45720D01*
X354727Y48080D01*
X353816Y50279D01*
X352367Y52167D01*
X350479Y53616D01*
X348280Y54527D01*
X345920Y54838D01*
D02*
G37*
G36*
X488160Y75158D02*
X485800Y74847D01*
X483601Y73936D01*
X481713Y72487D01*
X480264Y70599D01*
X479353Y68400D01*
X479042Y66040D01*
X479353Y63680D01*
X480264Y61481D01*
X481713Y59593D01*
X483601Y58144D01*
X485800Y57233D01*
X488160Y56922D01*
X490520Y57233D01*
X492719Y58144D01*
X494607Y59593D01*
X495675Y59663D01*
Y59662D01*
X496169Y59169D01*
D01*
D01*
X496169D01*
X496169Y59169D01*
Y59169D01*
Y59169D01*
D01*
D01*
X496169D01*
Y59169D01*
X497009Y58607D01*
X498000Y58410D01*
X539927D01*
X546794Y51544D01*
X545824Y50279D01*
X544913Y48080D01*
X544602Y45720D01*
X544913Y43360D01*
X545824Y41161D01*
X547273Y39273D01*
X549161Y37824D01*
X551360Y36913D01*
X553720Y36602D01*
X556080Y36913D01*
X558279Y37824D01*
X560167Y39273D01*
X561616Y41161D01*
X562527Y43360D01*
X562838Y45720D01*
X562527Y48080D01*
X561616Y50279D01*
X560167Y52167D01*
X558279Y53616D01*
X556080Y54527D01*
X553720Y54838D01*
X551360Y54527D01*
X551201Y54461D01*
X542831Y62831D01*
X541991Y63393D01*
X541000Y63590D01*
X499073D01*
X497202Y65461D01*
X497278Y66040D01*
X496967Y68400D01*
X496056Y70599D01*
X494607Y72487D01*
X492719Y73936D01*
X490520Y74847D01*
X488160Y75158D01*
D02*
G37*
G36*
X462760D02*
X460400Y74847D01*
X458201Y73936D01*
X456313Y72487D01*
X454864Y70599D01*
X453953Y68400D01*
X453642Y66040D01*
X453953Y63680D01*
X454864Y61481D01*
X456313Y59593D01*
X458201Y58144D01*
X460400Y57233D01*
X462760Y56922D01*
X465120Y57233D01*
X467319Y58144D01*
X469207Y59593D01*
X470656Y61481D01*
X471567Y63680D01*
X471878Y66040D01*
X471567Y68400D01*
X470656Y70599D01*
X469207Y72487D01*
X467319Y73936D01*
X465120Y74847D01*
X462760Y75158D01*
D02*
G37*
G36*
X395600Y75080D02*
X377520D01*
Y57000D01*
X395600D01*
Y75080D01*
D02*
G37*
G36*
X220000Y135648D02*
X217838Y135219D01*
X216006Y133994D01*
X214781Y132162D01*
X214352Y130000D01*
X214781Y127838D01*
X216006Y126006D01*
X217838Y124781D01*
X218458Y124658D01*
X266620Y76496D01*
Y72812D01*
X265726Y72214D01*
X264501Y70381D01*
X264072Y68220D01*
X264501Y66058D01*
X265726Y64226D01*
X267558Y63001D01*
X269720Y62571D01*
X271882Y63001D01*
X273714Y64226D01*
X274939Y66058D01*
X275368Y68220D01*
X274939Y70381D01*
X273714Y72214D01*
X272820Y72812D01*
Y77780D01*
X272584Y78966D01*
X271912Y79972D01*
X224748Y127135D01*
X225219Y127838D01*
X225648Y130000D01*
X225219Y132162D01*
X223994Y133994D01*
X222162Y135219D01*
X220000Y135648D01*
D02*
G37*
G36*
X437360Y75158D02*
X435000Y74847D01*
X432801Y73936D01*
X430913Y72487D01*
X429464Y70599D01*
X428553Y68400D01*
X428242Y66040D01*
X428553Y63680D01*
X429464Y61481D01*
X430913Y59593D01*
X432801Y58144D01*
X435000Y57233D01*
X437360Y56922D01*
X439720Y57233D01*
X441919Y58144D01*
X443807Y59593D01*
X445256Y61481D01*
X446167Y63680D01*
X446478Y66040D01*
X446167Y68400D01*
X445256Y70599D01*
X443807Y72487D01*
X441919Y73936D01*
X439720Y74847D01*
X437360Y75158D01*
D02*
G37*
G36*
X364730Y43396D02*
X363838Y43219D01*
X362006Y41994D01*
X360781Y40162D01*
X360604Y39270D01*
X364730D01*
Y43396D01*
D02*
G37*
G36*
X367270D02*
Y39270D01*
X371396D01*
X371219Y40162D01*
X369994Y41994D01*
X368162Y43219D01*
X367270Y43396D01*
D02*
G37*
G36*
X411960Y75158D02*
X409600Y74847D01*
X407401Y73936D01*
X405513Y72487D01*
X404064Y70599D01*
X403153Y68400D01*
X402842Y66040D01*
X403153Y63680D01*
X404064Y61481D01*
X405513Y59593D01*
X407401Y58144D01*
X409600Y57233D01*
X411960Y56922D01*
X414320Y57233D01*
X416519Y58144D01*
X418407Y59593D01*
X419856Y61481D01*
X420767Y63680D01*
X421078Y66040D01*
X420767Y68400D01*
X419856Y70599D01*
X418407Y72487D01*
X416519Y73936D01*
X414320Y74847D01*
X411960Y75158D01*
D02*
G37*
G36*
X371396Y20730D02*
X367270D01*
Y16604D01*
X368162Y16781D01*
X369994Y18006D01*
X371219Y19838D01*
X371396Y20730D01*
D02*
G37*
G36*
X505730Y25730D02*
X501604D01*
X501781Y24838D01*
X503006Y23006D01*
X504838Y21781D01*
X505730Y21604D01*
Y25730D01*
D02*
G37*
G36*
X512396D02*
X508270D01*
Y21604D01*
X509162Y21781D01*
X510994Y23006D01*
X512219Y24838D01*
X512396Y25730D01*
D02*
G37*
G36*
X364730Y20730D02*
X360604D01*
X360781Y19838D01*
X362006Y18006D01*
X363838Y16781D01*
X364730Y16604D01*
Y20730D01*
D02*
G37*
G36*
X339000Y125648D02*
X336838Y125218D01*
X335006Y123994D01*
X333782Y122162D01*
X333352Y120000D01*
X333782Y117838D01*
X335006Y116006D01*
X335900Y115408D01*
D01*
X335900Y115000D01*
X335900Y115000D01*
X335900D01*
X336136Y113814D01*
X336808Y112808D01*
X363900Y85716D01*
Y80185D01*
X362637Y80060D01*
X362649Y80000D01*
X362637Y79940D01*
X363900Y79815D01*
Y59000D01*
X363900Y59000D01*
X363900D01*
X364136Y57814D01*
X364808Y56808D01*
X415808Y5808D01*
X415808Y5808D01*
X415808D01*
X415808Y5808D01*
X415808D01*
X415808Y5808D01*
Y5808D01*
Y5808D01*
D01*
D01*
X415808D01*
Y5808D01*
X416814Y5136D01*
X418000Y4900D01*
X502408D01*
X503006Y4006D01*
X504838Y2781D01*
X507000Y2351D01*
X509162Y2781D01*
X510994Y4006D01*
X512219Y5838D01*
X512649Y8000D01*
X512219Y10162D01*
X510994Y11994D01*
X509162Y13219D01*
X507000Y13649D01*
X504838Y13219D01*
X503006Y11994D01*
X502408Y11100D01*
X419284D01*
X370100Y60284D01*
Y87000D01*
X369864Y88186D01*
X369192Y89192D01*
X342939Y115445D01*
X342994Y116006D01*
X344219Y117838D01*
X344649Y120000D01*
X344219Y122162D01*
X342994Y123994D01*
X341162Y125218D01*
X339000Y125648D01*
D02*
G37*
G36*
X30000Y119132D02*
X26267Y118764D01*
X22678Y117676D01*
X19371Y115908D01*
X16472Y113528D01*
X14092Y110629D01*
X12324Y107322D01*
X11236Y103733D01*
X10868Y100000D01*
X11236Y96267D01*
X12324Y92678D01*
X14092Y89371D01*
X16472Y86472D01*
X19371Y84092D01*
X22678Y82324D01*
X25371Y81507D01*
Y45000D01*
X25371Y45000D01*
X25723Y43229D01*
X26727Y41727D01*
X61727Y6727D01*
X61727Y6727D01*
X63229Y5723D01*
X63229Y5723D01*
X63229Y5723D01*
D01*
X63229Y5723D01*
X63229Y5723D01*
X65000Y5371D01*
X65000Y5371D01*
X230000D01*
X230000Y5371D01*
X231771Y5723D01*
X233273Y6727D01*
X247593Y21047D01*
X247593Y21047D01*
X248597Y22549D01*
X248949Y24320D01*
Y37877D01*
X250767Y39273D01*
X252216Y41161D01*
X253127Y43360D01*
X253438Y45720D01*
X253127Y48080D01*
X252216Y50279D01*
X250767Y52167D01*
X248879Y53616D01*
X246680Y54527D01*
X244320Y54838D01*
X241960Y54527D01*
X239761Y53616D01*
X237873Y52167D01*
X236424Y50279D01*
X235513Y48080D01*
X235202Y45720D01*
X235513Y43360D01*
X236424Y41161D01*
X237873Y39273D01*
X239691Y37877D01*
Y26237D01*
X228083Y14629D01*
X66917D01*
X34629Y46917D01*
Y81507D01*
X37322Y82324D01*
X40629Y84092D01*
X43528Y86472D01*
X45908Y89371D01*
X47676Y92678D01*
X48765Y96267D01*
X49132Y100000D01*
X48765Y103733D01*
X47676Y107322D01*
X45908Y110629D01*
X43528Y113528D01*
X40629Y115908D01*
X37322Y117676D01*
X33733Y118764D01*
X30000Y119132D01*
D02*
G37*
G36*
X755000Y42625D02*
X751562Y42287D01*
X748255Y41284D01*
X745208Y39655D01*
X742537Y37463D01*
X740346Y34792D01*
X738717Y31745D01*
X737714Y28439D01*
X737375Y25001D01*
X737714Y21562D01*
X738717Y18256D01*
X740346Y15209D01*
X742537Y12538D01*
X745208Y10346D01*
X748255Y8717D01*
X751562Y7714D01*
X755000Y7376D01*
X758438Y7714D01*
X761745Y8717D01*
X764792Y10346D01*
X767463Y12538D01*
X769654Y15209D01*
X771283Y18256D01*
X772286Y21562D01*
X772625Y25001D01*
X772286Y28439D01*
X771283Y31745D01*
X769654Y34792D01*
X767463Y37463D01*
X764792Y39655D01*
X761745Y41284D01*
X758438Y42287D01*
X755000Y42625D01*
D02*
G37*
G36*
X364730Y36730D02*
X360604D01*
X360781Y35838D01*
X362006Y34006D01*
X363838Y32781D01*
X364730Y32604D01*
Y36730D01*
D02*
G37*
G36*
X371396D02*
X367270D01*
Y32604D01*
X368162Y32781D01*
X369994Y34006D01*
X371219Y35838D01*
X371396Y36730D01*
D02*
G37*
G36*
X269720Y54838D02*
X267360Y54527D01*
X265161Y53616D01*
X263273Y52167D01*
X261824Y50279D01*
X260913Y48080D01*
X260602Y45720D01*
X260913Y43360D01*
X261824Y41161D01*
X263273Y39273D01*
X265161Y37824D01*
X267360Y36913D01*
X269720Y36602D01*
X272080Y36913D01*
X274279Y37824D01*
X276167Y39273D01*
X277616Y41161D01*
X278527Y43360D01*
X278838Y45720D01*
X278527Y48080D01*
X277616Y50279D01*
X276167Y52167D01*
X274279Y53616D01*
X272080Y54527D01*
X269720Y54838D01*
D02*
G37*
G36*
X508270Y32396D02*
Y28270D01*
X512396D01*
X512219Y29162D01*
X510994Y30994D01*
X509162Y32219D01*
X508270Y32396D01*
D02*
G37*
G36*
X364730Y27396D02*
X363838Y27219D01*
X362006Y25994D01*
X360781Y24162D01*
X360604Y23270D01*
X364730D01*
Y27396D01*
D02*
G37*
G36*
X367270D02*
Y23270D01*
X371396D01*
X371219Y24162D01*
X369994Y25994D01*
X368162Y27219D01*
X367270Y27396D01*
D02*
G37*
G36*
X505730Y32396D02*
X504838Y32219D01*
X503006Y30994D01*
X501781Y29162D01*
X501604Y28270D01*
X505730D01*
Y32396D01*
D02*
G37*
G36*
X355730Y78730D02*
X351604D01*
X351781Y77838D01*
X353006Y76006D01*
X354838Y74781D01*
X355730Y74604D01*
Y78730D01*
D02*
G37*
G36*
X278730Y103396D02*
X277838Y103219D01*
X276006Y101994D01*
X274781Y100162D01*
X274604Y99270D01*
X278730D01*
Y103396D01*
D02*
G37*
G36*
X281270D02*
Y99270D01*
X285396D01*
X285219Y100162D01*
X283994Y101994D01*
X282162Y103219D01*
X281270Y103396D01*
D02*
G37*
G36*
X668730Y105396D02*
X667838Y105219D01*
X666006Y103994D01*
X664781Y102162D01*
X664604Y101270D01*
X668730D01*
Y105396D01*
D02*
G37*
G36*
X418000Y125648D02*
X415838Y125218D01*
X414006Y123994D01*
X412781Y122162D01*
X412351Y120000D01*
X412781Y117838D01*
X414006Y116006D01*
X415036Y115317D01*
X415136Y114814D01*
X415808Y113808D01*
X429808Y99808D01*
X430547Y99315D01*
X430178Y98099D01*
X424284D01*
X403438Y118945D01*
X403648Y120000D01*
X403218Y122162D01*
X401994Y123994D01*
X400162Y125218D01*
X398000Y125648D01*
X395838Y125218D01*
X394006Y123994D01*
X392781Y122162D01*
X392351Y120000D01*
X392781Y117838D01*
X394006Y116006D01*
X395838Y114781D01*
X398000Y114352D01*
X399055Y114561D01*
X420808Y92808D01*
X421411Y92406D01*
X421547Y92315D01*
X421178Y91100D01*
X405284D01*
X381100Y115284D01*
Y115408D01*
X381994Y116006D01*
X383218Y117838D01*
X383648Y120000D01*
X383218Y122162D01*
X381994Y123994D01*
X380162Y125218D01*
X378000Y125648D01*
X375838Y125218D01*
X374006Y123994D01*
X372781Y122162D01*
X372351Y120000D01*
X372781Y117838D01*
X374006Y116006D01*
X374900Y115408D01*
Y114000D01*
X374900Y114000D01*
X374900D01*
X375136Y112814D01*
X375808Y111808D01*
X401808Y85808D01*
X402547Y85315D01*
X402178Y84100D01*
X389284D01*
X361100Y112284D01*
Y115408D01*
X361994Y116006D01*
X363218Y117838D01*
X363648Y120000D01*
X363218Y122162D01*
X361994Y123994D01*
X360162Y125218D01*
X358000Y125648D01*
X355838Y125218D01*
X354006Y123994D01*
X352781Y122162D01*
X352351Y120000D01*
X352781Y117838D01*
X354006Y116006D01*
X354900Y115408D01*
Y111000D01*
X354900Y111000D01*
X354900D01*
X355136Y109814D01*
X355808Y108808D01*
X385808Y78808D01*
X385808D01*
X385808Y78808D01*
X385808D01*
X385808Y78808D01*
Y78808D01*
X385808Y78808D01*
Y78808D01*
X386814Y78136D01*
X388000Y77900D01*
X496716D01*
X504808Y69808D01*
X504808D01*
X504808Y69808D01*
X504808D01*
X504808Y69808D01*
Y69808D01*
X504808Y69808D01*
Y69808D01*
X505814Y69136D01*
X507000Y68900D01*
X576956D01*
X596317Y49539D01*
X595713Y48080D01*
X595402Y45720D01*
X595713Y43360D01*
X596624Y41161D01*
X598073Y39273D01*
X599961Y37824D01*
X602160Y36913D01*
X604520Y36602D01*
X606880Y36913D01*
X609079Y37824D01*
X610967Y39273D01*
X612416Y41161D01*
X613327Y43360D01*
X613638Y45720D01*
X613327Y48080D01*
X612416Y50279D01*
X610967Y52167D01*
X609079Y53616D01*
X606880Y54527D01*
X604520Y54838D01*
X602160Y54527D01*
X600701Y53923D01*
X580432Y74192D01*
X579693Y74685D01*
X580062Y75900D01*
X595356D01*
X621717Y49539D01*
X621113Y48080D01*
X620802Y45720D01*
X621113Y43360D01*
X622024Y41161D01*
X623473Y39273D01*
X625361Y37824D01*
X627560Y36913D01*
X629920Y36602D01*
X632280Y36913D01*
X634479Y37824D01*
X636367Y39273D01*
X637816Y41161D01*
X638727Y43360D01*
X639038Y45720D01*
X638727Y48080D01*
X637816Y50279D01*
X636367Y52167D01*
X634479Y53616D01*
X632280Y54527D01*
X629920Y54838D01*
X627560Y54527D01*
X626101Y53923D01*
X598832Y81192D01*
X597826Y81864D01*
D01*
X597826D01*
X597829Y81889D01*
X597830Y81900D01*
X614756D01*
X647117Y49539D01*
X646513Y48080D01*
X646202Y45720D01*
X646513Y43360D01*
X647424Y41161D01*
X648873Y39273D01*
X650761Y37824D01*
X652960Y36913D01*
X655320Y36602D01*
X657680Y36913D01*
X659879Y37824D01*
X661767Y39273D01*
X663216Y41161D01*
X664127Y43360D01*
X664438Y45720D01*
X664127Y48080D01*
X663216Y50279D01*
X661767Y52167D01*
X659879Y53616D01*
X657680Y54527D01*
X655320Y54838D01*
X652960Y54527D01*
X651501Y53923D01*
X618232Y87192D01*
X617226Y87864D01*
X616040Y88100D01*
X616841Y88900D01*
X633156D01*
X672517Y49539D01*
X671913Y48080D01*
X671602Y45720D01*
X671913Y43360D01*
X672824Y41161D01*
X674273Y39273D01*
X676161Y37824D01*
X678360Y36913D01*
X680720Y36602D01*
X683080Y36913D01*
X685279Y37824D01*
X687167Y39273D01*
X688616Y41161D01*
X689527Y43360D01*
X689838Y45720D01*
X689527Y48080D01*
X688616Y50279D01*
X687167Y52167D01*
X685279Y53616D01*
X683080Y54527D01*
X680720Y54838D01*
X678360Y54527D01*
X676901Y53923D01*
X636632Y94192D01*
X635626Y94864D01*
X634440Y95100D01*
X524284D01*
X515192Y104192D01*
X514186Y104864D01*
X513000Y105100D01*
X433284D01*
X422148Y116236D01*
X423218Y117838D01*
X423648Y120000D01*
X423218Y122162D01*
X421994Y123994D01*
X420161Y125218D01*
X418000Y125648D01*
D02*
G37*
G36*
X675396Y98730D02*
X671270D01*
Y94604D01*
X672162Y94781D01*
X673994Y96006D01*
X675219Y97838D01*
X675396Y98730D01*
D02*
G37*
G36*
X334730Y100396D02*
X333838Y100218D01*
X332006Y98994D01*
X330781Y97162D01*
X330604Y96270D01*
X334730D01*
Y100396D01*
D02*
G37*
G36*
X337270D02*
Y96270D01*
X341396D01*
X341218Y97162D01*
X339994Y98994D01*
X338162Y100218D01*
X337270Y100396D01*
D02*
G37*
G36*
X598396Y109730D02*
X594270D01*
Y105604D01*
X595162Y105781D01*
X596994Y107006D01*
X598219Y108838D01*
X598396Y109730D01*
D02*
G37*
G36*
X641730Y111730D02*
X637604D01*
X637781Y110838D01*
X639006Y109006D01*
X640838Y107781D01*
X641730Y107604D01*
Y111730D01*
D02*
G37*
G36*
X648396D02*
X644270D01*
Y107604D01*
X645162Y107781D01*
X646994Y109006D01*
X648219Y110838D01*
X648396Y111730D01*
D02*
G37*
G36*
X591730Y109730D02*
X587604D01*
X587781Y108838D01*
X589006Y107006D01*
X590838Y105781D01*
X591730Y105604D01*
Y109730D01*
D02*
G37*
G36*
X671270Y105396D02*
Y101270D01*
X675396D01*
X675219Y102162D01*
X673994Y103994D01*
X672162Y105219D01*
X671270Y105396D01*
D02*
G37*
G36*
X753900Y119007D02*
X751438Y118764D01*
X747848Y117676D01*
X744541Y115908D01*
X741641Y113528D01*
X739262Y110629D01*
X737494Y107322D01*
X736405Y103733D01*
X736163Y101270D01*
X753900D01*
Y119007D01*
D02*
G37*
G36*
X756440D02*
Y101270D01*
X774177D01*
X773934Y103733D01*
X772846Y107322D01*
X771078Y110629D01*
X768698Y113528D01*
X765799Y115908D01*
X762492Y117676D01*
X758903Y118764D01*
X756440Y119007D01*
D02*
G37*
G36*
X774177Y98730D02*
X756440D01*
Y80993D01*
X758903Y81236D01*
X762492Y82324D01*
X765799Y84092D01*
X768698Y86472D01*
X771078Y89371D01*
X772846Y92678D01*
X773934Y96267D01*
X774177Y98730D01*
D02*
G37*
G36*
X355730Y85396D02*
X354838Y85218D01*
X353006Y83994D01*
X351781Y82162D01*
X351604Y81270D01*
X355730D01*
Y85396D01*
D02*
G37*
G36*
X358270D02*
Y81270D01*
X362396D01*
X362219Y82162D01*
X360994Y83994D01*
X359162Y85218D01*
X358270Y85396D01*
D02*
G37*
G36*
X753900Y98730D02*
X736163D01*
X736405Y96267D01*
X737494Y92678D01*
X739262Y89371D01*
X741641Y86472D01*
X744541Y84092D01*
X747848Y82324D01*
X751438Y81236D01*
X753900Y80993D01*
Y98730D01*
D02*
G37*
G36*
X362396Y78730D02*
X358270D01*
Y74604D01*
X359162Y74781D01*
X360994Y76006D01*
X362219Y77838D01*
X362396Y78730D01*
D02*
G37*
G36*
X691730Y81730D02*
X687604D01*
X687782Y80838D01*
X689006Y79006D01*
X690838Y77782D01*
X691730Y77604D01*
Y81730D01*
D02*
G37*
G36*
X698396D02*
X694270D01*
Y77604D01*
X695162Y77782D01*
X696994Y79006D01*
X698219Y80838D01*
X698396Y81730D01*
D02*
G37*
G36*
X278730Y96730D02*
X274604D01*
X274781Y95838D01*
X276006Y94006D01*
X277838Y92781D01*
X278730Y92604D01*
Y96730D01*
D02*
G37*
G36*
X285396D02*
X281270D01*
Y92604D01*
X282162Y92781D01*
X283994Y94006D01*
X285219Y95838D01*
X285396Y96730D01*
D02*
G37*
G36*
X668730Y98730D02*
X664604D01*
X664781Y97838D01*
X666006Y96006D01*
X667838Y94781D01*
X668730Y94604D01*
Y98730D01*
D02*
G37*
G36*
X341396Y93730D02*
X337270D01*
Y89604D01*
X338162Y89781D01*
X339994Y91006D01*
X341218Y92838D01*
X341396Y93730D01*
D02*
G37*
G36*
X691730Y88396D02*
X690838Y88219D01*
X689006Y86994D01*
X687782Y85162D01*
X687604Y84270D01*
X691730D01*
Y88396D01*
D02*
G37*
G36*
X694270D02*
Y84270D01*
X698396D01*
X698219Y85162D01*
X696994Y86994D01*
X695162Y88219D01*
X694270Y88396D01*
D02*
G37*
G36*
X334730Y93730D02*
X330604D01*
X330781Y92838D01*
X332006Y91006D01*
X333838Y89781D01*
X334730Y89604D01*
Y93730D01*
D02*
G37*
G36*
X753900Y214257D02*
X751438Y214014D01*
X747848Y212926D01*
X744541Y211158D01*
X741641Y208778D01*
X739262Y205879D01*
X737494Y202572D01*
X736405Y198983D01*
X736163Y196520D01*
X753900D01*
Y214257D01*
D02*
G37*
G36*
X608396Y306730D02*
X604270D01*
Y302604D01*
X605162Y302781D01*
X606994Y304006D01*
X608218Y305838D01*
X608396Y306730D01*
D02*
G37*
G36*
X650730Y309730D02*
X646604D01*
X646781Y308838D01*
X648006Y307006D01*
X649838Y305781D01*
X650730Y305604D01*
Y309730D01*
D02*
G37*
G36*
X657396D02*
X653270D01*
Y305604D01*
X654162Y305781D01*
X655994Y307006D01*
X657218Y308838D01*
X657396Y309730D01*
D02*
G37*
G36*
X601730Y306730D02*
X597604D01*
X597781Y305838D01*
X599006Y304006D01*
X600838Y302781D01*
X601730Y302604D01*
Y306730D01*
D02*
G37*
G36*
X634396Y303730D02*
X630270D01*
Y299604D01*
X631162Y299781D01*
X632994Y301006D01*
X634219Y302838D01*
X634396Y303730D01*
D02*
G37*
G36*
X260730Y306396D02*
X259838Y306219D01*
X258006Y304994D01*
X256782Y303162D01*
X256604Y302270D01*
X260730D01*
Y306396D01*
D02*
G37*
G36*
X263270D02*
Y302270D01*
X267396D01*
X267219Y303162D01*
X265994Y304994D01*
X264162Y306219D01*
X263270Y306396D01*
D02*
G37*
G36*
X601730Y313396D02*
X600838Y313219D01*
X599006Y311994D01*
X597781Y310162D01*
X597604Y309270D01*
X601730D01*
Y313396D01*
D02*
G37*
G36*
X604270D02*
Y309270D01*
X608396D01*
X608218Y310162D01*
X606994Y311994D01*
X605162Y313219D01*
X604270Y313396D01*
D02*
G37*
G36*
X650730Y316396D02*
X649838Y316218D01*
X648006Y314994D01*
X646781Y313162D01*
X646604Y312270D01*
X650730D01*
Y316396D01*
D02*
G37*
G36*
X705730Y311730D02*
X701604D01*
X701781Y310838D01*
X703006Y309006D01*
X704838Y307782D01*
X705730Y307604D01*
Y311730D01*
D02*
G37*
G36*
X579270Y310396D02*
Y306270D01*
X583396D01*
X583219Y307162D01*
X581994Y308994D01*
X580162Y310219D01*
X579270Y310396D01*
D02*
G37*
G36*
X627730D02*
X626838Y310219D01*
X625006Y308994D01*
X623782Y307162D01*
X623604Y306270D01*
X627730D01*
Y310396D01*
D02*
G37*
G36*
X630270D02*
Y306270D01*
X634396D01*
X634219Y307162D01*
X632994Y308994D01*
X631162Y310219D01*
X630270Y310396D01*
D02*
G37*
G36*
X705730Y293730D02*
X701604D01*
X701781Y292838D01*
X703006Y291006D01*
X704838Y289781D01*
X705730Y289604D01*
Y293730D01*
D02*
G37*
G36*
X655730Y296396D02*
X654838Y296219D01*
X653006Y294994D01*
X651781Y293162D01*
X651604Y292270D01*
X655730D01*
Y296396D01*
D02*
G37*
G36*
X658270D02*
Y292270D01*
X662396D01*
X662219Y293162D01*
X660994Y294994D01*
X659162Y296219D01*
X658270Y296396D01*
D02*
G37*
G36*
X628270Y293396D02*
Y289270D01*
X632396D01*
X632219Y290162D01*
X630994Y291994D01*
X629162Y293219D01*
X628270Y293396D01*
D02*
G37*
G36*
X564730Y292730D02*
X560604D01*
X560782Y291838D01*
X562006Y290006D01*
X563838Y288781D01*
X564730Y288604D01*
Y292730D01*
D02*
G37*
G36*
X571396D02*
X567270D01*
Y288604D01*
X568162Y288781D01*
X569994Y290006D01*
X571219Y291838D01*
X571396Y292730D01*
D02*
G37*
G36*
X625730Y293396D02*
X624838Y293219D01*
X623006Y291994D01*
X621781Y290162D01*
X621604Y289270D01*
X625730D01*
Y293396D01*
D02*
G37*
G36*
X576730Y303730D02*
X572604D01*
X572781Y302838D01*
X574006Y301006D01*
X575838Y299781D01*
X576730Y299604D01*
Y303730D01*
D02*
G37*
G36*
X583396D02*
X579270D01*
Y299604D01*
X580162Y299781D01*
X581994Y301006D01*
X583219Y302838D01*
X583396Y303730D01*
D02*
G37*
G36*
X627730D02*
X623604D01*
X623782Y302838D01*
X625006Y301006D01*
X626838Y299781D01*
X627730Y299604D01*
Y303730D01*
D02*
G37*
G36*
X705730Y300396D02*
X704838Y300219D01*
X703006Y298994D01*
X701781Y297162D01*
X701604Y296270D01*
X705730D01*
Y300396D01*
D02*
G37*
G36*
X753900Y312047D02*
X751438Y311805D01*
X747848Y310716D01*
X744541Y308948D01*
X741641Y306568D01*
X739262Y303669D01*
X737494Y300362D01*
X736405Y296772D01*
X736163Y294310D01*
X753900D01*
Y312047D01*
D02*
G37*
G36*
X756440D02*
Y294310D01*
X774177D01*
X773934Y296772D01*
X772846Y300362D01*
X771078Y303669D01*
X768698Y306568D01*
X765799Y308948D01*
X762492Y310716D01*
X758903Y311805D01*
X756440Y312047D01*
D02*
G37*
G36*
X567270Y299396D02*
Y295270D01*
X571396D01*
X571219Y296162D01*
X569994Y297994D01*
X568162Y299219D01*
X567270Y299396D01*
D02*
G37*
G36*
X653270Y316396D02*
Y312270D01*
X657396D01*
X657218Y313162D01*
X655994Y314994D01*
X654162Y316218D01*
X653270Y316396D01*
D02*
G37*
G36*
X270270Y328396D02*
Y324270D01*
X274396D01*
X274219Y325162D01*
X272994Y326994D01*
X271162Y328218D01*
X270270Y328396D01*
D02*
G37*
G36*
X290730Y329396D02*
X289838Y329219D01*
X288006Y327994D01*
X286781Y326162D01*
X286604Y325270D01*
X290730D01*
Y329396D01*
D02*
G37*
G36*
X293270D02*
Y325270D01*
X297396D01*
X297219Y326162D01*
X295994Y327994D01*
X294162Y329219D01*
X293270Y329396D01*
D02*
G37*
G36*
X267730Y328396D02*
X266838Y328218D01*
X265006Y326994D01*
X263781Y325162D01*
X263604Y324270D01*
X267730D01*
Y328396D01*
D02*
G37*
G36*
X503270Y325396D02*
Y321270D01*
X507396D01*
X507219Y322162D01*
X505994Y323994D01*
X504162Y325219D01*
X503270Y325396D01*
D02*
G37*
G36*
X198730Y326396D02*
X197838Y326218D01*
X196006Y324994D01*
X194781Y323162D01*
X194604Y322270D01*
X198730D01*
Y326396D01*
D02*
G37*
G36*
X201270D02*
Y322270D01*
X205396D01*
X205219Y323162D01*
X203994Y324994D01*
X202162Y326218D01*
X201270Y326396D01*
D02*
G37*
G36*
X489730Y359730D02*
X485604D01*
X485782Y358838D01*
X487006Y357006D01*
X488838Y355781D01*
X489730Y355604D01*
Y359730D01*
D02*
G37*
G36*
Y366396D02*
X488838Y366218D01*
X487006Y364994D01*
X485782Y363162D01*
X485604Y362270D01*
X489730D01*
Y366396D01*
D02*
G37*
G36*
X492270D02*
Y362270D01*
X496396D01*
X496219Y363162D01*
X494994Y364994D01*
X493162Y366218D01*
X492270Y366396D01*
D02*
G37*
G36*
X25000Y382625D02*
X21562Y382286D01*
X18255Y381283D01*
X15208Y379655D01*
X12537Y377463D01*
X10345Y374792D01*
X8717Y371745D01*
X7714Y368438D01*
X7375Y365000D01*
X7714Y361562D01*
X8717Y358255D01*
X10345Y355208D01*
X12537Y352537D01*
X15208Y350345D01*
X18255Y348717D01*
X21562Y347714D01*
X25000Y347375D01*
X28438Y347714D01*
X31745Y348717D01*
X34792Y350345D01*
X37463Y352537D01*
X39655Y355208D01*
X41283Y358255D01*
X42286Y361562D01*
X42625Y365000D01*
X42286Y368438D01*
X41283Y371745D01*
X39655Y374792D01*
X37463Y377463D01*
X34792Y379655D01*
X31745Y381283D01*
X28438Y382286D01*
X25000Y382625D01*
D02*
G37*
G36*
X614680Y364718D02*
X612320Y364407D01*
X610121Y363496D01*
X608233Y362047D01*
X606784Y360159D01*
X605873Y357960D01*
X605562Y355600D01*
X605873Y353240D01*
X606784Y351041D01*
X608233Y349153D01*
X610121Y347704D01*
X612320Y346793D01*
X614680Y346482D01*
X617040Y346793D01*
X619239Y347704D01*
X621127Y349153D01*
X622576Y351041D01*
X623487Y353240D01*
X623798Y355600D01*
X623487Y357960D01*
X622576Y360159D01*
X621127Y362047D01*
X619239Y363496D01*
X617040Y364407D01*
X614680Y364718D01*
D02*
G37*
G36*
X665480D02*
X663120Y364407D01*
X660921Y363496D01*
X659033Y362047D01*
X657584Y360159D01*
X656673Y357960D01*
X656362Y355600D01*
X656673Y353240D01*
X657584Y351041D01*
X659033Y349153D01*
X660921Y347704D01*
X663120Y346793D01*
X665480Y346482D01*
X667840Y346793D01*
X670039Y347704D01*
X671927Y349153D01*
X673376Y351041D01*
X674287Y353240D01*
X674598Y355600D01*
X674287Y357960D01*
X673376Y360159D01*
X671927Y362047D01*
X670039Y363496D01*
X667840Y364407D01*
X665480Y364718D01*
D02*
G37*
G36*
X690880D02*
X688520Y364407D01*
X686321Y363496D01*
X684433Y362047D01*
X682984Y360159D01*
X682073Y357960D01*
X681762Y355600D01*
X682073Y353240D01*
X682984Y351041D01*
X684433Y349153D01*
X686321Y347704D01*
X688520Y346793D01*
X690880Y346482D01*
X693240Y346793D01*
X695439Y347704D01*
X697327Y349153D01*
X698776Y351041D01*
X699687Y353240D01*
X699998Y355600D01*
X699687Y357960D01*
X698776Y360159D01*
X697327Y362047D01*
X695439Y363496D01*
X693240Y364407D01*
X690880Y364718D01*
D02*
G37*
G36*
X507396Y318730D02*
X503270D01*
Y314604D01*
X504162Y314781D01*
X505994Y316006D01*
X507219Y317838D01*
X507396Y318730D01*
D02*
G37*
G36*
X198730Y319730D02*
X194604D01*
X194781Y318838D01*
X196006Y317006D01*
X197838Y315781D01*
X198730Y315604D01*
Y319730D01*
D02*
G37*
G36*
X205396D02*
X201270D01*
Y315604D01*
X202162Y315781D01*
X203994Y317006D01*
X205219Y318838D01*
X205396Y319730D01*
D02*
G37*
G36*
X500730Y318730D02*
X496604D01*
X496782Y317838D01*
X498006Y316006D01*
X499838Y314781D01*
X500730Y314604D01*
Y318730D01*
D02*
G37*
G36*
X237730Y316730D02*
X233604D01*
X233781Y315838D01*
X235006Y314006D01*
X236838Y312781D01*
X237730Y312604D01*
Y316730D01*
D02*
G37*
G36*
X244396D02*
X240270D01*
Y312604D01*
X241162Y312781D01*
X242994Y314006D01*
X244219Y315838D01*
X244396Y316730D01*
D02*
G37*
G36*
X705730Y318396D02*
X704838Y318219D01*
X703006Y316994D01*
X701781Y315162D01*
X701604Y314270D01*
X705730D01*
Y318396D01*
D02*
G37*
G36*
X237730Y323396D02*
X236838Y323219D01*
X235006Y321994D01*
X233781Y320162D01*
X233604Y319270D01*
X237730D01*
Y323396D01*
D02*
G37*
G36*
X240270D02*
Y319270D01*
X244396D01*
X244219Y320162D01*
X242994Y321994D01*
X241162Y323219D01*
X240270Y323396D01*
D02*
G37*
G36*
X500730Y325396D02*
X499838Y325219D01*
X498006Y323994D01*
X496782Y322162D01*
X496604Y321270D01*
X500730D01*
Y325396D01*
D02*
G37*
G36*
X297396Y322730D02*
X293270D01*
Y318604D01*
X294162Y318782D01*
X295994Y320006D01*
X297219Y321838D01*
X297396Y322730D01*
D02*
G37*
G36*
X267730Y321730D02*
X263604D01*
X263781Y320838D01*
X265006Y319006D01*
X266838Y317781D01*
X267730Y317604D01*
Y321730D01*
D02*
G37*
G36*
X274396D02*
X270270D01*
Y317604D01*
X271162Y317781D01*
X272994Y319006D01*
X274219Y320838D01*
X274396Y321730D01*
D02*
G37*
G36*
X290730Y322730D02*
X286604D01*
X286781Y321838D01*
X288006Y320006D01*
X289838Y318782D01*
X290730Y318604D01*
Y322730D01*
D02*
G37*
G36*
X605270Y292396D02*
Y288270D01*
X609396D01*
X609219Y289162D01*
X607994Y290994D01*
X606162Y292219D01*
X605270Y292396D01*
D02*
G37*
G36*
X524270Y245396D02*
Y241270D01*
X528396D01*
X528219Y242162D01*
X526994Y243994D01*
X525162Y245219D01*
X524270Y245396D01*
D02*
G37*
G36*
X139730Y248429D02*
X139293Y248372D01*
X137702Y247713D01*
X136336Y246664D01*
X135287Y245298D01*
X134628Y243707D01*
X134571Y243270D01*
X139730D01*
Y248429D01*
D02*
G37*
G36*
X142270D02*
Y243270D01*
X147429D01*
X147372Y243707D01*
X146713Y245298D01*
X145664Y246664D01*
X144298Y247713D01*
X142707Y248372D01*
X142270Y248429D01*
D02*
G37*
G36*
X521730Y245396D02*
X520838Y245219D01*
X519006Y243994D01*
X517781Y242162D01*
X517604Y241270D01*
X521730D01*
Y245396D01*
D02*
G37*
G36*
X147429Y240730D02*
X142270D01*
Y235571D01*
X142707Y235628D01*
X144298Y236287D01*
X145664Y237336D01*
X146713Y238702D01*
X147372Y240293D01*
X147429Y240730D01*
D02*
G37*
G36*
X188730Y245396D02*
X187838Y245219D01*
X186006Y243994D01*
X184781Y242162D01*
X184604Y241270D01*
X188730D01*
Y245396D01*
D02*
G37*
G36*
X191270D02*
Y241270D01*
X195396D01*
X195219Y242162D01*
X193994Y243994D01*
X192162Y245219D01*
X191270Y245396D01*
D02*
G37*
G36*
X238770Y257896D02*
Y253770D01*
X242896D01*
X242719Y254662D01*
X241494Y256494D01*
X239662Y257719D01*
X238770Y257896D01*
D02*
G37*
G36*
X705730Y260396D02*
X704838Y260219D01*
X703006Y258994D01*
X701781Y257162D01*
X701604Y256270D01*
X705730D01*
Y260396D01*
D02*
G37*
G36*
X204730Y262730D02*
X200604D01*
X200781Y261838D01*
X202006Y260006D01*
X203838Y258781D01*
X204730Y258604D01*
Y262730D01*
D02*
G37*
G36*
X236230Y257896D02*
X235338Y257719D01*
X233506Y256494D01*
X232281Y254662D01*
X232104Y253770D01*
X236230D01*
Y257896D01*
D02*
G37*
G36*
Y251230D02*
X232104D01*
X232281Y250338D01*
X233506Y248506D01*
X235338Y247281D01*
X236230Y247104D01*
Y251230D01*
D02*
G37*
G36*
X242896D02*
X238770D01*
Y247104D01*
X239662Y247281D01*
X241494Y248506D01*
X242719Y250338D01*
X242896Y251230D01*
D02*
G37*
G36*
X705730Y253730D02*
X701604D01*
X701781Y252838D01*
X703006Y251006D01*
X704838Y249781D01*
X705730Y249604D01*
Y253730D01*
D02*
G37*
G36*
X619396Y213730D02*
X615270D01*
Y209604D01*
X616162Y209781D01*
X617994Y211006D01*
X619218Y212838D01*
X619396Y213730D01*
D02*
G37*
G36*
X641730Y216396D02*
X640838Y216219D01*
X639006Y214994D01*
X637781Y213162D01*
X637604Y212270D01*
X641730D01*
Y216396D01*
D02*
G37*
G36*
X644270D02*
Y212270D01*
X648396D01*
X648219Y213162D01*
X646994Y214994D01*
X645162Y216219D01*
X644270Y216396D01*
D02*
G37*
G36*
X612730Y213730D02*
X608604D01*
X608781Y212838D01*
X610006Y211006D01*
X611838Y209781D01*
X612730Y209604D01*
Y213730D01*
D02*
G37*
G36*
X756440Y214257D02*
Y196520D01*
X774177D01*
X773934Y198983D01*
X772846Y202572D01*
X771078Y205879D01*
X768698Y208778D01*
X765799Y211158D01*
X762492Y212926D01*
X758903Y214014D01*
X756440Y214257D01*
D02*
G37*
G36*
X641730Y209730D02*
X637604D01*
X637781Y208838D01*
X639006Y207006D01*
X640838Y205781D01*
X641730Y205604D01*
Y209730D01*
D02*
G37*
G36*
X648396D02*
X644270D01*
Y205604D01*
X645162Y205781D01*
X646994Y207006D01*
X648219Y208838D01*
X648396Y209730D01*
D02*
G37*
G36*
X521730Y238730D02*
X517604D01*
X517781Y237838D01*
X519006Y236006D01*
X520838Y234781D01*
X521730Y234604D01*
Y238730D01*
D02*
G37*
G36*
X528396D02*
X524270D01*
Y234604D01*
X525162Y234781D01*
X526994Y236006D01*
X528219Y237838D01*
X528396Y238730D01*
D02*
G37*
G36*
X139730Y240730D02*
X134571D01*
X134628Y240293D01*
X135287Y238702D01*
X136336Y237336D01*
X137702Y236287D01*
X139293Y235628D01*
X139730Y235571D01*
Y240730D01*
D02*
G37*
G36*
X195396Y238730D02*
X191270D01*
Y234604D01*
X192162Y234781D01*
X193994Y236006D01*
X195219Y237838D01*
X195396Y238730D01*
D02*
G37*
G36*
X612730Y220396D02*
X611838Y220219D01*
X610006Y218994D01*
X608781Y217162D01*
X608604Y216270D01*
X612730D01*
Y220396D01*
D02*
G37*
G36*
X615270D02*
Y216270D01*
X619396D01*
X619218Y217162D01*
X617994Y218994D01*
X616162Y220219D01*
X615270Y220396D01*
D02*
G37*
G36*
X188730Y238730D02*
X184604D01*
X184781Y237838D01*
X186006Y236006D01*
X187838Y234781D01*
X188730Y234604D01*
Y238730D01*
D02*
G37*
G36*
X211396Y262730D02*
X207270D01*
Y258604D01*
X208162Y258781D01*
X209994Y260006D01*
X211219Y261838D01*
X211396Y262730D01*
D02*
G37*
G36*
X581270Y285396D02*
Y281270D01*
X585396D01*
X585219Y282162D01*
X583994Y283994D01*
X582162Y285219D01*
X581270Y285396D01*
D02*
G37*
G36*
X602730Y285730D02*
X598604D01*
X598782Y284838D01*
X600006Y283006D01*
X601838Y281782D01*
X602730Y281604D01*
Y285730D01*
D02*
G37*
G36*
X609396D02*
X605270D01*
Y281604D01*
X606162Y281782D01*
X607994Y283006D01*
X609219Y284838D01*
X609396Y285730D01*
D02*
G37*
G36*
X578730Y285396D02*
X577838Y285219D01*
X576006Y283994D01*
X574781Y282162D01*
X574604Y281270D01*
X578730D01*
Y285396D01*
D02*
G37*
G36*
X705730Y279396D02*
X704838Y279219D01*
X703006Y277994D01*
X701781Y276162D01*
X701604Y275270D01*
X705730D01*
Y279396D01*
D02*
G37*
G36*
X514730Y284396D02*
X513838Y284219D01*
X512006Y282994D01*
X510782Y281162D01*
X510604Y280270D01*
X514730D01*
Y284396D01*
D02*
G37*
G36*
X517270D02*
Y280270D01*
X521396D01*
X521219Y281162D01*
X519994Y282994D01*
X518162Y284219D01*
X517270Y284396D01*
D02*
G37*
G36*
X197000Y310648D02*
X194838Y310219D01*
X193006Y308994D01*
X191782Y307162D01*
X191352Y305000D01*
X191782Y302838D01*
X193006Y301006D01*
X194838Y299781D01*
X197000Y299352D01*
X198889Y299727D01*
X208808Y289808D01*
X209814Y289136D01*
X211000Y288900D01*
X259920D01*
X260288Y287685D01*
X258506Y286494D01*
X257281Y284662D01*
X256852Y282500D01*
X257061Y281445D01*
X250308Y274692D01*
X249636Y273686D01*
X249400Y272500D01*
Y257092D01*
X248506Y256494D01*
X247281Y254662D01*
X246852Y252500D01*
X247281Y250338D01*
X248506Y248506D01*
X250338Y247281D01*
X252331Y246885D01*
Y245615D01*
X250338Y245219D01*
X248506Y243994D01*
X247281Y242162D01*
X246852Y240000D01*
X247281Y237838D01*
X248506Y236006D01*
X250338Y234781D01*
X252500Y234352D01*
X254662Y234781D01*
X256494Y236006D01*
X257092Y236900D01*
X258000D01*
X259186Y237136D01*
X260192Y237808D01*
X271192Y248808D01*
X271864Y249814D01*
X272100Y251000D01*
X272100Y251000D01*
X272100Y251000D01*
Y251000D01*
Y266408D01*
X272994Y267006D01*
X274219Y268838D01*
X274648Y271000D01*
X274219Y273162D01*
X272994Y274994D01*
X271162Y276218D01*
X269000Y276649D01*
X266838Y276218D01*
X265006Y274994D01*
X263781Y273162D01*
X263351Y271000D01*
X263781Y268838D01*
X265006Y267006D01*
X265900Y266408D01*
Y252284D01*
X257511Y243894D01*
X256494Y243994D01*
X254662Y245219D01*
X252669Y245615D01*
Y246885D01*
X254662Y247281D01*
X256494Y248506D01*
X257719Y250338D01*
X258148Y252500D01*
X257719Y254662D01*
X256494Y256494D01*
X255600Y257092D01*
Y271216D01*
X261445Y277061D01*
X262500Y276852D01*
X264662Y277281D01*
X266494Y278506D01*
X267719Y280338D01*
X268148Y282500D01*
X267719Y284662D01*
X266494Y286494D01*
X264712Y287685D01*
X265080Y288900D01*
X267408D01*
X268006Y288006D01*
X269838Y286781D01*
X272000Y286352D01*
X274162Y286781D01*
X275994Y288006D01*
X277218Y289838D01*
X277649Y292000D01*
X277218Y294162D01*
X275994Y295994D01*
X274162Y297219D01*
X272000Y297649D01*
X269838Y297219D01*
X268006Y295994D01*
X267408Y295100D01*
X265329D01*
X264960Y296315D01*
X265994Y297006D01*
X267219Y298838D01*
X267396Y299730D01*
X256604D01*
X256782Y298838D01*
X258006Y297006D01*
X259040Y296315D01*
X258671Y295100D01*
X212284D01*
X202605Y304779D01*
X202649Y305000D01*
X202219Y307162D01*
X200994Y308994D01*
X199162Y310219D01*
X197000Y310648D01*
D02*
G37*
G36*
X640080Y364718D02*
X637720Y364407D01*
X635521Y363496D01*
X633633Y362047D01*
X632184Y360159D01*
X631273Y357960D01*
X630962Y355600D01*
X631273Y353240D01*
X632184Y351041D01*
X633633Y349153D01*
X635521Y347704D01*
X636980Y347099D01*
Y290364D01*
X633707Y287090D01*
X632587Y287689D01*
X632396Y286730D01*
X628270D01*
Y282604D01*
X627312Y282413D01*
X627910Y281293D01*
X625716Y279100D01*
X599592D01*
X598994Y279994D01*
X597162Y281219D01*
X595000Y281649D01*
X592838Y281219D01*
X591006Y279994D01*
X589781Y278162D01*
X589352Y276000D01*
X589781Y273838D01*
X591006Y272006D01*
X592838Y270781D01*
X595000Y270352D01*
X597162Y270781D01*
X598994Y272006D01*
X599592Y272900D01*
X627000D01*
X628186Y273136D01*
X629192Y273808D01*
X640080Y284697D01*
X650900Y273876D01*
Y190592D01*
X650006Y189994D01*
X648781Y188162D01*
X648352Y186000D01*
X648781Y183838D01*
X650006Y182006D01*
X651838Y180781D01*
X654000Y180352D01*
X656162Y180781D01*
X657994Y182006D01*
X659219Y183838D01*
X659649Y186000D01*
X659219Y188162D01*
X657994Y189994D01*
X657100Y190592D01*
Y275160D01*
X656864Y276346D01*
X656192Y277352D01*
X643180Y290364D01*
Y347099D01*
X644639Y347704D01*
X646527Y349153D01*
X647976Y351041D01*
X648887Y353240D01*
X649198Y355600D01*
X648887Y357960D01*
X647976Y360159D01*
X646527Y362047D01*
X644639Y363496D01*
X642440Y364407D01*
X640080Y364718D01*
D02*
G37*
G36*
X602730Y292396D02*
X601838Y292219D01*
X600006Y290994D01*
X598782Y289162D01*
X598604Y288270D01*
X602730D01*
Y292396D01*
D02*
G37*
G36*
X662396Y289730D02*
X658270D01*
Y285604D01*
X659162Y285781D01*
X660994Y287006D01*
X662219Y288838D01*
X662396Y289730D01*
D02*
G37*
G36*
X625730Y286730D02*
X621604D01*
X621781Y285838D01*
X623006Y284006D01*
X624838Y282782D01*
X625730Y282604D01*
Y286730D01*
D02*
G37*
G36*
X526000Y295648D02*
X523838Y295219D01*
X522006Y293994D01*
X520781Y292162D01*
X520351Y290000D01*
X520781Y287838D01*
X522006Y286006D01*
X523838Y284781D01*
X526000Y284352D01*
X528162Y284781D01*
X529994Y286006D01*
X530592Y286900D01*
X553716D01*
X556057Y284559D01*
X555701Y284125D01*
X555701Y284125D01*
X555252Y283577D01*
X553899Y284481D01*
X551737Y284911D01*
X549576Y284481D01*
X547743Y283257D01*
X546519Y281425D01*
X546089Y279263D01*
X546519Y277101D01*
X547743Y275269D01*
X549576Y274044D01*
X551737Y273614D01*
X552792Y273824D01*
X576561Y250055D01*
X576352Y249000D01*
X576781Y246838D01*
X578006Y245006D01*
X579838Y243782D01*
X582000Y243351D01*
X584162Y243782D01*
X585994Y245006D01*
X587219Y246838D01*
X587649Y249000D01*
X587219Y251162D01*
X585994Y252994D01*
X584162Y254219D01*
X582000Y254648D01*
X580945Y254439D01*
X557176Y278208D01*
X557386Y279263D01*
X556956Y281425D01*
X556052Y282778D01*
X556599Y283227D01*
X556599Y283227D01*
X557033Y283583D01*
X584808Y255808D01*
X585814Y255136D01*
X587000Y254900D01*
X602716D01*
X606561Y251055D01*
X606352Y250000D01*
X606781Y247838D01*
X608006Y246006D01*
X609838Y244781D01*
X612000Y244352D01*
X614162Y244781D01*
X615994Y246006D01*
X617219Y247838D01*
X617649Y250000D01*
X617219Y252162D01*
X615994Y253994D01*
X614162Y255219D01*
X612000Y255648D01*
X610945Y255439D01*
X606192Y260192D01*
X605186Y260864D01*
X604000Y261100D01*
X588284D01*
X557192Y292192D01*
X556186Y292864D01*
X555000Y293100D01*
X530592D01*
X529994Y293994D01*
X528162Y295219D01*
X526000Y295648D01*
D02*
G37*
G36*
X655730Y289730D02*
X651604D01*
X651781Y288838D01*
X653006Y287006D01*
X654838Y285781D01*
X655730Y285604D01*
Y289730D01*
D02*
G37*
G36*
X631730Y271396D02*
X630838Y271219D01*
X629006Y269994D01*
X627781Y268162D01*
X627604Y267270D01*
X631730D01*
Y271396D01*
D02*
G37*
G36*
X634270D02*
Y267270D01*
X638396D01*
X638219Y268162D01*
X636994Y269994D01*
X635162Y271219D01*
X634270Y271396D01*
D02*
G37*
G36*
X705730Y272730D02*
X701604D01*
X701781Y271838D01*
X703006Y270006D01*
X704838Y268782D01*
X705730Y268604D01*
Y272730D01*
D02*
G37*
G36*
X207270Y269396D02*
Y265270D01*
X211396D01*
X211219Y266162D01*
X209994Y267994D01*
X208162Y269219D01*
X207270Y269396D01*
D02*
G37*
G36*
X631730Y264730D02*
X627604D01*
X627781Y263838D01*
X629006Y262006D01*
X630838Y260781D01*
X631730Y260604D01*
Y264730D01*
D02*
G37*
G36*
X638396D02*
X634270D01*
Y260604D01*
X635162Y260781D01*
X636994Y262006D01*
X638219Y263838D01*
X638396Y264730D01*
D02*
G37*
G36*
X204730Y269396D02*
X203838Y269219D01*
X202006Y267994D01*
X200781Y266162D01*
X200604Y265270D01*
X204730D01*
Y269396D01*
D02*
G37*
G36*
X774177Y291770D02*
X756440D01*
Y274033D01*
X758903Y274275D01*
X762492Y275364D01*
X765799Y277132D01*
X768698Y279512D01*
X771078Y282411D01*
X772846Y285718D01*
X773934Y289307D01*
X774177Y291770D01*
D02*
G37*
G36*
X578730Y278730D02*
X574604D01*
X574781Y277838D01*
X576006Y276006D01*
X577838Y274781D01*
X578730Y274604D01*
Y278730D01*
D02*
G37*
G36*
X585396D02*
X581270D01*
Y274604D01*
X582162Y274781D01*
X583994Y276006D01*
X585219Y277838D01*
X585396Y278730D01*
D02*
G37*
G36*
X753900Y291770D02*
X736163D01*
X736405Y289307D01*
X737494Y285718D01*
X739262Y282411D01*
X741641Y279512D01*
X744541Y277132D01*
X747848Y275364D01*
X751438Y274275D01*
X753900Y274033D01*
Y291770D01*
D02*
G37*
G36*
X514730Y277730D02*
X510604D01*
X510782Y276838D01*
X512006Y275006D01*
X513838Y273781D01*
X514730Y273604D01*
Y277730D01*
D02*
G37*
G36*
X521396D02*
X517270D01*
Y273604D01*
X518162Y273781D01*
X519994Y275006D01*
X521219Y276838D01*
X521396Y277730D01*
D02*
G37*
G36*
X30000Y312172D02*
X26267Y311805D01*
X22678Y310716D01*
X19371Y308948D01*
X16472Y306568D01*
X14092Y303669D01*
X12324Y300362D01*
X11236Y296772D01*
X10868Y293040D01*
X11236Y289307D01*
X12324Y285718D01*
X14092Y282411D01*
X16472Y279512D01*
X19371Y277132D01*
X22678Y275364D01*
X26267Y274275D01*
X30000Y273908D01*
X33733Y274275D01*
X37322Y275364D01*
X40629Y277132D01*
X43528Y279512D01*
X45908Y282411D01*
X47676Y285718D01*
X48765Y289307D01*
X49132Y293040D01*
X48765Y296772D01*
X47676Y300362D01*
X45908Y303669D01*
X43528Y306568D01*
X40629Y308948D01*
X37322Y310716D01*
X33733Y311805D01*
X30000Y312172D01*
D02*
G37*
%LPD*%
D29*
X643786Y135213D02*
X646000Y133000D01*
X566213Y135213D02*
X643786D01*
X211000Y292000D02*
X222000D01*
X198000Y305000D02*
X211000Y292000D01*
X197000Y305000D02*
X198000D01*
X546410Y115230D02*
Y132730D01*
X269720Y68220D02*
Y77780D01*
X220000Y127500D02*
X269720Y77780D01*
X220000Y127500D02*
Y130000D01*
X252500Y240000D02*
X255000D01*
X252500Y272500D02*
X262500Y282500D01*
X252500Y252500D02*
Y272500D01*
X142360Y156800D02*
Y182200D01*
X133560Y191000D02*
X142360Y182200D01*
X128000Y191000D02*
X133560D01*
X252500Y240000D02*
X258000D01*
X269000Y251000D01*
Y271000D01*
X222000Y292000D02*
X272000D01*
X276000Y230000D02*
X309000D01*
X410000Y331000D01*
X475000D01*
X499600Y355600D01*
X513080D01*
X276000Y210000D02*
X298000D01*
X413000Y325000D01*
X479000D01*
X494000Y340000D01*
X522880D01*
X538480Y355600D01*
X276000Y190000D02*
X288000D01*
X416000Y318000D01*
X483000D01*
X498000Y333000D01*
X541280D01*
X563880Y355600D01*
X270000Y145000D02*
Y146000D01*
X562000Y231000D02*
Y248000D01*
X339000Y115000D02*
Y120000D01*
Y115000D02*
X367000Y87000D01*
Y59000D02*
Y87000D01*
Y59000D02*
X418000Y8000D01*
X507000D01*
X358000Y111000D02*
Y120000D01*
Y111000D02*
X388000Y81000D01*
X378000Y114000D02*
Y120000D01*
Y114000D02*
X404000Y88000D01*
X398000Y120000D02*
X398000D01*
X423000Y95000D01*
X418000Y116000D02*
Y120000D01*
Y116000D02*
X432000Y102000D01*
X457000Y130000D02*
Y140000D01*
X388000Y81000D02*
X498000D01*
X507000Y72000D01*
X578240D01*
X604520Y45720D01*
X404000Y88000D02*
X503000D01*
X512000Y79000D01*
X596640D01*
X629920Y45720D01*
X423000Y95000D02*
X509000D01*
X519000Y85000D01*
X616040D01*
X655320Y45720D01*
X432000Y102000D02*
X513000D01*
X523000Y92000D01*
X634440D01*
X680720Y45720D01*
X457000Y122000D02*
Y130000D01*
Y122000D02*
X467000Y112000D01*
X517000D01*
X529000Y100000D01*
X651840D01*
X706120Y45720D01*
X627000Y276000D02*
X640080Y289080D01*
Y355600D01*
X595000Y276000D02*
X627000D01*
X551737Y279263D02*
X582000Y249000D01*
X526000Y290000D02*
X555000D01*
X587000Y258000D01*
X604000D01*
X612000Y250000D01*
X654000Y186000D02*
Y275160D01*
X640080Y289080D02*
X654000Y275160D01*
X505000Y229794D02*
Y286000D01*
X522000Y303000D01*
X562000D01*
X589280Y330280D01*
Y355600D01*
X503992Y208008D02*
Y210992D01*
Y208008D02*
X509000Y203000D01*
X618000D01*
X640000Y181000D02*
X650000Y171000D01*
X674000D01*
X716280Y213280D02*
Y355600D01*
X510000Y189916D02*
X620084D01*
X646000Y164000D01*
X674000Y171000D02*
X701000D01*
X716280Y186280D01*
Y213280D01*
X646000Y164000D02*
X704000D01*
X724000Y184000D01*
Y337920D01*
X741680Y355600D01*
X618000Y203000D02*
X640000Y181000D01*
D30*
X320520Y45720D02*
Y94480D01*
X295000Y120000D02*
X320520Y94480D01*
X270000Y145000D02*
X295000Y120000D01*
X215000Y145000D02*
X270000D01*
X205000D02*
X215000D01*
X244320Y24320D02*
Y45720D01*
X230000Y10000D02*
X244320Y24320D01*
X65000Y10000D02*
X230000D01*
X30000Y45000D02*
X65000Y10000D01*
X30000Y45000D02*
Y100000D01*
X546000Y215000D02*
X562000Y231000D01*
X270000Y146000D02*
X344000Y220000D01*
X541000D01*
X546000Y215000D01*
X562000Y231000D02*
X617000D01*
X639000Y253000D01*
D32*
X541000Y220000D02*
X551000D01*
D33*
X627000Y276000D02*
X627110Y276110D01*
X488160Y66040D02*
X492960D01*
X498000Y61000D01*
X541000D01*
X553720Y48280D01*
Y45720D02*
Y48280D01*
D34*
X755000Y25001D02*
D03*
X25000Y365000D02*
D03*
D35*
X218920Y45720D02*
D03*
X386560Y66040D02*
D03*
X528320Y45720D02*
D03*
X513080Y355600D02*
D03*
D36*
X244320Y45720D02*
D03*
X269720D02*
D03*
X295120D02*
D03*
X320520D02*
D03*
X345920D02*
D03*
X488160Y66040D02*
D03*
X462760D02*
D03*
X437360D02*
D03*
X411960D02*
D03*
X706120Y45720D02*
D03*
X680720D02*
D03*
X655320D02*
D03*
X629920D02*
D03*
X604520D02*
D03*
X579120D02*
D03*
X553720D02*
D03*
X538480Y355600D02*
D03*
X589280D02*
D03*
X614680D02*
D03*
X640080D02*
D03*
X665480D02*
D03*
X690880D02*
D03*
X716280D02*
D03*
X741680D02*
D03*
X563880D02*
D03*
D37*
X755170Y195250D02*
D03*
X30000D02*
D03*
Y100000D02*
D03*
X755170D02*
D03*
Y293040D02*
D03*
X30000D02*
D03*
D38*
X646000Y133000D02*
D03*
X566213Y135213D02*
D03*
X566000Y294000D02*
D03*
X578000Y305000D02*
D03*
X604000Y287000D02*
D03*
X627000Y288000D02*
D03*
X629000Y305000D02*
D03*
X642000Y192000D02*
D03*
X507000Y27000D02*
D03*
X693000Y83000D02*
D03*
X670000Y100000D02*
D03*
X702000Y150000D02*
D03*
X643000Y113000D02*
D03*
X642000Y151000D02*
D03*
X657000Y291000D02*
D03*
X652000Y311000D02*
D03*
X603000Y308000D02*
D03*
X580000Y280000D02*
D03*
X491000Y361000D02*
D03*
X502000Y320000D02*
D03*
X292000Y324000D02*
D03*
X269000Y323000D02*
D03*
X200000Y321000D02*
D03*
X239000Y318000D02*
D03*
X206000Y264000D02*
D03*
X197000Y305000D02*
D03*
X357000Y80000D02*
D03*
X336000Y95000D02*
D03*
X366000Y22000D02*
D03*
Y38000D02*
D03*
X546410Y132730D02*
D03*
Y115230D02*
D03*
X269720Y68220D02*
D03*
X220000Y130000D02*
D03*
X245000Y160000D02*
D03*
X252500Y240000D02*
D03*
X262500Y282500D02*
D03*
X252500Y252500D02*
D03*
X237500D02*
D03*
X295000Y120000D02*
D03*
X215000Y145000D02*
D03*
X205000D02*
D03*
X190000Y160000D02*
D03*
Y175000D02*
D03*
X185000Y190000D02*
D03*
X190000Y240000D02*
D03*
X269000Y271000D02*
D03*
X262000Y301000D02*
D03*
X272000Y292000D02*
D03*
X276000Y190000D02*
D03*
Y210000D02*
D03*
Y230000D02*
D03*
X566000Y117000D02*
D03*
X562000Y248000D02*
D03*
X546000Y215000D02*
D03*
X503992Y210992D02*
D03*
X510000Y189916D02*
D03*
X339000Y120000D02*
D03*
X358000D02*
D03*
X378000D02*
D03*
X398000D02*
D03*
X418000D02*
D03*
X457000Y140000D02*
D03*
X595000Y276000D02*
D03*
X507000Y8000D02*
D03*
X582000Y249000D02*
D03*
X551737Y279263D02*
D03*
X612000Y250000D02*
D03*
X516000Y279000D02*
D03*
X523000Y240000D02*
D03*
X654000Y186000D02*
D03*
X526000Y290000D02*
D03*
X505000Y229794D02*
D03*
X640000Y253000D02*
D03*
X707000Y255000D02*
D03*
Y274000D02*
D03*
Y295000D02*
D03*
Y313000D02*
D03*
X633000Y266000D02*
D03*
X643000Y211000D02*
D03*
X614000Y215000D02*
D03*
X613000Y149000D02*
D03*
X593000Y111000D02*
D03*
X481000Y142000D02*
D03*
X502000D02*
D03*
X509000Y158000D02*
D03*
X280000Y98000D02*
D03*
D39*
X128000Y191000D02*
D03*
D40*
X141000Y242000D02*
D03*
X142360Y156800D02*
D03*
M02*
