%FSLAX44Y44*%
%MOMM*%
G71*
G01*
G75*
G04 Layer_Color=8388736*
%ADD10R,1.3000X2.1000*%
%ADD11O,2.0000X1.0000*%
%ADD12O,4.0000X1.0000*%
%ADD13R,0.6500X0.9000*%
%ADD14R,2.0000X2.0000*%
%ADD15O,1.0000X3.0000*%
%ADD16R,0.9000X0.6500*%
%ADD17R,1.3000X0.9000*%
%ADD18O,1.0000X2.0000*%
%ADD19R,0.9000X1.3000*%
%ADD20R,1.9000X4.0000*%
%ADD21R,1.3000X4.5000*%
%ADD22R,0.6500X1.1000*%
%ADD23R,1.0000X1.0000*%
%ADD24R,0.6000X1.5000*%
%ADD25R,1.4000X0.6000*%
%ADD26P,2.0566X8X112.5*%
%ADD27R,1.3970X2.5400*%
%ADD28R,2.5400X1.1430*%
%ADD29C,0.3000*%
%ADD30C,0.6000*%
%ADD31C,0.4000*%
%ADD32C,0.5000*%
%ADD33C,0.2000*%
%ADD34C,3.0000*%
%ADD35R,1.5000X1.5000*%
%ADD36C,1.5000*%
%ADD37C,3.5000*%
%ADD38C,0.8000*%
%ADD39C,0.7000*%
%ADD40C,1.0000*%
%ADD41C,0.2500*%
%ADD42C,0.1000*%
%ADD43C,0.2540*%
%ADD44C,0.0127*%
%ADD45C,0.1500*%
%ADD46R,1.5032X2.3032*%
%ADD47O,2.2032X1.2032*%
%ADD48O,4.2032X1.2032*%
%ADD49R,0.8532X1.1032*%
%ADD50R,2.2032X2.2032*%
%ADD51O,1.2032X3.2032*%
%ADD52R,1.1032X0.8532*%
%ADD53R,1.5032X1.1032*%
%ADD54O,1.2032X2.2032*%
%ADD55R,1.1032X1.5032*%
%ADD56R,2.1032X4.2032*%
%ADD57R,1.5032X4.7032*%
%ADD58R,0.8532X1.3032*%
%ADD59R,1.2032X1.2032*%
%ADD60R,0.8032X1.7032*%
%ADD61R,1.6032X0.8032*%
%ADD62P,2.2765X8X112.5*%
%ADD63R,1.6002X2.7432*%
%ADD64R,2.7432X1.3462*%
%ADD65C,3.2032*%
%ADD66R,1.7032X1.7032*%
%ADD67C,1.7032*%
%ADD68C,3.7032*%
D46*
X287310Y138900D02*
D03*
X315560D02*
D03*
D47*
X483000Y170000D02*
D03*
Y190000D02*
D03*
Y210000D02*
D03*
Y230000D02*
D03*
Y250000D02*
D03*
Y270000D02*
D03*
Y290000D02*
D03*
X295000Y170000D02*
D03*
Y190000D02*
D03*
Y210000D02*
D03*
X295312Y229796D02*
D03*
Y249796D02*
D03*
Y269796D02*
D03*
Y289984D02*
D03*
X483000Y309812D02*
D03*
X295312Y309796D02*
D03*
D48*
X449000Y170000D02*
D03*
Y190000D02*
D03*
Y210000D02*
D03*
Y230000D02*
D03*
Y250000D02*
D03*
Y270000D02*
D03*
X449134Y289804D02*
D03*
Y309804D02*
D03*
X327000Y170000D02*
D03*
Y190000D02*
D03*
Y210000D02*
D03*
Y230000D02*
D03*
Y250000D02*
D03*
Y270000D02*
D03*
Y290000D02*
D03*
X327044Y309812D02*
D03*
D49*
X722090Y89730D02*
D03*
X722340Y108230D02*
D03*
X603050Y180790D02*
D03*
X602800Y162290D02*
D03*
X546410Y167730D02*
D03*
X546660Y186230D02*
D03*
X526090Y167730D02*
D03*
X526340Y186230D02*
D03*
X265150Y111450D02*
D03*
X265400Y129950D02*
D03*
X248890Y111530D02*
D03*
X249140Y130030D02*
D03*
X233650Y111530D02*
D03*
X233900Y130030D02*
D03*
X547730Y229690D02*
D03*
X547980Y248190D02*
D03*
X139110Y203610D02*
D03*
X139360Y222110D02*
D03*
X159350Y155710D02*
D03*
X159100Y137210D02*
D03*
X159350Y236990D02*
D03*
X159100Y218490D02*
D03*
D50*
X740484Y137160D02*
D03*
X665480D02*
D03*
D51*
X666079Y340600D02*
D03*
X615279D02*
D03*
X690281Y370600D02*
D03*
X639481D02*
D03*
X588681D02*
D03*
X564479Y340600D02*
D03*
X537881Y370600D02*
D03*
X513679Y340600D02*
D03*
X681319Y30720D02*
D03*
X528919D02*
D03*
X554319Y60720D02*
D03*
X579719Y30720D02*
D03*
X605119Y60720D02*
D03*
X630519Y30720D02*
D03*
X655919Y60720D02*
D03*
X345920D02*
D03*
X320520Y30720D02*
D03*
X295120Y60720D02*
D03*
X269720Y30720D02*
D03*
X244320Y60720D02*
D03*
X218920Y30720D02*
D03*
X706719Y60720D02*
D03*
X665600Y192600D02*
D03*
X691000D02*
D03*
X665600Y248000D02*
D03*
X691000D02*
D03*
X553720Y30720D02*
D03*
X604520D02*
D03*
X655320D02*
D03*
X706120D02*
D03*
X244320D02*
D03*
X295120D02*
D03*
X345920D02*
D03*
X538480Y340600D02*
D03*
X589280D02*
D03*
X640080D02*
D03*
X690880D02*
D03*
X716280D02*
D03*
X741680D02*
D03*
Y370600D02*
D03*
X716280D02*
D03*
X665480D02*
D03*
X614680D02*
D03*
X563880D02*
D03*
X513080D02*
D03*
X528320Y60720D02*
D03*
X579120D02*
D03*
X629920D02*
D03*
X680720D02*
D03*
X320520D02*
D03*
X218920D02*
D03*
X269720D02*
D03*
D52*
X534750Y213250D02*
D03*
X516250Y213500D02*
D03*
X126030Y160130D02*
D03*
X107530Y160380D02*
D03*
X126030Y175370D02*
D03*
X107530Y175620D02*
D03*
X110790Y240490D02*
D03*
X92290Y240740D02*
D03*
D53*
X183700Y275810D02*
D03*
Y295310D02*
D03*
X163380Y275810D02*
D03*
Y295310D02*
D03*
D54*
X216560Y291040D02*
D03*
X241960D02*
D03*
X488160Y86040D02*
D03*
X462760D02*
D03*
X437360D02*
D03*
X411960D02*
D03*
X386560D02*
D03*
D55*
X208530Y159460D02*
D03*
X228030D02*
D03*
X207650Y234900D02*
D03*
X227150D02*
D03*
D56*
X172280Y381000D02*
D03*
X81280D02*
D03*
X81720Y20320D02*
D03*
X172720D02*
D03*
D57*
X139280Y313000D02*
D03*
X114280D02*
D03*
X114720Y88320D02*
D03*
X139720D02*
D03*
D58*
X116300Y195600D02*
D03*
X97300D02*
D03*
Y219600D02*
D03*
X106800D02*
D03*
X116300D02*
D03*
D59*
X157600Y202280D02*
D03*
Y187280D02*
D03*
Y172280D02*
D03*
D60*
X585400Y181220D02*
D03*
X566400D02*
D03*
X575900Y162220D02*
D03*
X566400Y207940D02*
D03*
X585400D02*
D03*
X575900Y226940D02*
D03*
D61*
X209240Y210760D02*
D03*
Y195760D02*
D03*
Y180760D02*
D03*
D62*
X236240Y195760D02*
D03*
D63*
X339118Y142276D02*
D03*
X358930D02*
D03*
X378742D02*
D03*
X399062D02*
D03*
X418874D02*
D03*
X439194D02*
D03*
D64*
X311178Y170104D02*
D03*
Y190170D02*
D03*
Y209982D02*
D03*
Y229794D02*
D03*
Y250114D02*
D03*
Y269926D02*
D03*
X467388Y169850D02*
D03*
Y189916D02*
D03*
Y209728D02*
D03*
X467134Y229794D02*
D03*
Y249860D02*
D03*
Y269672D02*
D03*
Y289992D02*
D03*
X311178D02*
D03*
Y309804D02*
D03*
X467134D02*
D03*
D65*
X755000Y25001D02*
D03*
X25000Y365000D02*
D03*
D66*
X218920Y45720D02*
D03*
X386560Y66040D02*
D03*
X528320Y45720D02*
D03*
X513080Y355600D02*
D03*
D67*
X244320Y45720D02*
D03*
X269720D02*
D03*
X295120D02*
D03*
X320520D02*
D03*
X345920D02*
D03*
X488160Y66040D02*
D03*
X462760D02*
D03*
X437360D02*
D03*
X411960D02*
D03*
X706120Y45720D02*
D03*
X680720D02*
D03*
X655320D02*
D03*
X629920D02*
D03*
X604520D02*
D03*
X579120D02*
D03*
X553720D02*
D03*
X538480Y355600D02*
D03*
X589280D02*
D03*
X614680D02*
D03*
X640080D02*
D03*
X665480D02*
D03*
X690880D02*
D03*
X716280D02*
D03*
X741680D02*
D03*
X563880D02*
D03*
D68*
X755170Y195250D02*
D03*
X30000D02*
D03*
Y100000D02*
D03*
X755170D02*
D03*
Y293040D02*
D03*
X30000D02*
D03*
M02*
