%FSLAX44Y44*%
%MOMM*%
G71*
G01*
G75*
G04 Layer_Color=65535*
%ADD10R,1.3000X2.1000*%
%ADD11O,2.0000X1.0000*%
%ADD12O,4.0000X1.0000*%
%ADD13R,0.6500X0.9000*%
%ADD14R,2.0000X2.0000*%
%ADD15O,1.0000X3.0000*%
%ADD16R,0.9000X0.6500*%
%ADD17R,1.3000X0.9000*%
%ADD18O,1.0000X2.0000*%
%ADD19R,0.9000X1.3000*%
%ADD20R,1.9000X4.0000*%
%ADD21R,1.3000X4.5000*%
%ADD22R,0.6500X1.1000*%
%ADD23R,1.0000X1.0000*%
%ADD24R,0.6000X1.5000*%
%ADD25R,1.4000X0.6000*%
%ADD26P,2.0566X8X112.5*%
%ADD27R,1.3970X2.5400*%
%ADD28R,2.5400X1.1430*%
%ADD29C,0.3000*%
%ADD30C,0.6000*%
%ADD31C,0.4000*%
%ADD32C,0.5000*%
%ADD33C,0.2000*%
%ADD34C,3.0000*%
%ADD35R,1.5000X1.5000*%
%ADD36C,1.5000*%
%ADD37C,3.5000*%
%ADD38C,0.8000*%
%ADD39C,0.7000*%
%ADD40C,1.0000*%
%ADD41C,0.2500*%
%ADD42C,0.1000*%
%ADD43C,0.2540*%
%ADD44C,0.0127*%
%ADD45C,0.1500*%
D29*
X676480Y122160D02*
X728980D01*
X676480Y152160D02*
X728480D01*
D33*
X297240Y150890D02*
X305240D01*
X297240Y126890D02*
X305240D01*
X718960Y96510D02*
Y100510D01*
X725960Y96510D02*
Y100510D01*
X606180Y170010D02*
Y174010D01*
X599180Y170010D02*
Y174010D01*
X543280Y174510D02*
Y178510D01*
X550280Y174510D02*
Y178510D01*
X522960Y174510D02*
Y178510D01*
X529960Y174510D02*
Y178510D01*
X262020Y118230D02*
Y122230D01*
X269020Y118230D02*
Y122230D01*
X245760Y118310D02*
Y122310D01*
X252760Y118310D02*
Y122310D01*
X230520Y118310D02*
Y122310D01*
X237520Y118310D02*
Y122310D01*
X523970Y210120D02*
X527970D01*
X523970Y217120D02*
X527970D01*
X544600Y236470D02*
Y240470D01*
X551600Y236470D02*
Y240470D01*
X180080Y283530D02*
Y287530D01*
X187080Y283530D02*
Y287530D01*
X159760Y283530D02*
Y287530D01*
X166760Y283530D02*
Y287530D01*
X205000Y275000D02*
X210000D01*
X205000D02*
Y310000D01*
X255000D01*
Y275000D02*
Y310000D01*
X210000Y275000D02*
X255000D01*
X358620Y33020D02*
Y58420D01*
X206220Y33020D02*
Y58420D01*
X358620D01*
X206220Y33020D02*
X358620D01*
X373860Y53340D02*
X500860D01*
X492393Y6773D02*
Y40640D01*
X488160Y2540D02*
X492393Y6773D01*
X483927D02*
X488160Y2540D01*
X483927Y6773D02*
Y40640D01*
X466993Y6773D02*
Y40640D01*
X462760Y2540D02*
X466993Y6773D01*
X458527D02*
X462760Y2540D01*
X458527Y6773D02*
Y40640D01*
X441593Y6773D02*
Y40640D01*
X437360Y2540D02*
X441593Y6773D01*
X433127D02*
X437360Y2540D01*
X433127Y6773D02*
Y40640D01*
X416193Y6773D02*
Y40640D01*
X411960Y2540D02*
X416193Y6773D01*
X407727D02*
X411960Y2540D01*
X407727Y6773D02*
Y40640D01*
X390793Y6773D02*
Y40640D01*
X386560Y2540D02*
X390793Y6773D01*
X382327D02*
X386560Y2540D01*
X382327Y6773D02*
Y40640D01*
X373860D02*
Y53340D01*
Y40640D02*
X500860D01*
Y53340D01*
X216250Y163080D02*
X220250D01*
X216250Y156080D02*
X220250D01*
X215370Y238520D02*
X219370D01*
X215370Y231520D02*
X219370D01*
X63280Y399000D02*
X67280D01*
X63280Y312000D02*
Y399000D01*
Y312000D02*
X64280Y311000D01*
X99280D01*
X96280Y399000D02*
X157280D01*
X186280D02*
X191280D01*
Y311000D02*
Y399000D01*
X153280Y311000D02*
X191280D01*
X91300Y205100D02*
X122300D01*
X91300Y210100D02*
X122300D01*
X91300Y205100D02*
Y210100D01*
X122300Y205100D02*
Y210100D01*
X135980Y210390D02*
Y214390D01*
X142980Y210390D02*
Y214390D01*
X115250Y157000D02*
X119250D01*
X115250Y164000D02*
X119250D01*
X115250Y172240D02*
X119250D01*
X115250Y179240D02*
X119250D01*
X100010Y237360D02*
X104010D01*
X100010Y244360D02*
X104010D01*
X162480Y144930D02*
Y148930D01*
X155480Y144930D02*
Y148930D01*
X162480Y226210D02*
Y230210D01*
X155480Y226210D02*
Y230210D01*
X186720Y2320D02*
X190720D01*
Y89320D01*
X189720Y90320D02*
X190720Y89320D01*
X154720Y90320D02*
X189720D01*
X96720Y2320D02*
X157720D01*
X62720D02*
X67720D01*
X62720D02*
Y90320D01*
X100720D01*
X590900Y164720D02*
Y169720D01*
X582900Y164720D02*
X590900D01*
X560900D02*
Y169720D01*
Y164720D02*
X568900D01*
X560900Y219440D02*
Y224440D01*
X568900D01*
X590900Y219440D02*
Y224440D01*
X582900D02*
X590900D01*
X214240Y218760D02*
X240240D01*
Y209260D02*
Y218760D01*
X214240Y172760D02*
X240240D01*
Y182260D01*
X515620Y58420D02*
X718820D01*
X515620Y33020D02*
Y58420D01*
Y33020D02*
X718820D01*
Y58420D01*
X652900Y194900D02*
X703700D01*
Y245700D01*
X652900D02*
X703700D01*
X652900Y194900D02*
Y245700D01*
X754380Y342900D02*
Y368300D01*
X500380Y342900D02*
X754380D01*
X500380D02*
Y368300D01*
X519430D01*
X754380D01*
X407003Y214664D02*
Y208000D01*
X417000D01*
Y214664D01*
X412002Y208000D02*
Y211332D01*
X408669Y224661D02*
X407003Y222995D01*
Y219663D01*
X408669Y217997D01*
X410336D01*
X412002Y219663D01*
Y222995D01*
X413668Y224661D01*
X415334D01*
X417000Y222995D01*
Y219663D01*
X415334Y217997D01*
X417000Y227994D02*
X407003D01*
Y232992D01*
X408669Y234658D01*
X412002D01*
X413668Y232992D01*
Y227994D01*
X412002Y237990D02*
Y244655D01*
X417000Y247987D02*
Y251319D01*
Y249653D01*
X407003D01*
X408669Y247987D01*
X417000Y262982D02*
Y256318D01*
X410336Y262982D01*
X408669D01*
X407003Y261316D01*
Y257984D01*
X408669Y256318D01*
X407003Y272979D02*
Y266315D01*
X417000D01*
Y272979D01*
X412002Y266315D02*
Y269647D01*
X387003Y183664D02*
Y177000D01*
X397000D01*
Y183664D01*
X392002Y177000D02*
Y180332D01*
X388669Y193661D02*
X387003Y191995D01*
Y188663D01*
X388669Y186997D01*
X390336D01*
X392002Y188663D01*
Y191995D01*
X393668Y193661D01*
X395334D01*
X397000Y191995D01*
Y188663D01*
X395334Y186997D01*
X397000Y196994D02*
X387003D01*
Y201992D01*
X388669Y203658D01*
X392002D01*
X393668Y201992D01*
Y196994D01*
X392002Y206990D02*
Y213655D01*
X388669Y216987D02*
X387003Y218653D01*
Y221985D01*
X388669Y223652D01*
X395334D01*
X397000Y221985D01*
Y218653D01*
X395334Y216987D01*
X388669D01*
X387003Y226984D02*
Y233648D01*
X388669D01*
X395334Y226984D01*
X397000D01*
Y246978D02*
X390336Y253642D01*
X387003Y273636D02*
Y266971D01*
X397000D01*
Y273636D01*
X392002Y266971D02*
Y270303D01*
X388669Y283632D02*
X387003Y281966D01*
Y278634D01*
X388669Y276968D01*
X390336D01*
X392002Y278634D01*
Y281966D01*
X393668Y283632D01*
X395334D01*
X397000Y281966D01*
Y278634D01*
X395334Y276968D01*
X397000Y286965D02*
X387003D01*
Y291963D01*
X388669Y293629D01*
X392002D01*
X393668Y291963D01*
Y286965D01*
X392002Y296961D02*
Y303626D01*
X397000Y306958D02*
Y310290D01*
Y308624D01*
X387003D01*
X388669Y306958D01*
X397000Y321953D02*
Y315289D01*
X390336Y321953D01*
X388669D01*
X387003Y320287D01*
Y316955D01*
X388669Y315289D01*
X359005Y204997D02*
Y195000D01*
X374000D01*
Y204997D01*
X366502Y195000D02*
Y199998D01*
X361504Y219992D02*
X359005Y217493D01*
Y212494D01*
X361504Y209995D01*
X364003D01*
X366502Y212494D01*
Y217493D01*
X369002Y219992D01*
X371501D01*
X374000Y217493D01*
Y212494D01*
X371501Y209995D01*
X374000Y224990D02*
X359005D01*
Y232488D01*
X361504Y234987D01*
X366502D01*
X369002Y232488D01*
Y224990D01*
X361504Y239985D02*
X359005Y242485D01*
Y247483D01*
X361504Y249982D01*
X364003D01*
X366502Y247483D01*
X369002Y249982D01*
X371501D01*
X374000Y247483D01*
Y242485D01*
X371501Y239985D01*
X369002D01*
X366502Y242485D01*
X364003Y239985D01*
X361504D01*
X366502Y242485D02*
Y247483D01*
X374000Y264977D02*
Y254981D01*
X364003Y264977D01*
X361504D01*
X359005Y262478D01*
Y257480D01*
X361504Y254981D01*
X359005Y279972D02*
X361504Y274974D01*
X366502Y269976D01*
X371501D01*
X374000Y272475D01*
Y277473D01*
X371501Y279972D01*
X369002D01*
X366502Y277473D01*
Y269976D01*
X359005Y294968D02*
X361504Y289969D01*
X366502Y284971D01*
X371501D01*
X374000Y287470D01*
Y292468D01*
X371501Y294968D01*
X369002D01*
X366502Y292468D01*
Y284971D01*
X204664Y394997D02*
X198000D01*
Y385000D01*
X204664D01*
X198000Y389998D02*
X201332D01*
X214661Y393331D02*
X212995Y394997D01*
X209663D01*
X207997Y393331D01*
Y391665D01*
X209663Y389998D01*
X212995D01*
X214661Y388332D01*
Y386666D01*
X212995Y385000D01*
X209663D01*
X207997Y386666D01*
X217994Y385000D02*
Y394997D01*
X222992D01*
X224658Y393331D01*
Y389998D01*
X222992Y388332D01*
X217994D01*
X227990Y393331D02*
X229657Y394997D01*
X232989D01*
X234655Y393331D01*
Y391665D01*
X232989Y389998D01*
X234655Y388332D01*
Y386666D01*
X232989Y385000D01*
X229657D01*
X227990Y386666D01*
Y388332D01*
X229657Y389998D01*
X227990Y391665D01*
Y393331D01*
X229657Y389998D02*
X232989D01*
X244652Y385000D02*
X237987D01*
X244652Y391665D01*
Y393331D01*
X242985Y394997D01*
X239653D01*
X237987Y393331D01*
X254648Y394997D02*
X251316Y393331D01*
X247984Y389998D01*
Y386666D01*
X249650Y385000D01*
X252982D01*
X254648Y386666D01*
Y388332D01*
X252982Y389998D01*
X247984D01*
X264645Y394997D02*
X261313Y393331D01*
X257981Y389998D01*
Y386666D01*
X259647Y385000D01*
X262979D01*
X264645Y386666D01*
Y388332D01*
X262979Y389998D01*
X257981D01*
X277974Y394997D02*
X281306D01*
X279640D01*
Y385000D01*
X277974D01*
X281306D01*
X287971D02*
X291303D01*
X292969Y386666D01*
Y389998D01*
X291303Y391665D01*
X287971D01*
X286305Y389998D01*
Y386666D01*
X287971Y385000D01*
X296302Y394997D02*
X302966D01*
X299634D01*
Y385000D01*
X198000Y370000D02*
Y379997D01*
X204664Y370000D01*
Y379997D01*
X209663Y370000D02*
X212995D01*
X214661Y371666D01*
Y374998D01*
X212995Y376665D01*
X209663D01*
X207997Y374998D01*
Y371666D01*
X209663Y370000D01*
X224658Y379997D02*
Y370000D01*
X219660D01*
X217994Y371666D01*
Y374998D01*
X219660Y376665D01*
X224658D01*
X229657Y370000D02*
X232989D01*
X234655Y371666D01*
Y374998D01*
X232989Y376665D01*
X229657D01*
X227990Y374998D01*
Y371666D01*
X229657Y370000D01*
X247984Y376665D02*
X251316Y370000D01*
X254648Y376665D01*
X264645Y370000D02*
X257981D01*
X264645Y376665D01*
Y378331D01*
X262979Y379997D01*
X259647D01*
X257981Y378331D01*
X267978Y376665D02*
Y370000D01*
Y373332D01*
X269644Y374998D01*
X271310Y376665D01*
X272976D01*
X282973Y370000D02*
X279640D01*
X277974Y371666D01*
Y374998D01*
X279640Y376665D01*
X282973D01*
X284639Y374998D01*
Y373332D01*
X277974D01*
X287971Y376665D02*
X291303Y370000D01*
X294636Y376665D01*
X297968Y379997D02*
Y370000D01*
X302966D01*
X304632Y371666D01*
Y373332D01*
X302966Y374998D01*
X297968D01*
X302966D01*
X304632Y376665D01*
Y378331D01*
X302966Y379997D01*
X297968D01*
D41*
X126300Y219600D02*
G03*
X126300Y219600I-1250J0D01*
G01*
X595150Y181220D02*
G03*
X595150Y181220I-1250J0D01*
G01*
X559150Y207940D02*
G03*
X559150Y207940I-1250J0D01*
G01*
X208990Y219260D02*
G03*
X208990Y219260I-1250J0D01*
G01*
D42*
X716090Y94480D02*
Y103480D01*
X609050Y167040D02*
Y176040D01*
X540410Y172480D02*
Y181480D01*
X520090Y172480D02*
Y181480D01*
X259150Y116200D02*
Y125200D01*
X242890Y116280D02*
Y125280D01*
X227650Y116280D02*
Y125280D01*
X521000Y207250D02*
X530000D01*
X541730Y234440D02*
Y243440D01*
X133110Y208360D02*
Y217360D01*
X112280Y154130D02*
X121280D01*
X112280Y169370D02*
X121280D01*
X97040Y234490D02*
X106040D01*
X165350Y141960D02*
Y150960D01*
Y223240D02*
Y232240D01*
X718500Y81000D02*
X724498D01*
Y78001D01*
X723498Y77001D01*
X721499D01*
X720499Y78001D01*
Y81000D01*
Y79001D02*
X718500Y77001D01*
Y75002D02*
Y73003D01*
Y74002D01*
X724498D01*
X723498Y75002D01*
Y70004D02*
X724498Y69004D01*
Y67005D01*
X723498Y66005D01*
X722499D01*
X721499Y67005D01*
Y68004D01*
Y67005D01*
X720499Y66005D01*
X719500D01*
X718500Y67005D01*
Y69004D01*
X719500Y70004D01*
X621000Y170000D02*
X615002D01*
Y172999D01*
X616002Y173999D01*
X618001D01*
X619001Y172999D01*
Y170000D01*
Y171999D02*
X621000Y173999D01*
Y175998D02*
Y177997D01*
Y176998D01*
X615002D01*
X616002Y175998D01*
X621000Y184995D02*
Y180996D01*
X617001Y184995D01*
X616002D01*
X615002Y183995D01*
Y181996D01*
X616002Y180996D01*
X542500Y159000D02*
X548498D01*
Y156001D01*
X547498Y155001D01*
X545499D01*
X544499Y156001D01*
Y159000D01*
Y157001D02*
X542500Y155001D01*
Y153002D02*
Y151003D01*
Y152002D01*
X548498D01*
X547498Y153002D01*
X542500Y148004D02*
Y146004D01*
Y147004D01*
X548498D01*
X547498Y148004D01*
X522500Y159000D02*
X528498D01*
Y156001D01*
X527498Y155001D01*
X525499D01*
X524499Y156001D01*
Y159000D01*
Y157001D02*
X522500Y155001D01*
Y153002D02*
Y151003D01*
Y152002D01*
X528498D01*
X527498Y153002D01*
Y148004D02*
X528498Y147004D01*
Y145005D01*
X527498Y144005D01*
X523500D01*
X522500Y145005D01*
Y147004D01*
X523500Y148004D01*
X527498D01*
X268738Y146561D02*
X269738Y147561D01*
Y149560D01*
X268738Y150560D01*
X264740D01*
X263740Y149560D01*
Y147561D01*
X264740Y146561D01*
X269738Y140563D02*
X268738Y142563D01*
X266739Y144562D01*
X264740D01*
X263740Y143562D01*
Y141563D01*
X264740Y140563D01*
X265739D01*
X266739Y141563D01*
Y144562D01*
X247480Y150640D02*
X253478D01*
Y147641D01*
X252478Y146641D01*
X250479D01*
X249479Y147641D01*
Y150640D01*
Y148641D02*
X247480Y146641D01*
X248480Y144642D02*
X247480Y143642D01*
Y141643D01*
X248480Y140643D01*
X252478D01*
X253478Y141643D01*
Y143642D01*
X252478Y144642D01*
X251479D01*
X250479Y143642D01*
Y140643D01*
X232240Y150640D02*
X238238D01*
Y147641D01*
X237238Y146641D01*
X235239D01*
X234239Y147641D01*
Y150640D01*
Y148641D02*
X232240Y146641D01*
X237238Y144642D02*
X238238Y143642D01*
Y141643D01*
X237238Y140643D01*
X236239D01*
X235239Y141643D01*
X234239Y140643D01*
X233240D01*
X232240Y141643D01*
Y143642D01*
X233240Y144642D01*
X234239D01*
X235239Y143642D01*
X236239Y144642D01*
X237238D01*
X235239Y143642D02*
Y141643D01*
X517440Y222640D02*
Y228638D01*
X520439D01*
X521439Y227638D01*
Y225639D01*
X520439Y224639D01*
X517440D01*
X519439D02*
X521439Y222640D01*
X523438Y228638D02*
X527437D01*
Y227638D01*
X523438Y223640D01*
Y222640D01*
X532060Y250660D02*
X538058D01*
Y247661D01*
X537058Y246661D01*
X535059D01*
X534059Y247661D01*
Y250660D01*
Y248661D02*
X532060Y246661D01*
X538058Y240663D02*
X537058Y242663D01*
X535059Y244662D01*
X533060D01*
X532060Y243662D01*
Y241663D01*
X533060Y240663D01*
X534059D01*
X535059Y241663D01*
Y244662D01*
X180000Y260000D02*
Y267997D01*
X183999D01*
X185332Y266665D01*
Y263999D01*
X183999Y262666D01*
X180000D01*
X182666D02*
X185332Y260000D01*
X193329Y267997D02*
X187997D01*
Y263999D01*
X190663Y265332D01*
X191996D01*
X193329Y263999D01*
Y261333D01*
X191996Y260000D01*
X189330D01*
X187997Y261333D01*
X160000Y260000D02*
Y267997D01*
X163999D01*
X165332Y266665D01*
Y263999D01*
X163999Y262666D01*
X160000D01*
X162666D02*
X165332Y260000D01*
X171996D02*
Y267997D01*
X167997Y263999D01*
X173329D01*
X317668Y116335D02*
X319001Y115003D01*
X321667D01*
X323000Y116335D01*
Y121667D01*
X321667Y123000D01*
X319001D01*
X317668Y121667D01*
X309671Y115003D02*
X315003D01*
Y119001D01*
X312337Y117668D01*
X311004D01*
X309671Y119001D01*
Y121667D01*
X311004Y123000D01*
X313670D01*
X315003Y121667D01*
X245172Y161824D02*
X243839Y163157D01*
X241173D01*
X239840Y161824D01*
Y156493D01*
X241173Y155160D01*
X243839D01*
X245172Y156493D01*
X247837Y161824D02*
X249170Y163157D01*
X251836D01*
X253169Y161824D01*
Y160492D01*
X251836Y159159D01*
X250503D01*
X251836D01*
X253169Y157826D01*
Y156493D01*
X251836Y155160D01*
X249170D01*
X247837Y156493D01*
X220332Y251665D02*
X218999Y252997D01*
X216333D01*
X215000Y251665D01*
Y246333D01*
X216333Y245000D01*
X218999D01*
X220332Y246333D01*
X226996Y245000D02*
Y252997D01*
X222997Y248999D01*
X228329D01*
X65000Y304997D02*
Y295000D01*
X69998D01*
X71665Y296666D01*
Y298332D01*
X69998Y299998D01*
X65000D01*
X69998D01*
X71665Y301665D01*
Y303331D01*
X69998Y304997D01*
X65000D01*
X76663Y301665D02*
X79995D01*
X81661Y299998D01*
Y295000D01*
X76663D01*
X74997Y296666D01*
X76663Y298332D01*
X81661D01*
X86660Y303331D02*
Y301665D01*
X84994D01*
X88326D01*
X86660D01*
Y296666D01*
X88326Y295000D01*
X83667Y200332D02*
X78335D01*
X77003Y198999D01*
Y196333D01*
X78335Y195000D01*
X83667D01*
X85000Y196333D01*
Y198999D01*
X82334Y197666D02*
X85000Y200332D01*
Y198999D02*
X83667Y200332D01*
X78335Y202997D02*
X77003Y204330D01*
Y206996D01*
X78335Y208329D01*
X79668D01*
X81001Y206996D01*
Y205663D01*
Y206996D01*
X82334Y208329D01*
X83667D01*
X85000Y206996D01*
Y204330D01*
X83667Y202997D01*
X135500Y192080D02*
X143497D01*
Y188081D01*
X142165Y186748D01*
X139499D01*
X138166Y188081D01*
Y192080D01*
Y189414D02*
X135500Y186748D01*
Y184083D02*
Y181417D01*
Y182750D01*
X143497D01*
X142165Y184083D01*
X86480Y164797D02*
Y156800D01*
X91812D01*
X94478D02*
X97143D01*
X95810D01*
Y164797D01*
X94478Y163465D01*
X91812Y178704D02*
X90479Y180037D01*
X87813D01*
X86480Y178704D01*
Y173373D01*
X87813Y172040D01*
X90479D01*
X91812Y173373D01*
X94478Y172040D02*
X97143D01*
X95810D01*
Y180037D01*
X94478Y178704D01*
X123336Y238332D02*
X122003Y236999D01*
Y234333D01*
X123336Y233000D01*
X128667D01*
X130000Y234333D01*
Y236999D01*
X128667Y238332D01*
X130000Y246329D02*
Y240997D01*
X124668Y246329D01*
X123336D01*
X122003Y244996D01*
Y242330D01*
X123336Y240997D01*
X150000Y131000D02*
X142003D01*
Y134999D01*
X143336Y136332D01*
X146001D01*
X147334Y134999D01*
Y131000D01*
Y133666D02*
X150000Y136332D01*
X143336Y138997D02*
X142003Y140330D01*
Y142996D01*
X143336Y144329D01*
X144668D01*
X146001Y142996D01*
Y141663D01*
Y142996D01*
X147334Y144329D01*
X148667D01*
X150000Y142996D01*
Y140330D01*
X148667Y138997D01*
X167760Y238080D02*
Y246077D01*
X171759D01*
X173092Y244744D01*
Y242079D01*
X171759Y240746D01*
X167760D01*
X170426D02*
X173092Y238080D01*
X181089D02*
X175758D01*
X181089Y243412D01*
Y244744D01*
X179756Y246077D01*
X177090D01*
X175758Y244744D01*
X190080Y96523D02*
Y103188D01*
X186748Y106520D01*
X183416Y103188D01*
Y96523D01*
X175085Y106520D02*
X178417D01*
X180083Y104854D01*
Y101522D01*
X178417Y99855D01*
X175085D01*
X173419Y101522D01*
Y103188D01*
X180083D01*
X170086Y99855D02*
X163422Y106520D01*
X166754Y103188D01*
X163422Y99855D01*
X170086Y106520D01*
X158424Y98189D02*
Y99855D01*
X160090D01*
X156757D01*
X158424D01*
Y104854D01*
X156757Y106520D01*
X587332Y142333D02*
Y147664D01*
X585999Y148997D01*
X583333D01*
X582000Y147664D01*
Y142333D01*
X583333Y141000D01*
X585999D01*
X584666Y143666D02*
X587332Y141000D01*
X585999D02*
X587332Y142333D01*
X595329Y141000D02*
X589997D01*
X595329Y146332D01*
Y147664D01*
X593996Y148997D01*
X591330D01*
X589997Y147664D01*
X603667Y219332D02*
X598335D01*
X597003Y217999D01*
Y215333D01*
X598335Y214000D01*
X603667D01*
X605000Y215333D01*
Y217999D01*
X602334Y216666D02*
X605000Y219332D01*
Y217999D02*
X603667Y219332D01*
X605000Y221997D02*
Y224663D01*
Y223330D01*
X597003D01*
X598335Y221997D01*
X188833Y209668D02*
X194165D01*
X195497Y211001D01*
Y213667D01*
X194165Y215000D01*
X188833D01*
X187500Y213667D01*
Y211001D01*
X190166Y212334D02*
X187500Y209668D01*
Y211001D02*
X188833Y209668D01*
X187500Y203004D02*
X195497D01*
X191499Y207003D01*
Y201671D01*
X747000Y154000D02*
Y161997D01*
X750999D01*
X752332Y160665D01*
Y157999D01*
X750999Y156666D01*
X747000D01*
X749666D02*
X752332Y154000D01*
X760329Y160665D02*
X758996Y161997D01*
X756330D01*
X754997Y160665D01*
Y159332D01*
X756330Y157999D01*
X758996D01*
X760329Y156666D01*
Y155333D01*
X758996Y154000D01*
X756330D01*
X754997Y155333D01*
X762995Y161997D02*
X768326D01*
X765661D01*
Y154000D01*
X704002Y82999D02*
X703002Y81999D01*
Y80000D01*
X704002Y79000D01*
X705001D01*
X706001Y80000D01*
Y81999D01*
X707001Y82999D01*
X708000D01*
X709000Y81999D01*
Y80000D01*
X708000Y79000D01*
X709000Y84998D02*
X703002D01*
Y87997D01*
X704002Y88997D01*
X706001D01*
X707001Y87997D01*
Y84998D01*
X703002Y90996D02*
Y92996D01*
Y91996D01*
X709000D01*
Y90996D01*
Y92996D01*
X710000Y95995D02*
Y99993D01*
X704002Y105991D02*
X703002Y104992D01*
Y102992D01*
X704002Y101993D01*
X708000D01*
X709000Y102992D01*
Y104992D01*
X708000Y105991D01*
X703002Y107991D02*
X709000D01*
Y111989D01*
X703002Y113989D02*
X709000D01*
X707001D01*
X703002Y117987D01*
X706001Y114988D01*
X709000Y117987D01*
X679002Y82999D02*
X678002Y81999D01*
Y80000D01*
X679002Y79000D01*
X680001D01*
X681001Y80000D01*
Y81999D01*
X682001Y82999D01*
X683000D01*
X684000Y81999D01*
Y80000D01*
X683000Y79000D01*
X684000Y84998D02*
X678002D01*
Y87997D01*
X679002Y88997D01*
X681001D01*
X682001Y87997D01*
Y84998D01*
X678002Y90996D02*
Y92996D01*
Y91996D01*
X684000D01*
Y90996D01*
Y92996D01*
X685000Y95995D02*
Y99993D01*
X678002Y101993D02*
Y103992D01*
Y102992D01*
X684000D01*
Y101993D01*
Y103992D01*
Y106991D02*
X678002D01*
X684000Y110990D01*
X678002D01*
Y112989D02*
Y116988D01*
Y114988D01*
X684000D01*
X654002Y82999D02*
X653002Y81999D01*
Y80000D01*
X654002Y79000D01*
X658000D01*
X659000Y80000D01*
Y81999D01*
X658000Y82999D01*
X656001D01*
Y80999D01*
X659000Y84998D02*
X653002D01*
Y87997D01*
X654002Y88997D01*
X656001D01*
X657001Y87997D01*
Y84998D01*
X653002Y90996D02*
Y92996D01*
Y91996D01*
X659000D01*
Y90996D01*
Y92996D01*
X653002Y98994D02*
Y96994D01*
X654002Y95995D01*
X658000D01*
X659000Y96994D01*
Y98994D01*
X658000Y99993D01*
X654002D01*
X653002Y98994D01*
X659000Y101993D02*
Y103992D01*
Y102992D01*
X653002D01*
X654002Y101993D01*
Y106991D02*
X653002Y107991D01*
Y109990D01*
X654002Y110990D01*
X658000D01*
X659000Y109990D01*
Y107991D01*
X658000Y106991D01*
X654002D01*
X628002Y82999D02*
X627002Y81999D01*
Y80000D01*
X628002Y79000D01*
X632000D01*
X633000Y80000D01*
Y81999D01*
X632000Y82999D01*
X630001D01*
Y80999D01*
X633000Y84998D02*
X627002D01*
Y87997D01*
X628002Y88997D01*
X630001D01*
X631001Y87997D01*
Y84998D01*
X627002Y90996D02*
Y92996D01*
Y91996D01*
X633000D01*
Y90996D01*
Y92996D01*
X627002Y98994D02*
Y96994D01*
X628002Y95995D01*
X632000D01*
X633000Y96994D01*
Y98994D01*
X632000Y99993D01*
X628002D01*
X627002Y98994D01*
X632000Y101993D02*
X633000Y102992D01*
Y104992D01*
X632000Y105991D01*
X628002D01*
X627002Y104992D01*
Y102992D01*
X628002Y101993D01*
X629001D01*
X630001Y102992D01*
Y105991D01*
X603002Y82999D02*
X602002Y81999D01*
Y80000D01*
X603002Y79000D01*
X604001D01*
X605001Y80000D01*
Y81999D01*
X606001Y82999D01*
X607000D01*
X608000Y81999D01*
Y80000D01*
X607000Y79000D01*
X608000Y84998D02*
X602002D01*
Y87997D01*
X603002Y88997D01*
X605001D01*
X606001Y87997D01*
Y84998D01*
X602002Y90996D02*
Y92996D01*
Y91996D01*
X608000D01*
Y90996D01*
Y92996D01*
X609000Y95995D02*
Y99993D01*
X608000Y101993D02*
X602002D01*
X604001Y103992D01*
X602002Y105991D01*
X608000D01*
X602002Y107991D02*
Y109990D01*
Y108990D01*
X608000D01*
Y107991D01*
Y109990D01*
X603002Y116988D02*
X602002Y115988D01*
Y113989D01*
X603002Y112989D01*
X604001D01*
X605001Y113989D01*
Y115988D01*
X606001Y116988D01*
X607000D01*
X608000Y115988D01*
Y113989D01*
X607000Y112989D01*
X602002Y121986D02*
Y119987D01*
X603002Y118987D01*
X607000D01*
X608000Y119987D01*
Y121986D01*
X607000Y122986D01*
X603002D01*
X602002Y121986D01*
X577002Y83999D02*
X576002Y82999D01*
Y81000D01*
X577002Y80000D01*
X578001D01*
X579001Y81000D01*
Y82999D01*
X580001Y83999D01*
X581000D01*
X582000Y82999D01*
Y81000D01*
X581000Y80000D01*
X582000Y85998D02*
X576002D01*
Y88997D01*
X577002Y89997D01*
X579001D01*
X580001Y88997D01*
Y85998D01*
X576002Y91996D02*
Y93996D01*
Y92996D01*
X582000D01*
Y91996D01*
Y93996D01*
X583000Y96994D02*
Y100993D01*
X582000Y102992D02*
X576002D01*
X578001Y104992D01*
X576002Y106991D01*
X582000D01*
X576002Y111990D02*
Y109990D01*
X577002Y108991D01*
X581000D01*
X582000Y109990D01*
Y111990D01*
X581000Y112989D01*
X577002D01*
X576002Y111990D01*
X577002Y118987D02*
X576002Y117988D01*
Y115988D01*
X577002Y114989D01*
X578001D01*
X579001Y115988D01*
Y117988D01*
X580001Y118987D01*
X581000D01*
X582000Y117988D01*
Y115988D01*
X581000Y114989D01*
X576002Y120987D02*
Y122986D01*
Y121986D01*
X582000D01*
Y120987D01*
Y122986D01*
X642002Y227000D02*
Y228999D01*
Y228000D01*
X648000D01*
Y227000D01*
Y228999D01*
Y235997D02*
Y231998D01*
X644001Y235997D01*
X643002D01*
X642002Y234997D01*
Y232998D01*
X643002Y231998D01*
Y241995D02*
X642002Y240996D01*
Y238996D01*
X643002Y237996D01*
X647000D01*
X648000Y238996D01*
Y240996D01*
X647000Y241995D01*
X297500Y80000D02*
X291502D01*
Y82999D01*
X292502Y83999D01*
X294501D01*
X295501Y82999D01*
Y80000D01*
Y81999D02*
X297500Y83999D01*
X292502Y89997D02*
X291502Y88997D01*
Y86998D01*
X292502Y85998D01*
X293501D01*
X294501Y86998D01*
Y88997D01*
X295501Y89997D01*
X296500D01*
X297500Y88997D01*
Y86998D01*
X296500Y85998D01*
X291502Y91996D02*
Y95995D01*
Y93996D01*
X297500D01*
X266502Y83999D02*
Y80000D01*
X272500D01*
Y83999D01*
X269501Y80000D02*
Y81999D01*
X272500Y85998D02*
X266502D01*
X272500Y89997D01*
X266502D01*
X208999Y319998D02*
X207999Y320998D01*
X206000D01*
X205000Y319998D01*
Y318999D01*
X206000Y317999D01*
X207999D01*
X208999Y316999D01*
Y316000D01*
X207999Y315000D01*
X206000D01*
X205000Y316000D01*
X210998Y315000D02*
X212997D01*
X211998D01*
Y320998D01*
X210998D01*
X218995Y315000D02*
X216996D01*
X215996Y316000D01*
Y317999D01*
X216996Y318999D01*
X218995D01*
X219995Y317999D01*
Y316999D01*
X215996D01*
X224993Y315000D02*
X222994D01*
X221994Y316000D01*
Y317999D01*
X222994Y318999D01*
X224993D01*
X225993Y317999D01*
Y316999D01*
X221994D01*
X227992Y313001D02*
Y318999D01*
X230992D01*
X231991Y317999D01*
Y316000D01*
X230992Y315000D01*
X227992D01*
X208999Y330998D02*
X206999D01*
X207999D01*
Y326000D01*
X206999Y325000D01*
X206000D01*
X205000Y326000D01*
X210998Y328999D02*
Y326000D01*
X211998Y325000D01*
X214997D01*
Y328999D01*
X216996Y325000D02*
Y328999D01*
X217996D01*
X218995Y327999D01*
Y325000D01*
Y327999D01*
X219995Y328999D01*
X220995Y327999D01*
Y325000D01*
X222994Y323001D02*
Y328999D01*
X225993D01*
X226993Y327999D01*
Y326000D01*
X225993Y325000D01*
X222994D01*
X231991D02*
X229992D01*
X228992Y326000D01*
Y327999D01*
X229992Y328999D01*
X231991D01*
X232991Y327999D01*
Y326999D01*
X228992D01*
X234990Y328999D02*
Y325000D01*
Y326999D01*
X235990Y327999D01*
X236990Y328999D01*
X237989D01*
X239002Y80000D02*
X243001D01*
X245000Y81999D01*
X243001Y83999D01*
X239002D01*
Y85998D02*
X245000D01*
Y88997D01*
X244000Y89997D01*
X243001D01*
X242001Y88997D01*
Y85998D01*
Y88997D01*
X241001Y89997D01*
X240002D01*
X239002Y88997D01*
Y85998D01*
X241001Y92996D02*
Y94995D01*
X242001Y95995D01*
X245000D01*
Y92996D01*
X244000Y91996D01*
X243001Y92996D01*
Y95995D01*
X240002Y98994D02*
X241001D01*
Y97994D01*
Y99993D01*
Y98994D01*
X244000D01*
X245000Y99993D01*
X217922Y80720D02*
X221921D01*
X223920Y82719D01*
X221921Y84719D01*
X217922D01*
X223920Y89717D02*
Y87718D01*
X222920Y86718D01*
X220921D01*
X219921Y87718D01*
Y89717D01*
X220921Y90717D01*
X221921D01*
Y86718D01*
X219921Y92716D02*
X223920Y96715D01*
X221921Y94715D01*
X219921Y96715D01*
X223920Y92716D01*
X218922Y99714D02*
X219921D01*
Y98714D01*
Y100714D01*
Y99714D01*
X222920D01*
X223920Y100714D01*
X320002Y80000D02*
X319002Y81000D01*
Y82999D01*
X320002Y83999D01*
X321001D01*
X322001Y82999D01*
Y81999D01*
Y82999D01*
X323001Y83999D01*
X324000D01*
X325000Y82999D01*
Y81000D01*
X324000Y80000D01*
X321001Y85998D02*
X325000Y87997D01*
X321001Y89997D01*
X320002Y91996D02*
X319002Y92996D01*
Y94995D01*
X320002Y95995D01*
X321001D01*
X322001Y94995D01*
Y93996D01*
Y94995D01*
X323001Y95995D01*
X324000D01*
X325000Y94995D01*
Y92996D01*
X324000Y91996D01*
X345002Y83999D02*
X344002Y82999D01*
Y81000D01*
X345002Y80000D01*
X349000D01*
X350000Y81000D01*
Y82999D01*
X349000Y83999D01*
X347001D01*
Y81999D01*
X350000Y85998D02*
X344002D01*
X350000Y89997D01*
X344002D01*
Y91996D02*
X350000D01*
Y94995D01*
X349000Y95995D01*
X345002D01*
X344002Y94995D01*
Y91996D01*
X490000Y100000D02*
X484002D01*
Y102999D01*
X485002Y103999D01*
X487001D01*
X488001Y102999D01*
Y100000D01*
Y101999D02*
X490000Y103999D01*
X484002Y105998D02*
X490000Y109997D01*
X484002D02*
X490000Y105998D01*
X459002Y100000D02*
Y103999D01*
Y101999D01*
X465000D01*
X459002Y105998D02*
X465000Y109997D01*
X459002D02*
X465000Y105998D01*
X434002Y100000D02*
X440000D01*
Y102999D01*
X439000Y103999D01*
X435002D01*
X434002Y102999D01*
Y100000D01*
Y105998D02*
Y109997D01*
Y107997D01*
X440000D01*
Y111996D02*
X434002D01*
Y114995D01*
X435002Y115995D01*
X437001D01*
X438001Y114995D01*
Y111996D01*
Y113996D02*
X440000Y115995D01*
X415000Y100000D02*
X409002D01*
Y102999D01*
X410002Y103999D01*
X412001D01*
X413001Y102999D01*
Y100000D01*
Y101999D02*
X415000Y103999D01*
X409002Y105998D02*
Y109997D01*
Y107997D01*
X415000D01*
X410002Y115995D02*
X409002Y114995D01*
Y112996D01*
X410002Y111996D01*
X411001D01*
X412001Y112996D01*
Y114995D01*
X413001Y115995D01*
X414000D01*
X415000Y114995D01*
Y112996D01*
X414000Y111996D01*
X385002Y103999D02*
X384002Y102999D01*
Y101000D01*
X385002Y100000D01*
X389000D01*
X390000Y101000D01*
Y102999D01*
X389000Y103999D01*
X387001D01*
Y101999D01*
X390000Y105998D02*
X384002D01*
X390000Y109997D01*
X384002D01*
Y111996D02*
X390000D01*
Y114995D01*
X389000Y115995D01*
X385002D01*
X384002Y114995D01*
Y111996D01*
X180000Y145000D02*
Y147666D01*
Y146333D01*
X172003D01*
X173335Y145000D01*
Y151664D02*
X172003Y152998D01*
Y155663D01*
X173335Y156996D01*
X178667D01*
X180000Y155663D01*
Y152998D01*
X178667Y151664D01*
X173335D01*
Y159662D02*
X172003Y160995D01*
Y163661D01*
X173335Y164994D01*
X178667D01*
X180000Y163661D01*
Y160995D01*
X178667Y159662D01*
X173335D01*
X180000Y167659D02*
X174668D01*
Y168992D01*
X176001Y170325D01*
X180000D01*
X176001D01*
X174668Y171658D01*
X176001Y172991D01*
X180000D01*
Y175657D02*
X174668D01*
X172003Y178323D01*
X174668Y180988D01*
X180000D01*
X176001D01*
Y175657D01*
X172003Y200332D02*
Y195000D01*
X176001D01*
X174668Y197666D01*
Y198999D01*
X176001Y200332D01*
X178667D01*
X180000Y198999D01*
Y196333D01*
X178667Y195000D01*
X173335Y202997D02*
X172003Y204330D01*
Y206996D01*
X173335Y208329D01*
X178667D01*
X180000Y206996D01*
Y204330D01*
X178667Y202997D01*
X173335D01*
Y210995D02*
X172003Y212328D01*
Y214994D01*
X173335Y216326D01*
X178667D01*
X180000Y214994D01*
Y212328D01*
X178667Y210995D01*
X173335D01*
X180000Y218992D02*
X174668D01*
Y220325D01*
X176001Y221658D01*
X180000D01*
X176001D01*
X174668Y222991D01*
X176001Y224324D01*
X180000D01*
Y226990D02*
X174668D01*
X172003Y229655D01*
X174668Y232321D01*
X180000D01*
X176001D01*
Y226990D01*
X525002Y82000D02*
Y85999D01*
Y83999D01*
X531000D01*
X525002Y87998D02*
X531000Y91997D01*
X525002D02*
X531000Y87998D01*
X557000Y83000D02*
X551002D01*
Y85999D01*
X552002Y86999D01*
X554001D01*
X555001Y85999D01*
Y83000D01*
Y84999D02*
X557000Y86999D01*
X551002Y88998D02*
X557000Y92997D01*
X551002D02*
X557000Y88998D01*
X665002Y308999D02*
X664002Y307999D01*
Y306000D01*
X665002Y305000D01*
X669000D01*
X670000Y306000D01*
Y307999D01*
X669000Y308999D01*
X667001D01*
Y306999D01*
X670000Y310998D02*
X664002D01*
X670000Y314997D01*
X664002D01*
Y316996D02*
X670000D01*
Y319995D01*
X669000Y320995D01*
X665002D01*
X664002Y319995D01*
Y316996D01*
X689002Y305000D02*
X688002Y306000D01*
Y307999D01*
X689002Y308999D01*
X690001D01*
X691001Y307999D01*
Y306999D01*
Y307999D01*
X692001Y308999D01*
X693000D01*
X694000Y307999D01*
Y306000D01*
X693000Y305000D01*
X690001Y310998D02*
X694000Y312997D01*
X690001Y314997D01*
X689002Y316996D02*
X688002Y317996D01*
Y319995D01*
X689002Y320995D01*
X690001D01*
X691001Y319995D01*
Y318995D01*
Y319995D01*
X692001Y320995D01*
X693000D01*
X694000Y319995D01*
Y317996D01*
X693000Y316996D01*
X613002Y273999D02*
X612002Y272999D01*
Y271000D01*
X613002Y270000D01*
X617000D01*
X618000Y271000D01*
Y272999D01*
X617000Y273999D01*
X615001D01*
Y271999D01*
X618000Y275998D02*
X612002D01*
Y278997D01*
X613002Y279997D01*
X615001D01*
X616001Y278997D01*
Y275998D01*
X612002Y281996D02*
Y283995D01*
Y282996D01*
X618000D01*
Y281996D01*
Y283995D01*
X612002Y289993D02*
Y287994D01*
X613002Y286994D01*
X617000D01*
X618000Y287994D01*
Y289993D01*
X617000Y290993D01*
X613002D01*
X612002Y289993D01*
X618000Y295992D02*
X612002D01*
X615001Y292992D01*
Y296991D01*
X618000Y298991D02*
X614001Y302989D01*
X613002Y308987D02*
X612002Y307988D01*
Y305988D01*
X613002Y304989D01*
X614001D01*
X615001Y305988D01*
Y307988D01*
X616001Y308987D01*
X617000D01*
X618000Y307988D01*
Y305988D01*
X617000Y304989D01*
X612002Y310987D02*
X618000D01*
Y313986D01*
X617000Y314985D01*
X613002D01*
X612002Y313986D01*
Y310987D01*
X618000Y316985D02*
X614001D01*
X612002Y318984D01*
X614001Y320984D01*
X618000D01*
X615001D01*
Y316985D01*
X638002Y273999D02*
X637002Y272999D01*
Y271000D01*
X638002Y270000D01*
X642000D01*
X643000Y271000D01*
Y272999D01*
X642000Y273999D01*
X640001D01*
Y271999D01*
X643000Y275998D02*
X637002D01*
Y278997D01*
X638002Y279997D01*
X640001D01*
X641001Y278997D01*
Y275998D01*
X637002Y281996D02*
Y283995D01*
Y282996D01*
X643000D01*
Y281996D01*
Y283995D01*
X637002Y289993D02*
Y287994D01*
X638002Y286994D01*
X642000D01*
X643000Y287994D01*
Y289993D01*
X642000Y290993D01*
X638002D01*
X637002Y289993D01*
Y296991D02*
Y292992D01*
X640001D01*
X639001Y294992D01*
Y295992D01*
X640001Y296991D01*
X642000D01*
X643000Y295992D01*
Y293992D01*
X642000Y292992D01*
X643000Y298991D02*
X639001Y302989D01*
X638002Y308987D02*
X637002Y307988D01*
Y305988D01*
X638002Y304989D01*
X639001D01*
X640001Y305988D01*
Y307988D01*
X641001Y308987D01*
X642000D01*
X643000Y307988D01*
Y305988D01*
X642000Y304989D01*
X638002Y314985D02*
X637002Y313986D01*
Y311986D01*
X638002Y310987D01*
X642000D01*
X643000Y311986D01*
Y313986D01*
X642000Y314985D01*
X637002Y316985D02*
X643000D01*
Y320984D01*
X689002Y271999D02*
X688002Y270999D01*
Y269000D01*
X689002Y268000D01*
X693000D01*
X694000Y269000D01*
Y270999D01*
X693000Y271999D01*
X691001D01*
Y269999D01*
X694000Y273998D02*
X688002D01*
X694000Y277997D01*
X688002D01*
Y279996D02*
X694000D01*
Y282995D01*
X693000Y283995D01*
X689002D01*
X688002Y282995D01*
Y279996D01*
X663002Y268000D02*
X662002Y269000D01*
Y270999D01*
X663002Y271999D01*
X664001D01*
X665001Y270999D01*
Y269999D01*
Y270999D01*
X666001Y271999D01*
X667000D01*
X668000Y270999D01*
Y269000D01*
X667000Y268000D01*
X664001Y273998D02*
X668000Y275997D01*
X664001Y277997D01*
X663002Y279996D02*
X662002Y280996D01*
Y282995D01*
X663002Y283995D01*
X664001D01*
X665001Y282995D01*
Y281996D01*
Y282995D01*
X666001Y283995D01*
X667000D01*
X668000Y282995D01*
Y280996D01*
X667000Y279996D01*
X663002Y161999D02*
X662002Y160999D01*
Y159000D01*
X663002Y158000D01*
X664001D01*
X665001Y159000D01*
Y160999D01*
X666001Y161999D01*
X667000D01*
X668000Y160999D01*
Y159000D01*
X667000Y158000D01*
X663002Y167997D02*
X662002Y166997D01*
Y164998D01*
X663002Y163998D01*
X667000D01*
X668000Y164998D01*
Y166997D01*
X667000Y167997D01*
X662002Y169996D02*
X668000D01*
Y173995D01*
X689002Y160999D02*
X688002Y159999D01*
Y158000D01*
X689002Y157000D01*
X690001D01*
X691001Y158000D01*
Y159999D01*
X692001Y160999D01*
X693000D01*
X694000Y159999D01*
Y158000D01*
X693000Y157000D01*
X688002Y162998D02*
X694000D01*
Y165997D01*
X693000Y166997D01*
X689002D01*
X688002Y165997D01*
Y162998D01*
X694000Y168996D02*
X690001D01*
X688002Y170996D01*
X690001Y172995D01*
X694000D01*
X691001D01*
Y168996D01*
X752999Y335998D02*
X751999Y336998D01*
X750000D01*
X749000Y335998D01*
Y332000D01*
X750000Y331000D01*
X751999D01*
X752999Y332000D01*
Y333999D01*
X750999D01*
X754998Y331000D02*
Y336998D01*
X757997D01*
X758997Y335998D01*
Y333999D01*
X757997Y332999D01*
X754998D01*
X760996Y336998D02*
X762996D01*
X761996D01*
Y331000D01*
X760996D01*
X762996D01*
X768994Y336998D02*
X766994D01*
X765994Y335998D01*
Y332000D01*
X766994Y331000D01*
X768994D01*
X769993Y332000D01*
Y335998D01*
X768994Y336998D01*
X771992Y331000D02*
X773992D01*
X772992D01*
Y336998D01*
X771992Y335998D01*
X780990Y336998D02*
X776991D01*
Y333999D01*
X778990Y334999D01*
X779990D01*
X780990Y333999D01*
Y332000D01*
X779990Y331000D01*
X777991D01*
X776991Y332000D01*
X715002Y297999D02*
X714002Y296999D01*
Y295000D01*
X715002Y294000D01*
X719000D01*
X720000Y295000D01*
Y296999D01*
X719000Y297999D01*
X717001D01*
Y295999D01*
X720000Y299998D02*
X714002D01*
Y302997D01*
X715002Y303997D01*
X717001D01*
X718001Y302997D01*
Y299998D01*
X714002Y305996D02*
Y307995D01*
Y306996D01*
X720000D01*
Y305996D01*
Y307995D01*
X714002Y313993D02*
Y311994D01*
X715002Y310994D01*
X719000D01*
X720000Y311994D01*
Y313993D01*
X719000Y314993D01*
X715002D01*
X714002Y313993D01*
X720000Y320991D02*
Y316992D01*
X716001Y320991D01*
X715002D01*
X714002Y319992D01*
Y317992D01*
X715002Y316992D01*
X587002Y297999D02*
X586002Y296999D01*
Y295000D01*
X587002Y294000D01*
X591000D01*
X592000Y295000D01*
Y296999D01*
X591000Y297999D01*
X589001D01*
Y295999D01*
X592000Y299998D02*
X586002D01*
Y302997D01*
X587002Y303997D01*
X589001D01*
X590001Y302997D01*
Y299998D01*
X586002Y305996D02*
Y307995D01*
Y306996D01*
X592000D01*
Y305996D01*
Y307995D01*
X586002Y313993D02*
Y311994D01*
X587002Y310994D01*
X591000D01*
X592000Y311994D01*
Y313993D01*
X591000Y314993D01*
X587002D01*
X586002Y313993D01*
X587002Y316992D02*
X586002Y317992D01*
Y319992D01*
X587002Y320991D01*
X591000D01*
X592000Y319992D01*
Y317992D01*
X591000Y316992D01*
X587002D01*
X563002Y292999D02*
X562002Y291999D01*
Y290000D01*
X563002Y289000D01*
X567000D01*
X568000Y290000D01*
Y291999D01*
X567000Y292999D01*
X565001D01*
Y290999D01*
X568000Y294998D02*
X562002D01*
Y297997D01*
X563002Y298997D01*
X565001D01*
X566001Y297997D01*
Y294998D01*
X562002Y300996D02*
Y302995D01*
Y301996D01*
X568000D01*
Y300996D01*
Y302995D01*
X562002Y308993D02*
Y306994D01*
X563002Y305994D01*
X567000D01*
X568000Y306994D01*
Y308993D01*
X567000Y309993D01*
X563002D01*
X562002Y308993D01*
X568000Y311992D02*
Y313992D01*
Y312992D01*
X562002D01*
X563002Y311992D01*
Y316991D02*
X562002Y317991D01*
Y319990D01*
X563002Y320990D01*
X564001D01*
X565001Y319990D01*
Y318990D01*
Y319990D01*
X566001Y320990D01*
X567000D01*
X568000Y319990D01*
Y317991D01*
X567000Y316991D01*
X536002Y292999D02*
X535002Y291999D01*
Y290000D01*
X536002Y289000D01*
X540000D01*
X541000Y290000D01*
Y291999D01*
X540000Y292999D01*
X538001D01*
Y290999D01*
X541000Y294998D02*
X535002D01*
Y297997D01*
X536002Y298997D01*
X538001D01*
X539001Y297997D01*
Y294998D01*
X535002Y300996D02*
Y302995D01*
Y301996D01*
X541000D01*
Y300996D01*
Y302995D01*
X535002Y308993D02*
Y306994D01*
X536002Y305994D01*
X540000D01*
X541000Y306994D01*
Y308993D01*
X540000Y309993D01*
X536002D01*
X535002Y308993D01*
X541000Y311992D02*
Y313992D01*
Y312992D01*
X535002D01*
X536002Y311992D01*
X541000Y320990D02*
Y316991D01*
X537001Y320990D01*
X536002D01*
X535002Y319990D01*
Y317991D01*
X536002Y316991D01*
X512002Y292999D02*
X511002Y291999D01*
Y290000D01*
X512002Y289000D01*
X516000D01*
X517000Y290000D01*
Y291999D01*
X516000Y292999D01*
X514001D01*
Y290999D01*
X517000Y294998D02*
X511002D01*
Y297997D01*
X512002Y298997D01*
X514001D01*
X515001Y297997D01*
Y294998D01*
X511002Y300996D02*
Y302995D01*
Y301996D01*
X517000D01*
Y300996D01*
Y302995D01*
X511002Y308993D02*
Y306994D01*
X512002Y305994D01*
X516000D01*
X517000Y306994D01*
Y308993D01*
X516000Y309993D01*
X512002D01*
X511002Y308993D01*
X517000Y311992D02*
Y313992D01*
Y312992D01*
X511002D01*
X512002Y311992D01*
X517000Y319990D02*
X511002D01*
X514001Y316991D01*
Y320990D01*
X205332Y343665D02*
X203999Y344997D01*
X201333D01*
X200000Y343665D01*
Y342332D01*
X201333Y340999D01*
X203999D01*
X205332Y339666D01*
Y338333D01*
X203999Y337000D01*
X201333D01*
X200000Y338333D01*
X207997Y337000D02*
Y344997D01*
X211996D01*
X213329Y343665D01*
Y340999D01*
X211996Y339666D01*
X207997D01*
X215995Y337000D02*
Y342332D01*
X218661Y344997D01*
X221327Y342332D01*
Y337000D01*
Y340999D01*
X215995D01*
X223992Y344997D02*
X226658D01*
X225325D01*
Y337000D01*
X223992D01*
X226658D01*
X230657D02*
Y344997D01*
X235988Y337000D01*
Y344997D01*
X238654D02*
Y337000D01*
X243986D01*
X246652D02*
Y342332D01*
X249317Y344997D01*
X251983Y342332D01*
Y337000D01*
Y340999D01*
X246652D01*
X254649Y344997D02*
Y337000D01*
X258648D01*
X259981Y338333D01*
Y339666D01*
X258648Y340999D01*
X254649D01*
X258648D01*
X259981Y342332D01*
Y343665D01*
X258648Y344997D01*
X254649D01*
X267978Y343665D02*
X266645Y344997D01*
X263979D01*
X262647Y343665D01*
Y342332D01*
X263979Y340999D01*
X266645D01*
X267978Y339666D01*
Y338333D01*
X266645Y337000D01*
X263979D01*
X262647Y338333D01*
X270644Y337000D02*
Y338333D01*
X271977D01*
Y337000D01*
X270644D01*
X282640Y343665D02*
X281307Y344997D01*
X278641D01*
X277308Y343665D01*
Y338333D01*
X278641Y337000D01*
X281307D01*
X282640Y338333D01*
X289305Y344997D02*
X286639D01*
X285306Y343665D01*
Y338333D01*
X286639Y337000D01*
X289305D01*
X290637Y338333D01*
Y343665D01*
X289305Y344997D01*
X293303Y337000D02*
Y344997D01*
X295969Y342332D01*
X298635Y344997D01*
Y337000D01*
X203000Y358997D02*
Y351000D01*
X206999D01*
X208332Y352333D01*
Y353666D01*
X206999Y354999D01*
X203000D01*
X206999D01*
X208332Y356332D01*
Y357664D01*
X206999Y358997D01*
X203000D01*
X210997Y356332D02*
Y352333D01*
X212330Y351000D01*
X216329D01*
Y349667D01*
X214996Y348334D01*
X213663D01*
X216329Y351000D02*
Y356332D01*
X232324Y357664D02*
X230991Y358997D01*
X228325D01*
X226992Y357664D01*
Y352333D01*
X228325Y351000D01*
X230991D01*
X232324Y352333D01*
Y354999D01*
X229658D01*
X234990Y356332D02*
Y351000D01*
Y353666D01*
X236323Y354999D01*
X237656Y356332D01*
X238988D01*
X244320D02*
X246986D01*
X248319Y354999D01*
Y351000D01*
X244320D01*
X242987Y352333D01*
X244320Y353666D01*
X248319D01*
X252317Y351000D02*
Y357664D01*
Y354999D01*
X250984D01*
X253650D01*
X252317D01*
Y357664D01*
X253650Y358997D01*
X257649Y351000D02*
X260315D01*
X258982D01*
Y356332D01*
X257649D01*
X264314Y351000D02*
X268312D01*
X269645Y352333D01*
X268312Y353666D01*
X265646D01*
X264314Y354999D01*
X265646Y356332D01*
X269645D01*
X273644Y351000D02*
X276310D01*
X277643Y352333D01*
Y354999D01*
X276310Y356332D01*
X273644D01*
X272311Y354999D01*
Y352333D01*
X273644Y351000D01*
X281641D02*
Y357664D01*
Y354999D01*
X280308D01*
X282974D01*
X281641D01*
Y357664D01*
X282974Y358997D01*
X288306Y357664D02*
Y356332D01*
X286973D01*
X289639D01*
X288306D01*
Y352333D01*
X289639Y351000D01*
D43*
X308130Y395910D02*
X470690D01*
Y319710D02*
Y395910D01*
Y153340D02*
Y160960D01*
X450370Y153340D02*
X470690D01*
X308130D02*
X328450D01*
X308130D02*
Y159690D01*
Y319710D02*
Y395910D01*
D44*
X368709Y375590D02*
X416461D01*
X367947Y375463D02*
X417223D01*
X367439Y375336D02*
X417731D01*
X366931Y375209D02*
X418239D01*
X366550Y375082D02*
X418620D01*
X366169Y374955D02*
X419001D01*
X365915Y374828D02*
X419255D01*
X365534Y374701D02*
X419636D01*
X425986D02*
X427256D01*
X365280Y374574D02*
X419890D01*
X425605D02*
X427510D01*
X365026Y374447D02*
X402364D01*
X416715D02*
X420144D01*
X425478D02*
X427764D01*
X364772Y374320D02*
X401602D01*
X417350D02*
X420398D01*
X425351D02*
X426240D01*
X427002D02*
X427891D01*
X364518Y374193D02*
X401221D01*
X417858D02*
X420652D01*
X425097D02*
X425859D01*
X427383D02*
X428018D01*
X364391Y374066D02*
X400713D01*
X418366D02*
X420779D01*
X425097D02*
X425732D01*
X427510D02*
X428145D01*
X364137Y373939D02*
X400459D01*
X418747D02*
X421033D01*
X424970D02*
X425478D01*
X427637D02*
X428272D01*
X363883Y373812D02*
X400078D01*
X419001D02*
X421160D01*
X424843D02*
X425351D01*
X425732D02*
X426875D01*
X427764D02*
X428272D01*
X363756Y373685D02*
X399824D01*
X419382D02*
X421414D01*
X424843D02*
X425351D01*
X425732D02*
X427256D01*
X427891D02*
X428399D01*
X363629Y373558D02*
X399570D01*
X419636D02*
X421541D01*
X424716D02*
X425224D01*
X425732D02*
X427383D01*
X428018D02*
X428399D01*
X363375Y373431D02*
X399316D01*
X419890D02*
X421795D01*
X424716D02*
X425224D01*
X425732D02*
X426113D01*
X426748D02*
X427383D01*
X428018D02*
X428526D01*
X363248Y373304D02*
X399062D01*
X420144D02*
X421922D01*
X424716D02*
X425097D01*
X425732D02*
X426113D01*
X426875D02*
X427383D01*
X428145D02*
X428526D01*
X363121Y373177D02*
X398808D01*
X420271D02*
X422049D01*
X424589D02*
X425097D01*
X425732D02*
X426113D01*
X426875D02*
X427383D01*
X428145D02*
X428526D01*
X362867Y373050D02*
X398681D01*
X420525D02*
X422303D01*
X424589D02*
X425097D01*
X425732D02*
X426113D01*
X426875D02*
X427383D01*
X428145D02*
X428526D01*
X362740Y372923D02*
X398427D01*
X420652D02*
X422430D01*
X424589D02*
X425097D01*
X425732D02*
X427383D01*
X428145D02*
X428653D01*
X362613Y372796D02*
X398300D01*
X420906D02*
X422557D01*
X424589D02*
X425097D01*
X425732D02*
X427256D01*
X428145D02*
X428653D01*
X362486Y372669D02*
X398046D01*
X421033D02*
X422684D01*
X424589D02*
X424970D01*
X425732D02*
X427002D01*
X428145D02*
X428653D01*
X362359Y372542D02*
X397919D01*
X421287D02*
X422811D01*
X424589D02*
X425097D01*
X425732D02*
X426113D01*
X426367D02*
X427002D01*
X428145D02*
X428653D01*
X362232Y372415D02*
X397792D01*
X421414D02*
X422938D01*
X424589D02*
X425097D01*
X425732D02*
X426113D01*
X426621D02*
X427129D01*
X428145D02*
X428526D01*
X362105Y372288D02*
X397665D01*
X421541D02*
X423065D01*
X424589D02*
X425097D01*
X425732D02*
X426113D01*
X426621D02*
X427256D01*
X428145D02*
X428526D01*
X361978Y372161D02*
X397411D01*
X421795D02*
X423192D01*
X424716D02*
X425097D01*
X425732D02*
X426113D01*
X426748D02*
X427256D01*
X428018D02*
X428526D01*
X361851Y372034D02*
X397284D01*
X421922D02*
X423319D01*
X424716D02*
X425224D01*
X425732D02*
X426113D01*
X426875D02*
X427383D01*
X428018D02*
X428526D01*
X361724Y371907D02*
X397157D01*
X422049D02*
X423446D01*
X424843D02*
X425224D01*
X425732D02*
X426113D01*
X426875D02*
X427510D01*
X427891D02*
X428399D01*
X361597Y371780D02*
X397030D01*
X422176D02*
X423573D01*
X424843D02*
X425351D01*
X425732D02*
X426113D01*
X427002D02*
X427510D01*
X427891D02*
X428399D01*
X361470Y371653D02*
X396903D01*
X422303D02*
X423700D01*
X424970D02*
X425478D01*
X427764D02*
X428272D01*
X361343Y371526D02*
X396776D01*
X422430D02*
X423700D01*
X424970D02*
X425605D01*
X427510D02*
X428145D01*
X361343Y371399D02*
X396649D01*
X422557D02*
X423827D01*
X425097D02*
X425859D01*
X427383D02*
X428018D01*
X361216Y371272D02*
X396649D01*
X422684D02*
X423954D01*
X425224D02*
X426113D01*
X427129D02*
X427891D01*
X361089Y371145D02*
X396522D01*
X422811D02*
X424081D01*
X425478D02*
X427764D01*
X360962Y371018D02*
X396395D01*
X422811D02*
X424208D01*
X425605D02*
X427637D01*
X360962Y370891D02*
X396268D01*
X422938D02*
X424208D01*
X425986D02*
X427256D01*
X360835Y370764D02*
X396141D01*
X423065D02*
X424335D01*
X360708Y370637D02*
X396014D01*
X423192D02*
X424462D01*
X360581Y370510D02*
X396014D01*
X423319D02*
X424462D01*
X360581Y370383D02*
X395887D01*
X423319D02*
X424589D01*
X360454Y370256D02*
X395760D01*
X423446D02*
X424716D01*
X360454Y370129D02*
X395760D01*
X423573D02*
X424716D01*
X360327Y370002D02*
X395633D01*
X423573D02*
X424843D01*
X360200Y369875D02*
X395506D01*
X423700D02*
X424843D01*
X360200Y369748D02*
X395506D01*
X423827D02*
X424970D01*
X360073Y369621D02*
X395379D01*
X423827D02*
X425097D01*
X360073Y369494D02*
X395379D01*
X423954D02*
X425097D01*
X359946Y369367D02*
X395252D01*
X423954D02*
X425224D01*
X359946Y369240D02*
X395252D01*
X424081D02*
X425224D01*
X359819Y369113D02*
X395125D01*
X424208D02*
X425351D01*
X359819Y368986D02*
X387632D01*
X388267D02*
X395125D01*
X414556D02*
X415064D01*
X424208D02*
X425351D01*
X359692Y368859D02*
X387124D01*
X388648D02*
X394998D01*
X414048D02*
X415572D01*
X424335D02*
X425351D01*
X359692Y368732D02*
X386870D01*
X388902D02*
X394998D01*
X413794D02*
X415826D01*
X424335D02*
X425478D01*
X359692Y368605D02*
X364772D01*
X364899D02*
X365026D01*
X367312D02*
X367566D01*
X367693D02*
X373154D01*
X375440D02*
X375567D01*
X375694D02*
X375948D01*
X376075D02*
X381409D01*
X384203D02*
X384330D01*
X384457D02*
X386743D01*
X389156D02*
X394871D01*
X413667D02*
X416080D01*
X424335D02*
X425478D01*
X359565Y368478D02*
X364645D01*
X368074D02*
X373154D01*
X376075D02*
X381282D01*
X384457D02*
X386616D01*
X389283D02*
X394871D01*
X399316D02*
X410873D01*
X413540D02*
X416207D01*
X424462D02*
X425605D01*
X359565Y368351D02*
X364645D01*
X368074D02*
X373154D01*
X376202D02*
X381282D01*
X384457D02*
X386489D01*
X389410D02*
X394871D01*
X399316D02*
X411000D01*
X413413D02*
X416334D01*
X424462D02*
X425605D01*
X359438Y368224D02*
X364772D01*
X368074D02*
X373027D01*
X376202D02*
X381282D01*
X384330D02*
X386362D01*
X389537D02*
X394744D01*
X399316D02*
X410873D01*
X413286D02*
X416334D01*
X424589D02*
X425605D01*
X359438Y368097D02*
X364772D01*
X368074D02*
X373027D01*
X376202D02*
X381155D01*
X384330D02*
X386235D01*
X389537D02*
X394744D01*
X399316D02*
X410873D01*
X413159D02*
X416461D01*
X424589D02*
X425732D01*
X359438Y367970D02*
X364772D01*
X368201D02*
X373027D01*
X376202D02*
X381155D01*
X384330D02*
X386235D01*
X389664D02*
X394617D01*
X399316D02*
X410873D01*
X413159D02*
X416588D01*
X424589D02*
X425732D01*
X359311Y367843D02*
X364772D01*
X368201D02*
X372900D01*
X376329D02*
X381155D01*
X384330D02*
X386108D01*
X389664D02*
X394617D01*
X399316D02*
X410873D01*
X413032D02*
X416588D01*
X424716D02*
X425859D01*
X359311Y367716D02*
X364899D01*
X368201D02*
X372900D01*
X376329D02*
X381155D01*
X384203D02*
X386108D01*
X389791D02*
X394617D01*
X399316D02*
X410873D01*
X413032D02*
X416715D01*
X424716D02*
X425859D01*
X359311Y367589D02*
X364899D01*
X368201D02*
X372900D01*
X376329D02*
X381155D01*
X384203D02*
X386108D01*
X389791D02*
X394490D01*
X399316D02*
X410873D01*
X413032D02*
X416715D01*
X424843D02*
X425859D01*
X359184Y367462D02*
X364899D01*
X368328D02*
X372773D01*
X376456D02*
X381028D01*
X384203D02*
X385981D01*
X389791D02*
X394490D01*
X399316D02*
X410873D01*
X412905D02*
X416715D01*
X424843D02*
X425859D01*
X359184Y367335D02*
X364899D01*
X368328D02*
X372773D01*
X376456D02*
X381028D01*
X384203D02*
X385981D01*
X389791D02*
X394490D01*
X399316D02*
X410873D01*
X412905D02*
X416715D01*
X424843D02*
X425986D01*
X359184Y367208D02*
X365026D01*
X368328D02*
X372773D01*
X376456D02*
X381028D01*
X384076D02*
X385981D01*
X389791D02*
X394490D01*
X399316D02*
X410873D01*
X412905D02*
X416715D01*
X424843D02*
X425986D01*
X359184Y367081D02*
X365026D01*
X368328D02*
X372773D01*
X376456D02*
X381028D01*
X384076D02*
X385981D01*
X389918D02*
X394363D01*
X399316D02*
X410873D01*
X412905D02*
X416715D01*
X424970D02*
X425986D01*
X359057Y366954D02*
X365026D01*
X368328D02*
X372646D01*
X376583D02*
X380901D01*
X384076D02*
X385981D01*
X389791D02*
X394363D01*
X399316D02*
X410873D01*
X412905D02*
X416715D01*
X424970D02*
X426113D01*
X359057Y366827D02*
X365026D01*
X368455D02*
X372646D01*
X376583D02*
X380901D01*
X384076D02*
X385981D01*
X389791D02*
X394363D01*
X399316D02*
X410873D01*
X412905D02*
X416715D01*
X424970D02*
X426113D01*
X359057Y366700D02*
X365153D01*
X368455D02*
X372646D01*
X376583D02*
X380901D01*
X383949D02*
X386108D01*
X389791D02*
X394363D01*
X399316D02*
X410873D01*
X412905D02*
X416715D01*
X424970D02*
X426113D01*
X359057Y366573D02*
X365153D01*
X368455D02*
X372519D01*
X376710D02*
X380901D01*
X383949D02*
X386108D01*
X389791D02*
X394236D01*
X399316D02*
X410873D01*
X413032D02*
X416715D01*
X425097D02*
X426113D01*
X359057Y366446D02*
X365153D01*
X368455D02*
X372519D01*
X376710D02*
X380774D01*
X383949D02*
X386108D01*
X389791D02*
X394236D01*
X399316D02*
X410873D01*
X413032D02*
X416588D01*
X425097D02*
X426113D01*
X358930Y366319D02*
X365280D01*
X368582D02*
X372519D01*
X376710D02*
X380774D01*
X383949D02*
X386108D01*
X389664D02*
X394236D01*
X399316D02*
X410873D01*
X413032D02*
X416588D01*
X425097D02*
X426240D01*
X358930Y366192D02*
X365280D01*
X368582D02*
X372519D01*
X376710D02*
X380774D01*
X383822D02*
X386235D01*
X389664D02*
X394236D01*
X399316D02*
X410873D01*
X413159D02*
X416588D01*
X425097D02*
X426240D01*
X358930Y366065D02*
X365280D01*
X368582D02*
X372392D01*
X376837D02*
X380774D01*
X383822D02*
X386235D01*
X389537D02*
X394236D01*
X399316D02*
X410873D01*
X413159D02*
X416461D01*
X425097D02*
X426240D01*
X358930Y365938D02*
X365280D01*
X368582D02*
X372392D01*
X376837D02*
X380647D01*
X383822D02*
X386362D01*
X389410D02*
X394236D01*
X399316D02*
X410873D01*
X413286D02*
X416334D01*
X425224D02*
X426240D01*
X358930Y365811D02*
X365407D01*
X368582D02*
X372392D01*
X376837D02*
X380647D01*
X383695D02*
X386489D01*
X389410D02*
X394236D01*
X399316D02*
X410873D01*
X413413D02*
X416334D01*
X425224D02*
X426240D01*
X358930Y365684D02*
X365407D01*
X368709D02*
X372265D01*
X376964D02*
X380647D01*
X383695D02*
X386616D01*
X389283D02*
X394109D01*
X399316D02*
X411000D01*
X413540D02*
X416207D01*
X425224D02*
X426240D01*
X358930Y365557D02*
X365407D01*
X368709D02*
X372265D01*
X376964D02*
X380647D01*
X383695D02*
X386743D01*
X389156D02*
X394109D01*
X399316D02*
X410873D01*
X413667D02*
X415953D01*
X425224D02*
X426240D01*
X358803Y365430D02*
X365407D01*
X368709D02*
X372265D01*
X376964D02*
X380647D01*
X383695D02*
X386997D01*
X388902D02*
X394109D01*
X399316D02*
X402745D01*
X413794D02*
X415826D01*
X425224D02*
X426367D01*
X358803Y365303D02*
X365534D01*
X368709D02*
X372138D01*
X376964D02*
X380520D01*
X383568D02*
X387251D01*
X388648D02*
X394109D01*
X399316D02*
X402745D01*
X414175D02*
X415572D01*
X425224D02*
X426367D01*
X358803Y365176D02*
X365534D01*
X368836D02*
X372138D01*
X377091D02*
X380520D01*
X383568D02*
X387759D01*
X387886D02*
X394109D01*
X399316D02*
X402745D01*
X414683D02*
X414810D01*
X425224D02*
X426367D01*
X358803Y365049D02*
X365534D01*
X368836D02*
X372138D01*
X377091D02*
X380520D01*
X383568D02*
X394109D01*
X399316D02*
X402745D01*
X425224D02*
X426367D01*
X358803Y364922D02*
X365534D01*
X368836D02*
X372138D01*
X377091D02*
X380520D01*
X383568D02*
X394109D01*
X399316D02*
X402745D01*
X425224D02*
X426367D01*
X358803Y364795D02*
X365661D01*
X368836D02*
X372011D01*
X377218D02*
X380520D01*
X383441D02*
X394109D01*
X399316D02*
X402745D01*
X425224D02*
X426367D01*
X358803Y364668D02*
X365661D01*
X368836D02*
X372011D01*
X377218D02*
X380393D01*
X383441D02*
X394109D01*
X399316D02*
X402745D01*
X425224D02*
X426367D01*
X358803Y364541D02*
X365661D01*
X368963D02*
X372011D01*
X377218D02*
X380393D01*
X383441D02*
X394109D01*
X399316D02*
X402745D01*
X425224D02*
X426367D01*
X358803Y364414D02*
X365788D01*
X368963D02*
X371884D01*
X377218D02*
X380393D01*
X383441D02*
X394109D01*
X399316D02*
X402745D01*
X425224D02*
X426367D01*
X358803Y364287D02*
X365788D01*
X368963D02*
X371884D01*
X377345D02*
X380393D01*
X383314D02*
X394109D01*
X399316D02*
X402745D01*
X425224D02*
X426367D01*
X358803Y364160D02*
X365788D01*
X368963D02*
X371884D01*
X377345D02*
X380266D01*
X383314D02*
X394109D01*
X399316D02*
X402745D01*
X425224D02*
X426367D01*
X358803Y364033D02*
X365788D01*
X369090D02*
X371884D01*
X377345D02*
X380266D01*
X383314D02*
X394109D01*
X399316D02*
X402745D01*
X425224D02*
X426367D01*
X358803Y363906D02*
X365915D01*
X369090D02*
X371757D01*
X377472D02*
X380266D01*
X383314D02*
X394109D01*
X399316D02*
X402745D01*
X425224D02*
X426367D01*
X358803Y363779D02*
X365915D01*
X369090D02*
X371757D01*
X377472D02*
X380266D01*
X383187D02*
X394109D01*
X399316D02*
X402745D01*
X425224D02*
X426367D01*
X358803Y363652D02*
X365915D01*
X369090D02*
X371757D01*
X374424D02*
X374551D01*
X377472D02*
X380139D01*
X383187D02*
X386235D01*
X389537D02*
X394109D01*
X399316D02*
X402745D01*
X413159D02*
X416461D01*
X425224D02*
X426367D01*
X358803Y363525D02*
X365915D01*
X369217D02*
X371630D01*
X374424D02*
X374678D01*
X377472D02*
X380139D01*
X383187D02*
X386235D01*
X389537D02*
X394109D01*
X399316D02*
X402745D01*
X413159D02*
X416461D01*
X425224D02*
X426367D01*
X358803Y363398D02*
X366042D01*
X369217D02*
X371630D01*
X374424D02*
X374678D01*
X377599D02*
X380139D01*
X383060D02*
X386235D01*
X389537D02*
X394109D01*
X399316D02*
X402745D01*
X413159D02*
X416461D01*
X425224D02*
X426367D01*
X358803Y363271D02*
X366042D01*
X369217D02*
X371630D01*
X374424D02*
X374678D01*
X377599D02*
X380139D01*
X383060D02*
X386235D01*
X389537D02*
X394109D01*
X399316D02*
X402745D01*
X413159D02*
X416461D01*
X425224D02*
X426367D01*
X358803Y363144D02*
X366042D01*
X369217D02*
X371503D01*
X374297D02*
X374678D01*
X377599D02*
X380012D01*
X383060D02*
X386235D01*
X389537D02*
X394109D01*
X399316D02*
X402745D01*
X413159D02*
X416461D01*
X425224D02*
X426367D01*
X358803Y363017D02*
X366042D01*
X369217D02*
X371503D01*
X374297D02*
X374805D01*
X377599D02*
X380012D01*
X383060D02*
X386362D01*
X389537D02*
X394109D01*
X399316D02*
X402745D01*
X413159D02*
X416461D01*
X425224D02*
X426367D01*
X358803Y362890D02*
X366169D01*
X369344D02*
X371503D01*
X374297D02*
X374805D01*
X377726D02*
X380012D01*
X382933D02*
X386235D01*
X389537D02*
X394109D01*
X399316D02*
X402745D01*
X413159D02*
X416461D01*
X425224D02*
X426367D01*
X358803Y362763D02*
X366169D01*
X369344D02*
X371503D01*
X374170D02*
X374805D01*
X377726D02*
X380012D01*
X382933D02*
X386235D01*
X389537D02*
X394109D01*
X399316D02*
X402745D01*
X413159D02*
X416461D01*
X425224D02*
X426367D01*
X358803Y362636D02*
X366169D01*
X369344D02*
X371376D01*
X374170D02*
X374932D01*
X377726D02*
X380012D01*
X382933D02*
X386235D01*
X389537D02*
X394109D01*
X399316D02*
X402745D01*
X413159D02*
X416461D01*
X425224D02*
X426367D01*
X358803Y362509D02*
X366296D01*
X369344D02*
X371376D01*
X374170D02*
X374932D01*
X377853D02*
X379885D01*
X382933D02*
X386235D01*
X389537D02*
X394109D01*
X399316D02*
X402745D01*
X413159D02*
X416461D01*
X425224D02*
X426367D01*
X358803Y362382D02*
X366296D01*
X369471D02*
X371376D01*
X374170D02*
X374932D01*
X377853D02*
X379885D01*
X382806D02*
X386235D01*
X389537D02*
X394109D01*
X399316D02*
X402745D01*
X413159D02*
X416461D01*
X425224D02*
X426367D01*
X358803Y362255D02*
X366296D01*
X369471D02*
X371249D01*
X374043D02*
X374932D01*
X377853D02*
X379885D01*
X382806D02*
X386235D01*
X389537D02*
X394109D01*
X399316D02*
X410365D01*
X413159D02*
X416461D01*
X425224D02*
X426367D01*
X358803Y362128D02*
X366296D01*
X369471D02*
X371249D01*
X374043D02*
X375059D01*
X377853D02*
X379885D01*
X382806D02*
X386235D01*
X389537D02*
X394109D01*
X399316D02*
X410365D01*
X413159D02*
X416461D01*
X425224D02*
X426367D01*
X358803Y362001D02*
X366423D01*
X369471D02*
X371249D01*
X374043D02*
X375059D01*
X377980D02*
X379758D01*
X382806D02*
X386235D01*
X389537D02*
X394109D01*
X399316D02*
X410365D01*
X413159D02*
X416461D01*
X425224D02*
X426367D01*
X358803Y361874D02*
X366423D01*
X369471D02*
X371122D01*
X373916D02*
X375059D01*
X377980D02*
X379758D01*
X382679D02*
X386235D01*
X389537D02*
X394109D01*
X399316D02*
X410365D01*
X413159D02*
X416461D01*
X425224D02*
X426367D01*
X358803Y361747D02*
X366423D01*
X369598D02*
X371122D01*
X373916D02*
X375186D01*
X377980D02*
X379758D01*
X382679D02*
X386235D01*
X389537D02*
X394109D01*
X399316D02*
X410365D01*
X413159D02*
X416461D01*
X425224D02*
X426367D01*
X358803Y361620D02*
X366423D01*
X369598D02*
X371122D01*
X373916D02*
X375186D01*
X378107D02*
X379758D01*
X382679D02*
X386235D01*
X389537D02*
X394109D01*
X399316D02*
X410365D01*
X413159D02*
X416461D01*
X425224D02*
X426367D01*
X358803Y361493D02*
X366550D01*
X369598D02*
X371122D01*
X373916D02*
X375186D01*
X378107D02*
X379631D01*
X382552D02*
X386235D01*
X389537D02*
X394109D01*
X399316D02*
X410365D01*
X413159D02*
X416461D01*
X425224D02*
X426367D01*
X358803Y361366D02*
X366550D01*
X369598D02*
X370995D01*
X373789D02*
X375186D01*
X378107D02*
X379631D01*
X382552D02*
X386235D01*
X389537D02*
X394109D01*
X399316D02*
X410365D01*
X413159D02*
X416461D01*
X425224D02*
X426367D01*
X358803Y361239D02*
X366550D01*
X369725D02*
X370995D01*
X373789D02*
X375313D01*
X378107D02*
X379631D01*
X382552D02*
X386235D01*
X389537D02*
X394109D01*
X399316D02*
X410365D01*
X413159D02*
X416461D01*
X425224D02*
X426367D01*
X358803Y361112D02*
X366677D01*
X369725D02*
X370995D01*
X373789D02*
X375313D01*
X378234D02*
X379631D01*
X382552D02*
X386235D01*
X389537D02*
X394109D01*
X399316D02*
X410365D01*
X413159D02*
X416461D01*
X425224D02*
X426367D01*
X358803Y360985D02*
X366677D01*
X369725D02*
X370868D01*
X373662D02*
X375313D01*
X378234D02*
X379631D01*
X382425D02*
X386235D01*
X389537D02*
X394109D01*
X399316D02*
X410365D01*
X413159D02*
X416461D01*
X425224D02*
X426367D01*
X358803Y360858D02*
X366677D01*
X369725D02*
X370868D01*
X373662D02*
X375440D01*
X378234D02*
X379504D01*
X382425D02*
X386235D01*
X389537D02*
X394109D01*
X399316D02*
X410365D01*
X413159D02*
X416461D01*
X425224D02*
X426367D01*
X358803Y360731D02*
X366677D01*
X369725D02*
X370868D01*
X373662D02*
X375440D01*
X378361D02*
X379504D01*
X382425D02*
X386235D01*
X389537D02*
X394109D01*
X399316D02*
X410365D01*
X413159D02*
X416461D01*
X425224D02*
X426367D01*
X358803Y360604D02*
X366804D01*
X369852D02*
X370868D01*
X373662D02*
X375440D01*
X378361D02*
X379504D01*
X382425D02*
X386235D01*
X389537D02*
X394109D01*
X399316D02*
X410365D01*
X413159D02*
X416461D01*
X425224D02*
X426367D01*
X358803Y360477D02*
X366804D01*
X369852D02*
X370741D01*
X373535D02*
X375440D01*
X378361D02*
X379504D01*
X382298D02*
X386235D01*
X389537D02*
X394109D01*
X399316D02*
X410365D01*
X413159D02*
X416461D01*
X425224D02*
X426367D01*
X358803Y360350D02*
X366804D01*
X369852D02*
X370741D01*
X373535D02*
X375567D01*
X378488D02*
X379377D01*
X382298D02*
X386235D01*
X389537D02*
X394109D01*
X399316D02*
X410365D01*
X413159D02*
X416461D01*
X425224D02*
X426367D01*
X358803Y360223D02*
X366804D01*
X369852D02*
X370741D01*
X373535D02*
X375567D01*
X378488D02*
X379377D01*
X382298D02*
X386235D01*
X389537D02*
X394109D01*
X399316D02*
X410365D01*
X413159D02*
X416461D01*
X425224D02*
X426367D01*
X358803Y360096D02*
X366931D01*
X369979D02*
X370614D01*
X373408D02*
X375567D01*
X378488D02*
X379377D01*
X382298D02*
X386235D01*
X389537D02*
X394109D01*
X399316D02*
X410365D01*
X413159D02*
X416461D01*
X425224D02*
X426367D01*
X358803Y359969D02*
X366931D01*
X369979D02*
X370614D01*
X373408D02*
X375694D01*
X378488D02*
X379377D01*
X382171D02*
X386235D01*
X389537D02*
X394109D01*
X399316D02*
X410365D01*
X413159D02*
X416461D01*
X425224D02*
X426367D01*
X358803Y359842D02*
X366931D01*
X369979D02*
X370614D01*
X373408D02*
X375694D01*
X378615D02*
X379250D01*
X382171D02*
X386235D01*
X389537D02*
X394109D01*
X399316D02*
X410365D01*
X413159D02*
X416461D01*
X425224D02*
X426367D01*
X358803Y359715D02*
X366931D01*
X369979D02*
X370487D01*
X373408D02*
X375694D01*
X378615D02*
X379250D01*
X382171D02*
X386235D01*
X389537D02*
X394109D01*
X399316D02*
X410365D01*
X413159D02*
X416461D01*
X425224D02*
X426367D01*
X358803Y359588D02*
X367058D01*
X369979D02*
X370487D01*
X373281D02*
X375694D01*
X378615D02*
X379250D01*
X382171D02*
X386235D01*
X389537D02*
X394109D01*
X399316D02*
X410365D01*
X413159D02*
X416461D01*
X425224D02*
X426367D01*
X358803Y359461D02*
X367058D01*
X370106D02*
X370487D01*
X373281D02*
X375821D01*
X378615D02*
X379250D01*
X382044D02*
X386235D01*
X389537D02*
X394109D01*
X399316D02*
X410365D01*
X413159D02*
X416461D01*
X425224D02*
X426367D01*
X358803Y359334D02*
X367058D01*
X370106D02*
X370487D01*
X373281D02*
X375821D01*
X378742D02*
X379250D01*
X382044D02*
X386235D01*
X389537D02*
X394109D01*
X399316D02*
X410365D01*
X413159D02*
X416461D01*
X425224D02*
X426367D01*
X358803Y359207D02*
X367185D01*
X370106D02*
X370360D01*
X373154D02*
X375821D01*
X378742D02*
X379123D01*
X382044D02*
X386235D01*
X389537D02*
X394109D01*
X399316D02*
X410365D01*
X413159D02*
X416461D01*
X425224D02*
X426367D01*
X358803Y359080D02*
X367185D01*
X370106D02*
X370360D01*
X373154D02*
X375948D01*
X378742D02*
X379123D01*
X381917D02*
X386235D01*
X389537D02*
X394109D01*
X399316D02*
X402745D01*
X413159D02*
X416461D01*
X425224D02*
X426367D01*
X358803Y358953D02*
X367185D01*
X370233D02*
X370360D01*
X373154D02*
X375948D01*
X378869D02*
X379123D01*
X381917D02*
X386235D01*
X389537D02*
X394109D01*
X399316D02*
X402745D01*
X413159D02*
X416461D01*
X425224D02*
X426367D01*
X358803Y358826D02*
X367185D01*
X373154D02*
X375948D01*
X378869D02*
X379123D01*
X381917D02*
X386235D01*
X389537D02*
X394109D01*
X399316D02*
X402745D01*
X413159D02*
X416461D01*
X425224D02*
X426367D01*
X358803Y358699D02*
X367312D01*
X373027D02*
X375948D01*
X378869D02*
X378996D01*
X381917D02*
X386235D01*
X389537D02*
X394109D01*
X399316D02*
X402745D01*
X413159D02*
X416461D01*
X425224D02*
X426367D01*
X358803Y358572D02*
X367312D01*
X373027D02*
X376075D01*
X378869D02*
X378996D01*
X381790D02*
X386235D01*
X389537D02*
X394109D01*
X399316D02*
X402745D01*
X413159D02*
X416461D01*
X425224D02*
X426367D01*
X358803Y358445D02*
X367312D01*
X373027D02*
X376075D01*
X381790D02*
X386235D01*
X389537D02*
X394109D01*
X399316D02*
X402745D01*
X413159D02*
X416461D01*
X425224D02*
X426367D01*
X358803Y358318D02*
X367312D01*
X372900D02*
X376075D01*
X381790D02*
X386235D01*
X389537D02*
X394109D01*
X399316D02*
X402745D01*
X413159D02*
X416461D01*
X425224D02*
X426367D01*
X358803Y358191D02*
X367439D01*
X372900D02*
X376202D01*
X381790D02*
X386235D01*
X389537D02*
X394109D01*
X399316D02*
X402745D01*
X413159D02*
X416461D01*
X425224D02*
X426367D01*
X358803Y358064D02*
X367439D01*
X372900D02*
X376202D01*
X381663D02*
X386235D01*
X389537D02*
X394109D01*
X399316D02*
X402745D01*
X413159D02*
X416461D01*
X425224D02*
X426367D01*
X358803Y357937D02*
X367439D01*
X372773D02*
X376202D01*
X381663D02*
X386235D01*
X389537D02*
X394109D01*
X399316D02*
X402745D01*
X413159D02*
X416461D01*
X425224D02*
X426367D01*
X358803Y357810D02*
X367566D01*
X372773D02*
X376329D01*
X381663D02*
X386235D01*
X389537D02*
X394109D01*
X399316D02*
X402745D01*
X413159D02*
X416461D01*
X425224D02*
X426367D01*
X358803Y357683D02*
X367566D01*
X372773D02*
X376329D01*
X381663D02*
X386235D01*
X389537D02*
X394109D01*
X399316D02*
X402745D01*
X413159D02*
X416461D01*
X425224D02*
X426367D01*
X358803Y357556D02*
X367566D01*
X372773D02*
X376329D01*
X381536D02*
X386235D01*
X389537D02*
X394109D01*
X399316D02*
X402745D01*
X413159D02*
X416461D01*
X425224D02*
X426367D01*
X358803Y357429D02*
X367566D01*
X372646D02*
X376329D01*
X381536D02*
X386235D01*
X389537D02*
X394109D01*
X399316D02*
X402745D01*
X413159D02*
X416461D01*
X425224D02*
X426367D01*
X358803Y357302D02*
X367693D01*
X372646D02*
X376456D01*
X381536D02*
X386235D01*
X389537D02*
X394109D01*
X399316D02*
X402745D01*
X413159D02*
X416461D01*
X425224D02*
X426367D01*
X358803Y357175D02*
X367693D01*
X372646D02*
X376456D01*
X381536D02*
X386235D01*
X389537D02*
X394109D01*
X399316D02*
X402745D01*
X413159D02*
X416461D01*
X425224D02*
X426367D01*
X358803Y357048D02*
X367693D01*
X372519D02*
X376456D01*
X381409D02*
X386235D01*
X389537D02*
X394109D01*
X399316D02*
X402745D01*
X413159D02*
X416461D01*
X425224D02*
X426367D01*
X358803Y356921D02*
X367693D01*
X372519D02*
X376456D01*
X381409D02*
X386235D01*
X389537D02*
X394109D01*
X399316D02*
X402745D01*
X413159D02*
X416461D01*
X425224D02*
X426367D01*
X358803Y356794D02*
X367820D01*
X372519D02*
X376583D01*
X381409D02*
X386235D01*
X389537D02*
X394109D01*
X399316D02*
X402745D01*
X413159D02*
X416461D01*
X425224D02*
X426367D01*
X358803Y356667D02*
X367820D01*
X372519D02*
X376583D01*
X381282D02*
X386235D01*
X389537D02*
X394109D01*
X399316D02*
X402745D01*
X413159D02*
X416461D01*
X425224D02*
X426367D01*
X358803Y356540D02*
X367820D01*
X372392D02*
X376583D01*
X381282D02*
X386235D01*
X389537D02*
X394109D01*
X399316D02*
X402745D01*
X413159D02*
X416461D01*
X425224D02*
X426367D01*
X358803Y356413D02*
X367820D01*
X372392D02*
X376710D01*
X381282D02*
X386235D01*
X389537D02*
X394109D01*
X399316D02*
X402745D01*
X413159D02*
X416461D01*
X425224D02*
X426367D01*
X358803Y356286D02*
X367947D01*
X372392D02*
X376710D01*
X381282D02*
X386235D01*
X389537D02*
X394109D01*
X399316D02*
X402745D01*
X413159D02*
X416461D01*
X425224D02*
X426367D01*
X358803Y356159D02*
X367947D01*
X372265D02*
X376710D01*
X381155D02*
X386235D01*
X389537D02*
X394109D01*
X399316D02*
X402745D01*
X413159D02*
X416461D01*
X425224D02*
X426367D01*
X358930Y356032D02*
X367947D01*
X372265D02*
X376710D01*
X381155D02*
X386235D01*
X389537D02*
X394109D01*
X399316D02*
X402745D01*
X413159D02*
X416461D01*
X425224D02*
X426240D01*
X358930Y355905D02*
X368074D01*
X372265D02*
X376837D01*
X381155D02*
X386235D01*
X389537D02*
X393982D01*
X399316D02*
X402745D01*
X413159D02*
X416461D01*
X425224D02*
X426240D01*
X358930Y355778D02*
X368074D01*
X372265D02*
X376837D01*
X381155D02*
X386235D01*
X389537D02*
X393982D01*
X399316D02*
X402745D01*
X413159D02*
X416461D01*
X425224D02*
X426240D01*
X358930Y355651D02*
X368074D01*
X372138D02*
X376837D01*
X381028D02*
X386235D01*
X389537D02*
X393982D01*
X399316D02*
X402745D01*
X413159D02*
X416461D01*
X425224D02*
X426240D01*
X358930Y355524D02*
X368074D01*
X372138D02*
X376964D01*
X381028D02*
X386235D01*
X389537D02*
X393982D01*
X399316D02*
X402745D01*
X413159D02*
X416461D01*
X425097D02*
X426240D01*
X358930Y355397D02*
X368201D01*
X372138D02*
X376964D01*
X381028D02*
X386235D01*
X389537D02*
X393982D01*
X399316D02*
X402745D01*
X413159D02*
X416461D01*
X425097D02*
X426240D01*
X358930Y355270D02*
X368201D01*
X372011D02*
X376964D01*
X381028D02*
X386235D01*
X389537D02*
X393982D01*
X399316D02*
X402745D01*
X413159D02*
X416461D01*
X425097D02*
X426113D01*
X359057Y355143D02*
X368201D01*
X372011D02*
X377091D01*
X380901D02*
X386235D01*
X389537D02*
X393982D01*
X399316D02*
X402745D01*
X413159D02*
X416461D01*
X425097D02*
X426113D01*
X359057Y355016D02*
X368201D01*
X372011D02*
X377091D01*
X380901D02*
X386235D01*
X389537D02*
X393982D01*
X399316D02*
X402745D01*
X413159D02*
X416461D01*
X425097D02*
X426113D01*
X359057Y354889D02*
X368328D01*
X372011D02*
X377091D01*
X380901D02*
X386235D01*
X389537D02*
X393855D01*
X399316D02*
X402745D01*
X413159D02*
X416461D01*
X424970D02*
X426113D01*
X359057Y354762D02*
X368328D01*
X371884D02*
X377091D01*
X380901D02*
X386235D01*
X389537D02*
X393855D01*
X399316D02*
X402745D01*
X413159D02*
X416461D01*
X424970D02*
X426113D01*
X359057Y354635D02*
X368328D01*
X371884D02*
X377218D01*
X380774D02*
X386235D01*
X389537D02*
X393855D01*
X399316D02*
X402745D01*
X413159D02*
X416461D01*
X424970D02*
X425986D01*
X359184Y354508D02*
X368328D01*
X371884D02*
X377218D01*
X380774D02*
X386235D01*
X389537D02*
X393855D01*
X399316D02*
X402745D01*
X413159D02*
X416461D01*
X424970D02*
X425986D01*
X359184Y354381D02*
X368455D01*
X371757D02*
X377218D01*
X380774D02*
X386235D01*
X389537D02*
X393855D01*
X399316D02*
X402745D01*
X413159D02*
X416461D01*
X424843D02*
X425986D01*
X359184Y354254D02*
X368455D01*
X371757D02*
X377345D01*
X380647D02*
X386235D01*
X389537D02*
X393728D01*
X399316D02*
X402745D01*
X413159D02*
X416461D01*
X424843D02*
X425986D01*
X359311Y354127D02*
X368455D01*
X371757D02*
X377345D01*
X380647D02*
X386235D01*
X389537D02*
X393728D01*
X399316D02*
X402745D01*
X413159D02*
X416461D01*
X424843D02*
X425859D01*
X359311Y354000D02*
X368582D01*
X371757D02*
X377345D01*
X380647D02*
X386235D01*
X389537D02*
X393728D01*
X399316D02*
X402745D01*
X413159D02*
X416461D01*
X424716D02*
X425859D01*
X359311Y353873D02*
X368582D01*
X371630D02*
X377345D01*
X380647D02*
X386235D01*
X389537D02*
X393728D01*
X399316D02*
X402745D01*
X413159D02*
X416461D01*
X424716D02*
X425859D01*
X359311Y353746D02*
X368582D01*
X371630D02*
X377472D01*
X380520D02*
X386362D01*
X389537D02*
X393601D01*
X399316D02*
X402745D01*
X413159D02*
X416461D01*
X424716D02*
X425732D01*
X359438Y353619D02*
X368582D01*
X371630D02*
X377472D01*
X380520D02*
X386362D01*
X389537D02*
X393601D01*
X399316D02*
X402745D01*
X413159D02*
X416461D01*
X424589D02*
X425732D01*
X359438Y353492D02*
X368709D01*
X371503D02*
X377472D01*
X380520D02*
X386235D01*
X389537D02*
X393601D01*
X399316D02*
X402745D01*
X413159D02*
X416461D01*
X424589D02*
X425732D01*
X359565Y353365D02*
X368709D01*
X371503D02*
X377599D01*
X380520D02*
X386235D01*
X389537D02*
X393601D01*
X399316D02*
X402745D01*
X413159D02*
X416461D01*
X424589D02*
X425605D01*
X359565Y353238D02*
X368709D01*
X371503D02*
X377599D01*
X380393D02*
X386235D01*
X389537D02*
X393474D01*
X399316D02*
X402745D01*
X413159D02*
X416461D01*
X424462D02*
X425605D01*
X359565Y353111D02*
X368836D01*
X369090D02*
X369217D01*
X371249D02*
X377599D01*
X377853D02*
X377980D01*
X378107D02*
X378361D01*
X380393D02*
X386362D01*
X389537D02*
X393474D01*
X399570D02*
X402745D01*
X413413D02*
X413667D01*
X413921D02*
X415953D01*
X416334D02*
X416461D01*
X424462D02*
X425605D01*
X359692Y352984D02*
X393474D01*
X424335D02*
X425478D01*
X359692Y352857D02*
X393347D01*
X424335D02*
X425478D01*
X359819Y352730D02*
X393347D01*
X424208D02*
X425351D01*
X359819Y352603D02*
X393347D01*
X424208D02*
X425351D01*
X359819Y352476D02*
X393220D01*
X424081D02*
X425224D01*
X359946Y352349D02*
X393220D01*
X424081D02*
X425224D01*
X359946Y352222D02*
X393093D01*
X423954D02*
X425097D01*
X360073Y352095D02*
X393093D01*
X423954D02*
X425097D01*
X360073Y351968D02*
X393093D01*
X423827D02*
X424970D01*
X360200Y351841D02*
X392966D01*
X423827D02*
X424970D01*
X360327Y351714D02*
X392966D01*
X423700D02*
X424843D01*
X360327Y351587D02*
X392839D01*
X423573D02*
X424843D01*
X360454Y351460D02*
X392839D01*
X423573D02*
X424716D01*
X360454Y351333D02*
X392712D01*
X423446D02*
X424716D01*
X360581Y351206D02*
X392712D01*
X423319D02*
X424589D01*
X360708Y351079D02*
X392585D01*
X423192D02*
X424462D01*
X360708Y350952D02*
X392585D01*
X423192D02*
X424462D01*
X360835Y350825D02*
X392458D01*
X423065D02*
X424335D01*
X360962Y350698D02*
X392458D01*
X422938D02*
X424208D01*
X361089Y350571D02*
X392331D01*
X422811D02*
X424081D01*
X361089Y350444D02*
X392204D01*
X422684D02*
X424081D01*
X361216Y350317D02*
X392204D01*
X422557D02*
X423954D01*
X361343Y350190D02*
X392077D01*
X422557D02*
X423827D01*
X361470Y350063D02*
X391950D01*
X422430D02*
X423700D01*
X361470Y349936D02*
X391950D01*
X422303D02*
X423573D01*
X361597Y349809D02*
X391823D01*
X422176D02*
X423573D01*
X361724Y349682D02*
X391696D01*
X421922D02*
X423446D01*
X361851Y349555D02*
X391696D01*
X421795D02*
X423319D01*
X361978Y349428D02*
X391569D01*
X421668D02*
X423192D01*
X362105Y349301D02*
X391442D01*
X421541D02*
X423065D01*
X362232Y349174D02*
X391315D01*
X421414D02*
X422938D01*
X362359Y349047D02*
X391188D01*
X421160D02*
X422811D01*
X362486Y348920D02*
X391188D01*
X421033D02*
X422684D01*
X362613Y348793D02*
X391061D01*
X420906D02*
X422557D01*
X362867Y348666D02*
X390934D01*
X420652D02*
X422303D01*
X362994Y348539D02*
X390807D01*
X420525D02*
X422176D01*
X363121Y348412D02*
X390680D01*
X420271D02*
X422049D01*
X363248Y348285D02*
X390553D01*
X420017D02*
X421922D01*
X363375Y348158D02*
X390426D01*
X419763D02*
X421668D01*
X363629Y348031D02*
X390299D01*
X419509D02*
X421541D01*
X363756Y347904D02*
X390172D01*
X419255D02*
X421414D01*
X364010Y347777D02*
X390045D01*
X419001D02*
X421160D01*
X364137Y347650D02*
X389918D01*
X418620D02*
X421033D01*
X364391Y347523D02*
X389791D01*
X418239D02*
X420779D01*
X364645Y347396D02*
X389664D01*
X417858D02*
X420525D01*
X364899Y347269D02*
X389410D01*
X417223D02*
X420271D01*
X365153Y347142D02*
X389283D01*
X416334D02*
X420017D01*
X365407Y347015D02*
X419763D01*
X365661Y346888D02*
X419509D01*
X365915Y346761D02*
X419255D01*
X366296Y346634D02*
X418874D01*
X366677Y346507D02*
X418493D01*
X367058Y346380D02*
X418112D01*
X367566Y346253D02*
X417604D01*
X368201Y346126D02*
X417096D01*
X369090Y345999D02*
X416080D01*
D45*
X726336Y163332D02*
X725003Y161999D01*
Y159333D01*
X726336Y158000D01*
X731667D01*
X733000Y159333D01*
Y161999D01*
X731667Y163332D01*
X729001D01*
Y160666D01*
X733000Y165997D02*
X725003D01*
X733000Y171329D01*
X725003D01*
Y173995D02*
X733000D01*
Y177994D01*
X731667Y179326D01*
X726336D01*
X725003Y177994D01*
Y173995D01*
Y189990D02*
X733000D01*
Y193988D01*
X731667Y195321D01*
X730334D01*
X729001Y193988D01*
Y189990D01*
Y193988D01*
X727668Y195321D01*
X726336D01*
X725003Y193988D01*
Y189990D01*
X727668Y199320D02*
Y201986D01*
X729001Y203319D01*
X733000D01*
Y199320D01*
X731667Y197987D01*
X730334Y199320D01*
Y203319D01*
X726336Y207317D02*
X727668D01*
Y205984D01*
Y208650D01*
Y207317D01*
X731667D01*
X733000Y208650D01*
X726336Y213982D02*
X727668D01*
Y212649D01*
Y215315D01*
Y213982D01*
X731667D01*
X733000Y215315D01*
Y223312D02*
Y220646D01*
X731667Y219314D01*
X729001D01*
X727668Y220646D01*
Y223312D01*
X729001Y224645D01*
X730334D01*
Y219314D01*
X727668Y227311D02*
X733000D01*
X730334D01*
X729001Y228644D01*
X727668Y229977D01*
Y231310D01*
Y235308D02*
X731667D01*
X733000Y236641D01*
Y240640D01*
X734333D01*
X735666Y239307D01*
Y237974D01*
X733000Y240640D02*
X727668D01*
X725003Y251303D02*
X733000D01*
X729001D01*
Y256635D01*
X725003D01*
X733000D01*
Y260634D02*
Y263299D01*
X731667Y264632D01*
X729001D01*
X727668Y263299D01*
Y260634D01*
X729001Y259301D01*
X731667D01*
X733000Y260634D01*
Y267298D02*
Y269964D01*
Y268631D01*
X725003D01*
Y267298D01*
Y279294D02*
X733000D01*
Y275296D01*
X731667Y273963D01*
X729001D01*
X727668Y275296D01*
Y279294D01*
X733000Y285959D02*
Y283293D01*
X731667Y281960D01*
X729001D01*
X727668Y283293D01*
Y285959D01*
X729001Y287292D01*
X730334D01*
Y281960D01*
X727668Y289957D02*
X733000D01*
X730334D01*
X729001Y291290D01*
X727668Y292623D01*
Y293956D01*
X98499Y110000D02*
Y105335D01*
X100831Y107667D02*
X96166D01*
X98499Y300000D02*
Y295335D01*
X100831Y297667D02*
X96166D01*
X55003Y109000D02*
X61668D01*
X65000Y112332D01*
X61668Y115665D01*
X55003D01*
X56669Y125661D02*
X55003Y123995D01*
Y120663D01*
X56669Y118997D01*
X63334D01*
X65000Y120663D01*
Y123995D01*
X63334Y125661D01*
X56669Y135658D02*
X55003Y133992D01*
Y130660D01*
X56669Y128994D01*
X63334D01*
X65000Y130660D01*
Y133992D01*
X63334Y135658D01*
X55003Y148987D02*
X65000D01*
Y153986D01*
X63334Y155652D01*
X61668D01*
X60002Y153986D01*
Y148987D01*
Y153986D01*
X58335Y155652D01*
X56669D01*
X55003Y153986D01*
Y148987D01*
X58335Y160650D02*
Y163982D01*
X60002Y165648D01*
X65000D01*
Y160650D01*
X63334Y158984D01*
X61668Y160650D01*
Y165648D01*
X56669Y170647D02*
X58335D01*
Y168981D01*
Y172313D01*
Y170647D01*
X63334D01*
X65000Y172313D01*
X56669Y178977D02*
X58335D01*
Y177311D01*
Y180644D01*
Y178977D01*
X63334D01*
X65000Y180644D01*
Y190640D02*
Y187308D01*
X63334Y185642D01*
X60002D01*
X58335Y187308D01*
Y190640D01*
X60002Y192306D01*
X61668D01*
Y185642D01*
X58335Y195639D02*
X65000D01*
X61668D01*
X60002Y197305D01*
X58335Y198971D01*
Y200637D01*
Y205636D02*
X63334D01*
X65000Y207302D01*
Y212300D01*
X66666D01*
X68332Y210634D01*
Y208968D01*
X65000Y212300D02*
X58335D01*
X55003Y225629D02*
X65000D01*
X60002D01*
Y232294D01*
X55003D01*
X65000D01*
Y237292D02*
Y240624D01*
X63334Y242290D01*
X60002D01*
X58335Y240624D01*
Y237292D01*
X60002Y235626D01*
X63334D01*
X65000Y237292D01*
Y245623D02*
Y248955D01*
Y247289D01*
X55003D01*
Y245623D01*
Y260618D02*
X65000D01*
Y255619D01*
X63334Y253953D01*
X60002D01*
X58335Y255619D01*
Y260618D01*
X65000Y268948D02*
Y265616D01*
X63334Y263950D01*
X60002D01*
X58335Y265616D01*
Y268948D01*
X60002Y270614D01*
X61668D01*
Y263950D01*
X58335Y273947D02*
X65000D01*
X61668D01*
X60002Y275613D01*
X58335Y277279D01*
Y278945D01*
M02*
